G04 EAGLE Gerber RS-274X export*
G75*
%MOMM*%
%FSLAX34Y34*%
%LPD*%
%INBottom Copper*%
%IPPOS*%
%AMOC8*
5,1,8,0,0,1.08239X$1,22.5*%
G01*
G04 Define Apertures*
%ADD10R,0.762000X0.279400*%
%ADD11R,0.973900X0.798700*%
%ADD12R,0.798700X0.973900*%
%ADD13R,0.970200X0.920900*%
%ADD14C,1.270000*%
%ADD15R,0.600000X1.700000*%
%ADD16R,2.500000X2.800000*%
%ADD17P,1.64956X8X22.5*%
%ADD18R,0.535100X0.644000*%
%ADD19C,1.508000*%
%ADD20C,0.152400*%
%ADD21C,0.756400*%
G36*
X289095Y10220D02*
X288798Y10160D01*
X10922Y10160D01*
X10647Y10211D01*
X10392Y10375D01*
X10220Y10625D01*
X10160Y10922D01*
X10160Y86829D01*
X10207Y87092D01*
X10366Y87350D01*
X10614Y87526D01*
X10910Y87591D01*
X11208Y87535D01*
X11461Y87368D01*
X15262Y83566D01*
X22838Y83566D01*
X28326Y89054D01*
X28400Y89175D01*
X28648Y89350D01*
X28944Y89415D01*
X29242Y89360D01*
X29495Y89192D01*
X38677Y80010D01*
X44759Y80010D01*
X45022Y79963D01*
X45280Y79804D01*
X45455Y79556D01*
X45520Y79260D01*
X45465Y78962D01*
X45297Y78709D01*
X44986Y78398D01*
X44986Y74002D01*
X48094Y70894D01*
X51370Y70894D01*
X51645Y70843D01*
X51900Y70679D01*
X52072Y70429D01*
X52132Y70132D01*
X52132Y53469D01*
X53025Y52576D01*
X60287Y52576D01*
X61117Y53406D01*
X61348Y53564D01*
X61644Y53629D01*
X61942Y53573D01*
X62195Y53406D01*
X63025Y52576D01*
X67319Y52576D01*
X67605Y52520D01*
X67858Y52353D01*
X69147Y51064D01*
X69310Y50823D01*
X69370Y50525D01*
X69370Y46570D01*
X72478Y43462D01*
X76874Y43462D01*
X79982Y46570D01*
X79982Y50966D01*
X79673Y51275D01*
X79520Y51495D01*
X79450Y51790D01*
X79501Y52089D01*
X79664Y52344D01*
X79914Y52516D01*
X80211Y52576D01*
X80287Y52576D01*
X81117Y53406D01*
X81348Y53564D01*
X81644Y53629D01*
X81942Y53573D01*
X82195Y53406D01*
X83025Y52576D01*
X90287Y52576D01*
X90399Y52688D01*
X90629Y52846D01*
X90925Y52911D01*
X91224Y52855D01*
X91476Y52688D01*
X92604Y51560D01*
X95894Y51560D01*
X95894Y73640D01*
X92604Y73640D01*
X91476Y72513D01*
X91246Y72355D01*
X90950Y72289D01*
X90652Y72345D01*
X90399Y72513D01*
X90287Y72624D01*
X87897Y72624D01*
X87611Y72680D01*
X87358Y72847D01*
X58636Y101569D01*
X58478Y101800D01*
X58413Y102096D01*
X58468Y102394D01*
X58636Y102647D01*
X92202Y136213D01*
X92202Y202739D01*
X92253Y203013D01*
X92417Y203269D01*
X92667Y203440D01*
X92964Y203501D01*
X96730Y203501D01*
X97623Y204393D01*
X97623Y213643D01*
X96730Y214536D01*
X85729Y214536D01*
X84836Y213643D01*
X84836Y204393D01*
X85729Y203501D01*
X86868Y203501D01*
X87143Y203449D01*
X87398Y203286D01*
X87570Y203036D01*
X87630Y202739D01*
X87630Y138423D01*
X87574Y138137D01*
X87407Y137884D01*
X50346Y100823D01*
X50116Y100665D01*
X49820Y100600D01*
X49521Y100656D01*
X49269Y100823D01*
X48238Y101854D01*
X40662Y101854D01*
X35306Y96498D01*
X35306Y91687D01*
X35259Y91423D01*
X35100Y91165D01*
X34852Y90990D01*
X34556Y90925D01*
X34258Y90980D01*
X34005Y91148D01*
X28156Y96997D01*
X27998Y97228D01*
X27933Y97524D01*
X27988Y97822D01*
X28156Y98075D01*
X31242Y101161D01*
X31242Y163329D01*
X31298Y163615D01*
X31465Y163868D01*
X59834Y192237D01*
X60048Y192388D01*
X60343Y192460D01*
X60642Y192411D01*
X60899Y192250D01*
X61072Y192001D01*
X61135Y191705D01*
X61077Y191407D01*
X59690Y188058D01*
X59690Y187052D01*
X67818Y187052D01*
X67818Y195180D01*
X66812Y195180D01*
X63463Y193793D01*
X63208Y193736D01*
X62908Y193782D01*
X62650Y193941D01*
X62475Y194189D01*
X62410Y194485D01*
X62465Y194783D01*
X62633Y195036D01*
X69342Y201745D01*
X69342Y202739D01*
X69393Y203013D01*
X69557Y203269D01*
X69807Y203440D01*
X70104Y203501D01*
X73222Y203501D01*
X74115Y204393D01*
X74115Y213643D01*
X73222Y214536D01*
X62220Y214536D01*
X61328Y213643D01*
X61328Y204393D01*
X62220Y203501D01*
X62792Y203501D01*
X63055Y203454D01*
X63313Y203294D01*
X63489Y203047D01*
X63554Y202751D01*
X63498Y202453D01*
X63331Y202200D01*
X26670Y165539D01*
X26670Y125261D01*
X26623Y124998D01*
X26464Y124740D01*
X26216Y124564D01*
X25920Y124499D01*
X25622Y124555D01*
X25369Y124722D01*
X22838Y127254D01*
X15262Y127254D01*
X11461Y123452D01*
X11241Y123299D01*
X10946Y123230D01*
X10647Y123280D01*
X10392Y123444D01*
X10220Y123694D01*
X10160Y123991D01*
X10160Y197710D01*
X10209Y197979D01*
X10370Y198236D01*
X10619Y198409D01*
X10916Y198472D01*
X11214Y198414D01*
X19432Y195010D01*
X28248Y195010D01*
X36393Y198384D01*
X42626Y204617D01*
X46000Y212762D01*
X46000Y221578D01*
X42626Y229723D01*
X36393Y235956D01*
X28248Y239330D01*
X19432Y239330D01*
X11214Y235926D01*
X10946Y235868D01*
X10647Y235919D01*
X10392Y236082D01*
X10220Y236333D01*
X10160Y236630D01*
X10160Y739078D01*
X10211Y739353D01*
X10375Y739608D01*
X10625Y739780D01*
X10922Y739840D01*
X54802Y739840D01*
X55065Y739793D01*
X55323Y739634D01*
X55499Y739386D01*
X55564Y739090D01*
X55508Y738792D01*
X55341Y738539D01*
X53276Y736474D01*
X51896Y733143D01*
X51896Y729537D01*
X53276Y726206D01*
X55826Y723656D01*
X59157Y722276D01*
X62763Y722276D01*
X66094Y723656D01*
X68644Y726206D01*
X69234Y727630D01*
X69374Y727851D01*
X69619Y728030D01*
X69914Y728100D01*
X70213Y728049D01*
X70468Y727886D01*
X70640Y727635D01*
X70700Y727338D01*
X70700Y721697D01*
X74074Y713553D01*
X80307Y707319D01*
X88452Y703945D01*
X97268Y703945D01*
X105413Y707319D01*
X111646Y713553D01*
X115020Y721697D01*
X115020Y730513D01*
X111593Y738786D01*
X111536Y739054D01*
X111586Y739353D01*
X111750Y739608D01*
X112000Y739780D01*
X112297Y739840D01*
X187423Y739840D01*
X187692Y739791D01*
X187949Y739630D01*
X188122Y739381D01*
X188185Y739084D01*
X188127Y738786D01*
X184700Y730513D01*
X184700Y721697D01*
X188074Y713553D01*
X194307Y707319D01*
X202452Y703945D01*
X211268Y703945D01*
X219413Y707319D01*
X225646Y713553D01*
X229020Y721697D01*
X229020Y727338D01*
X229065Y727596D01*
X229222Y727855D01*
X229468Y728033D01*
X229764Y728100D01*
X230062Y728047D01*
X230317Y727881D01*
X230486Y727630D01*
X231076Y726206D01*
X233626Y723656D01*
X236957Y722276D01*
X240563Y722276D01*
X243894Y723656D01*
X246444Y726206D01*
X247824Y729537D01*
X247824Y733143D01*
X246444Y736474D01*
X244379Y738539D01*
X244226Y738759D01*
X244156Y739054D01*
X244207Y739353D01*
X244371Y739608D01*
X244621Y739780D01*
X244918Y739840D01*
X288798Y739840D01*
X289073Y739789D01*
X289328Y739625D01*
X289500Y739375D01*
X289560Y739078D01*
X289560Y237442D01*
X289511Y237173D01*
X289350Y236916D01*
X289101Y236742D01*
X288804Y236680D01*
X288506Y236738D01*
X282248Y239330D01*
X273432Y239330D01*
X265287Y235956D01*
X259054Y229723D01*
X255680Y221578D01*
X255680Y212762D01*
X259054Y204617D01*
X265287Y198384D01*
X273432Y195010D01*
X282248Y195010D01*
X288506Y197602D01*
X288774Y197660D01*
X289073Y197609D01*
X289328Y197446D01*
X289500Y197196D01*
X289560Y196898D01*
X289560Y125428D01*
X289513Y125165D01*
X289354Y124907D01*
X289106Y124731D01*
X288810Y124666D01*
X288512Y124722D01*
X288259Y124889D01*
X284878Y128270D01*
X281432Y128270D01*
X281432Y107950D01*
X284878Y107950D01*
X288259Y111331D01*
X288479Y111484D01*
X288774Y111554D01*
X289073Y111503D01*
X289328Y111339D01*
X289500Y111089D01*
X289560Y110792D01*
X289560Y98591D01*
X289513Y98328D01*
X289354Y98070D01*
X289106Y97894D01*
X288810Y97829D01*
X288512Y97885D01*
X288259Y98052D01*
X284457Y101854D01*
X276882Y101854D01*
X273335Y98306D01*
X273115Y98153D01*
X272820Y98084D01*
X272521Y98135D01*
X272266Y98298D01*
X272094Y98548D01*
X272034Y98845D01*
X272034Y110538D01*
X272081Y110801D01*
X272240Y111059D01*
X272488Y111235D01*
X272784Y111300D01*
X273082Y111244D01*
X273335Y111077D01*
X276462Y107950D01*
X279908Y107950D01*
X279908Y128270D01*
X276462Y128270D01*
X273335Y125143D01*
X273115Y124990D01*
X272820Y124921D01*
X272521Y124971D01*
X272266Y125135D01*
X272094Y125385D01*
X272034Y125682D01*
X272034Y164015D01*
X270472Y165577D01*
X270114Y165935D01*
X269956Y166165D01*
X269891Y166462D01*
X269947Y166760D01*
X270114Y167013D01*
X270764Y167662D01*
X270764Y175238D01*
X265408Y180594D01*
X257832Y180594D01*
X252476Y175238D01*
X252476Y174745D01*
X252429Y174481D01*
X252270Y174223D01*
X252022Y174048D01*
X251726Y173983D01*
X251428Y174038D01*
X251175Y174206D01*
X235681Y189700D01*
X235518Y189941D01*
X235458Y190239D01*
X235458Y202739D01*
X235509Y203013D01*
X235673Y203269D01*
X235923Y203440D01*
X236220Y203501D01*
X237780Y203501D01*
X238672Y204393D01*
X238672Y213643D01*
X237780Y214536D01*
X226778Y214536D01*
X225885Y213643D01*
X225885Y204393D01*
X226778Y203501D01*
X230124Y203501D01*
X230399Y203449D01*
X230654Y203286D01*
X230826Y203036D01*
X230886Y202739D01*
X230886Y188029D01*
X237020Y181895D01*
X237173Y181675D01*
X237243Y181380D01*
X237192Y181081D01*
X237029Y180826D01*
X236779Y180654D01*
X236481Y180594D01*
X232432Y180594D01*
X226957Y175118D01*
X226726Y174960D01*
X226430Y174895D01*
X226132Y174951D01*
X225879Y175118D01*
X211297Y189700D01*
X211134Y189941D01*
X211074Y190239D01*
X211074Y202739D01*
X211125Y203013D01*
X211289Y203269D01*
X211539Y203440D01*
X211836Y203501D01*
X214271Y203501D01*
X215164Y204393D01*
X215164Y213643D01*
X214271Y214536D01*
X203270Y214536D01*
X202377Y213643D01*
X202377Y204393D01*
X203270Y203501D01*
X205740Y203501D01*
X206015Y203449D01*
X206270Y203286D01*
X206442Y203036D01*
X206502Y202739D01*
X206502Y188029D01*
X212636Y181895D01*
X212789Y181675D01*
X212859Y181380D01*
X212808Y181081D01*
X212645Y180826D01*
X212395Y180654D01*
X212097Y180594D01*
X207032Y180594D01*
X201676Y175238D01*
X201676Y167662D01*
X207032Y162306D01*
X210312Y162306D01*
X210587Y162255D01*
X210842Y162091D01*
X211014Y161841D01*
X211074Y161544D01*
X211074Y125174D01*
X211027Y124911D01*
X210868Y124653D01*
X210620Y124477D01*
X210324Y124412D01*
X210026Y124468D01*
X209773Y124635D01*
X206138Y128270D01*
X202692Y128270D01*
X202692Y107950D01*
X206138Y107950D01*
X209773Y111585D01*
X209993Y111738D01*
X210288Y111808D01*
X210587Y111757D01*
X210842Y111593D01*
X211014Y111343D01*
X211074Y111046D01*
X211074Y110689D01*
X211018Y110403D01*
X210851Y110151D01*
X208054Y107354D01*
X208054Y102958D01*
X211162Y99850D01*
X215558Y99850D01*
X218666Y102958D01*
X218666Y107354D01*
X215869Y110151D01*
X215706Y110392D01*
X215646Y110689D01*
X215646Y163029D01*
X215702Y163315D01*
X215869Y163568D01*
X219964Y167662D01*
X219964Y172727D01*
X220011Y172991D01*
X220170Y173249D01*
X220418Y173424D01*
X220714Y173489D01*
X221012Y173434D01*
X221265Y173266D01*
X223043Y171488D01*
X223206Y171247D01*
X223266Y170949D01*
X223266Y110305D01*
X242893Y90678D01*
X245364Y90678D01*
X245639Y90627D01*
X245894Y90463D01*
X246066Y90213D01*
X246126Y89916D01*
X246126Y88922D01*
X249951Y85097D01*
X250109Y84867D01*
X250174Y84571D01*
X250118Y84273D01*
X249951Y84020D01*
X238778Y72847D01*
X238537Y72684D01*
X238239Y72624D01*
X233025Y72624D01*
X232195Y71794D01*
X231964Y71636D01*
X231668Y71571D01*
X231370Y71627D01*
X231117Y71794D01*
X230287Y72624D01*
X223025Y72624D01*
X222195Y71794D01*
X221964Y71636D01*
X221668Y71571D01*
X221370Y71627D01*
X221117Y71794D01*
X220287Y72624D01*
X213025Y72624D01*
X212913Y72513D01*
X212683Y72355D01*
X212387Y72289D01*
X212088Y72345D01*
X211836Y72513D01*
X210708Y73640D01*
X207418Y73640D01*
X207418Y61838D01*
X205894Y61838D01*
X205894Y73640D01*
X202604Y73640D01*
X201476Y72513D01*
X201246Y72355D01*
X200950Y72289D01*
X200652Y72345D01*
X200399Y72513D01*
X200287Y72624D01*
X193025Y72624D01*
X192913Y72513D01*
X192683Y72355D01*
X192387Y72289D01*
X192088Y72345D01*
X191836Y72513D01*
X190708Y73640D01*
X187418Y73640D01*
X187418Y51560D01*
X190708Y51560D01*
X191836Y52688D01*
X192066Y52846D01*
X192362Y52911D01*
X192660Y52855D01*
X192913Y52688D01*
X193025Y52576D01*
X198383Y52576D01*
X198669Y52520D01*
X198922Y52353D01*
X203269Y48006D01*
X250883Y48006D01*
X282702Y79825D01*
X282702Y82804D01*
X282753Y83079D01*
X282917Y83334D01*
X283167Y83506D01*
X283464Y83566D01*
X284457Y83566D01*
X288259Y87368D01*
X288479Y87521D01*
X288774Y87591D01*
X289073Y87540D01*
X289328Y87376D01*
X289500Y87126D01*
X289560Y86829D01*
X289560Y53191D01*
X289513Y52928D01*
X289354Y52670D01*
X289106Y52494D01*
X288810Y52429D01*
X288512Y52485D01*
X288259Y52652D01*
X287287Y53624D01*
X261025Y53624D01*
X260132Y52731D01*
X260132Y23469D01*
X261025Y22576D01*
X287287Y22576D01*
X288259Y23548D01*
X288479Y23701D01*
X288774Y23771D01*
X289073Y23720D01*
X289328Y23556D01*
X289500Y23306D01*
X289560Y23009D01*
X289560Y10922D01*
X289509Y10647D01*
X289345Y10392D01*
X289095Y10220D01*
G37*
%LPC*%
G36*
X59157Y696876D02*
X62763Y696876D01*
X66094Y698256D01*
X68644Y700806D01*
X70024Y704137D01*
X70024Y707743D01*
X68644Y711074D01*
X66094Y713624D01*
X62763Y715004D01*
X59157Y715004D01*
X55826Y713624D01*
X53276Y711074D01*
X51896Y707743D01*
X51896Y704137D01*
X53276Y700806D01*
X55826Y698256D01*
X59157Y696876D01*
G37*
G36*
X236957Y696876D02*
X240563Y696876D01*
X243894Y698256D01*
X246444Y700806D01*
X247824Y704137D01*
X247824Y707743D01*
X246444Y711074D01*
X243894Y713624D01*
X240563Y715004D01*
X236957Y715004D01*
X233626Y713624D01*
X231076Y711074D01*
X229696Y707743D01*
X229696Y704137D01*
X231076Y700806D01*
X233626Y698256D01*
X236957Y696876D01*
G37*
G36*
X239522Y681302D02*
X248840Y681302D01*
X248840Y682545D01*
X247305Y686250D01*
X244470Y689085D01*
X240765Y690620D01*
X239522Y690620D01*
X239522Y681302D01*
G37*
G36*
X61722Y681302D02*
X71040Y681302D01*
X71040Y682545D01*
X69505Y686250D01*
X66670Y689085D01*
X62965Y690620D01*
X61722Y690620D01*
X61722Y681302D01*
G37*
G36*
X50880Y681302D02*
X60198Y681302D01*
X60198Y690620D01*
X58955Y690620D01*
X55250Y689085D01*
X52415Y686250D01*
X50880Y682545D01*
X50880Y681302D01*
G37*
G36*
X228680Y681302D02*
X237998Y681302D01*
X237998Y690620D01*
X236755Y690620D01*
X233050Y689085D01*
X230215Y686250D01*
X228680Y682545D01*
X228680Y681302D01*
G37*
G36*
X61722Y670460D02*
X62965Y670460D01*
X66670Y671995D01*
X69505Y674830D01*
X71040Y678535D01*
X71040Y679778D01*
X61722Y679778D01*
X61722Y670460D01*
G37*
G36*
X239522Y670460D02*
X240765Y670460D01*
X244470Y671995D01*
X247305Y674830D01*
X248840Y678535D01*
X248840Y679778D01*
X239522Y679778D01*
X239522Y670460D01*
G37*
G36*
X236755Y670460D02*
X237998Y670460D01*
X237998Y679778D01*
X228680Y679778D01*
X228680Y678535D01*
X230215Y674830D01*
X233050Y671995D01*
X236755Y670460D01*
G37*
G36*
X58955Y670460D02*
X60198Y670460D01*
X60198Y679778D01*
X50880Y679778D01*
X50880Y678535D01*
X52415Y674830D01*
X55250Y671995D01*
X58955Y670460D01*
G37*
G36*
X154345Y662964D02*
X160992Y662964D01*
X160992Y668736D01*
X155832Y668736D01*
X154345Y667248D01*
X154345Y662964D01*
G37*
G36*
X162516Y662964D02*
X169164Y662964D01*
X169164Y667248D01*
X167676Y668736D01*
X162516Y668736D01*
X162516Y662964D01*
G37*
G36*
X85729Y656685D02*
X96730Y656685D01*
X97623Y657577D01*
X97623Y666827D01*
X96730Y667720D01*
X85729Y667720D01*
X85151Y667142D01*
X84921Y666984D01*
X84625Y666919D01*
X84327Y666975D01*
X84074Y667142D01*
X82970Y668246D01*
X78574Y668246D01*
X75466Y665138D01*
X75466Y660742D01*
X78574Y657634D01*
X82970Y657634D01*
X83535Y658199D01*
X83755Y658352D01*
X84050Y658422D01*
X84349Y658371D01*
X84604Y658208D01*
X84776Y657958D01*
X84836Y657661D01*
X84836Y657577D01*
X85729Y656685D01*
G37*
G36*
X97418Y51560D02*
X100708Y51560D01*
X101836Y52688D01*
X102066Y52846D01*
X102362Y52911D01*
X102660Y52855D01*
X102913Y52688D01*
X103025Y52576D01*
X110287Y52576D01*
X110399Y52688D01*
X110629Y52846D01*
X110925Y52911D01*
X111224Y52855D01*
X111476Y52688D01*
X112604Y51560D01*
X115894Y51560D01*
X115894Y73640D01*
X112604Y73640D01*
X111476Y72513D01*
X111246Y72355D01*
X110950Y72289D01*
X110652Y72345D01*
X110399Y72513D01*
X110287Y72624D01*
X108204Y72624D01*
X107929Y72675D01*
X107674Y72839D01*
X107502Y73089D01*
X107442Y73386D01*
X107442Y86291D01*
X106411Y87322D01*
X106253Y87552D01*
X106188Y87849D01*
X106244Y88147D01*
X106411Y88400D01*
X106934Y88922D01*
X106934Y96498D01*
X101578Y101854D01*
X94002Y101854D01*
X93479Y101331D01*
X93249Y101173D01*
X92953Y101108D01*
X92655Y101164D01*
X92402Y101331D01*
X89377Y104356D01*
X89214Y104597D01*
X89154Y104895D01*
X89154Y111975D01*
X89201Y112238D01*
X89360Y112496D01*
X89608Y112672D01*
X89904Y112737D01*
X90202Y112681D01*
X90455Y112514D01*
X94002Y108966D01*
X101578Y108966D01*
X106934Y114322D01*
X106934Y121898D01*
X106665Y122167D01*
X106507Y122397D01*
X106442Y122693D01*
X106498Y122991D01*
X106665Y123244D01*
X136398Y152977D01*
X136398Y162179D01*
X136449Y162454D01*
X136613Y162709D01*
X136863Y162881D01*
X137160Y162941D01*
X138408Y162941D01*
X141193Y165727D01*
X141413Y165880D01*
X141708Y165949D01*
X142007Y165899D01*
X142262Y165735D01*
X142434Y165485D01*
X142494Y165188D01*
X142494Y115563D01*
X142438Y115277D01*
X142271Y115024D01*
X128578Y101331D01*
X128348Y101173D01*
X128051Y101108D01*
X127753Y101164D01*
X127501Y101331D01*
X126978Y101854D01*
X119402Y101854D01*
X114046Y96498D01*
X114046Y88922D01*
X119402Y83566D01*
X123444Y83566D01*
X123719Y83515D01*
X123974Y83351D01*
X124146Y83101D01*
X124206Y82804D01*
X124206Y73386D01*
X124155Y73111D01*
X123991Y72856D01*
X123741Y72684D01*
X123444Y72624D01*
X123025Y72624D01*
X122913Y72513D01*
X122683Y72355D01*
X122387Y72289D01*
X122088Y72345D01*
X121836Y72513D01*
X120708Y73640D01*
X117418Y73640D01*
X117418Y51560D01*
X120708Y51560D01*
X121836Y52688D01*
X122066Y52846D01*
X122362Y52911D01*
X122660Y52855D01*
X122913Y52688D01*
X123025Y52576D01*
X130287Y52576D01*
X131117Y53406D01*
X131348Y53564D01*
X131644Y53629D01*
X131942Y53573D01*
X132195Y53406D01*
X133025Y52576D01*
X140287Y52576D01*
X141117Y53406D01*
X141348Y53564D01*
X141644Y53629D01*
X141942Y53573D01*
X142195Y53406D01*
X143025Y52576D01*
X150287Y52576D01*
X150399Y52688D01*
X150629Y52846D01*
X150925Y52911D01*
X151224Y52855D01*
X151476Y52688D01*
X152604Y51560D01*
X155894Y51560D01*
X155894Y63362D01*
X157418Y63362D01*
X157418Y51560D01*
X160708Y51560D01*
X161836Y52688D01*
X162066Y52846D01*
X162362Y52911D01*
X162660Y52855D01*
X162913Y52688D01*
X163025Y52576D01*
X170287Y52576D01*
X170399Y52688D01*
X170629Y52846D01*
X170925Y52911D01*
X171224Y52855D01*
X171476Y52688D01*
X172604Y51560D01*
X175894Y51560D01*
X175894Y73640D01*
X172899Y73640D01*
X172636Y73687D01*
X172378Y73846D01*
X172203Y74094D01*
X172138Y74390D01*
X172193Y74688D01*
X172361Y74941D01*
X172946Y75526D01*
X172946Y79248D01*
X172997Y79523D01*
X173161Y79778D01*
X173411Y79950D01*
X173708Y80010D01*
X182303Y80010D01*
X191485Y89192D01*
X191705Y89345D01*
X192000Y89415D01*
X192299Y89364D01*
X192554Y89201D01*
X192655Y89053D01*
X198142Y83566D01*
X205718Y83566D01*
X211074Y88922D01*
X211074Y96498D01*
X205718Y101854D01*
X198142Y101854D01*
X197365Y101077D01*
X197135Y100919D01*
X196839Y100854D01*
X196541Y100910D01*
X196288Y101077D01*
X193009Y104356D01*
X192846Y104597D01*
X192786Y104895D01*
X192786Y111046D01*
X192833Y111309D01*
X192992Y111567D01*
X193240Y111743D01*
X193536Y111808D01*
X193834Y111752D01*
X194087Y111585D01*
X197722Y107950D01*
X201168Y107950D01*
X201168Y128270D01*
X199644Y128270D01*
X199369Y128321D01*
X199114Y128485D01*
X198942Y128735D01*
X198882Y129032D01*
X198882Y176207D01*
X188437Y186652D01*
X188274Y186893D01*
X188214Y187191D01*
X188214Y202739D01*
X188265Y203013D01*
X188429Y203269D01*
X188679Y203440D01*
X188976Y203501D01*
X190763Y203501D01*
X191656Y204393D01*
X191656Y213643D01*
X190953Y214345D01*
X190800Y214565D01*
X190731Y214860D01*
X190781Y215159D01*
X190945Y215414D01*
X191195Y215586D01*
X191492Y215646D01*
X202115Y215646D01*
X206050Y219581D01*
X206292Y219744D01*
X206589Y219805D01*
X214271Y219805D01*
X215164Y220697D01*
X215164Y226295D01*
X215211Y226559D01*
X215370Y226817D01*
X215618Y226992D01*
X215914Y227057D01*
X216212Y227002D01*
X216465Y226834D01*
X220033Y223266D01*
X225123Y223266D01*
X225398Y223215D01*
X225653Y223051D01*
X225825Y222801D01*
X225885Y222504D01*
X225885Y220697D01*
X226778Y219805D01*
X237780Y219805D01*
X238672Y220697D01*
X238672Y228628D01*
X238723Y228903D01*
X238887Y229158D01*
X239137Y229330D01*
X239434Y229390D01*
X241466Y229390D01*
X244574Y232498D01*
X244574Y236453D01*
X244630Y236739D01*
X244797Y236992D01*
X275082Y267277D01*
X275082Y555299D01*
X275138Y555585D01*
X275305Y555837D01*
X278102Y558634D01*
X278102Y563030D01*
X274994Y566138D01*
X270598Y566138D01*
X267490Y563030D01*
X267490Y558634D01*
X270287Y555837D01*
X270450Y555596D01*
X270510Y555299D01*
X270510Y269487D01*
X270454Y269201D01*
X270287Y268948D01*
X249125Y247786D01*
X248905Y247633D01*
X248610Y247563D01*
X248311Y247614D01*
X248056Y247777D01*
X247884Y248027D01*
X247824Y248325D01*
X247824Y250543D01*
X246444Y253874D01*
X243894Y256424D01*
X240563Y257804D01*
X236957Y257804D01*
X233626Y256424D01*
X231076Y253874D01*
X230496Y252474D01*
X230356Y252253D01*
X230111Y252074D01*
X229816Y252004D01*
X229517Y252055D01*
X229262Y252219D01*
X229090Y252469D01*
X229030Y252766D01*
X229030Y259373D01*
X225656Y267518D01*
X219423Y273752D01*
X211278Y277125D01*
X202462Y277125D01*
X201092Y276558D01*
X200837Y276501D01*
X200537Y276547D01*
X200279Y276706D01*
X200103Y276953D01*
X200038Y277250D01*
X200094Y277548D01*
X200261Y277800D01*
X233896Y311435D01*
X234137Y311598D01*
X234435Y311658D01*
X243263Y311658D01*
X264414Y332809D01*
X264414Y596831D01*
X241374Y619871D01*
X241218Y620096D01*
X241151Y620392D01*
X241204Y620691D01*
X241369Y620945D01*
X241621Y621114D01*
X243894Y622056D01*
X246444Y624606D01*
X247824Y627937D01*
X247824Y631543D01*
X246444Y634874D01*
X243894Y637424D01*
X240563Y638804D01*
X236957Y638804D01*
X236823Y638749D01*
X236544Y638691D01*
X236246Y638746D01*
X235993Y638914D01*
X230433Y644474D01*
X230048Y644474D01*
X229762Y644529D01*
X229509Y644697D01*
X215387Y658818D01*
X215224Y659060D01*
X215164Y659357D01*
X215164Y666827D01*
X214271Y667720D01*
X203270Y667720D01*
X202377Y666827D01*
X202377Y665988D01*
X202326Y665713D01*
X202162Y665458D01*
X201912Y665286D01*
X201615Y665226D01*
X192418Y665226D01*
X192143Y665277D01*
X191888Y665441D01*
X191716Y665691D01*
X191656Y665988D01*
X191656Y666827D01*
X190763Y667720D01*
X179761Y667720D01*
X178869Y666827D01*
X178869Y659429D01*
X178813Y659143D01*
X178646Y658890D01*
X177584Y657829D01*
X177343Y657666D01*
X177045Y657606D01*
X169926Y657606D01*
X169651Y657657D01*
X169395Y657821D01*
X169224Y658071D01*
X169164Y658368D01*
X169164Y661440D01*
X154335Y661440D01*
X154298Y661233D01*
X154138Y660975D01*
X153891Y660799D01*
X153595Y660734D01*
X153297Y660790D01*
X153044Y660957D01*
X150299Y663702D01*
X145401Y663702D01*
X145127Y663753D01*
X144871Y663917D01*
X144700Y664167D01*
X144639Y664464D01*
X144639Y666827D01*
X143747Y667720D01*
X132745Y667720D01*
X131852Y666827D01*
X131852Y665988D01*
X131801Y665713D01*
X131638Y665458D01*
X131388Y665286D01*
X131090Y665226D01*
X121893Y665226D01*
X121619Y665277D01*
X121363Y665441D01*
X121192Y665691D01*
X121131Y665988D01*
X121131Y666827D01*
X120238Y667720D01*
X109237Y667720D01*
X108344Y666827D01*
X108344Y659009D01*
X108289Y658723D01*
X108121Y658470D01*
X104394Y654743D01*
X104394Y650487D01*
X104338Y650201D01*
X104171Y649948D01*
X99940Y645717D01*
X99720Y645564D01*
X99425Y645494D01*
X99126Y645545D01*
X99020Y645613D01*
X99020Y645136D01*
X91992Y645136D01*
X91992Y639321D01*
X92011Y639318D01*
X92269Y639158D01*
X92445Y638911D01*
X92510Y638615D01*
X92454Y638317D01*
X92287Y638064D01*
X89154Y634931D01*
X89154Y609355D01*
X89103Y609080D01*
X88939Y608825D01*
X88689Y608653D01*
X88392Y608593D01*
X86491Y608593D01*
X85598Y607700D01*
X85598Y603613D01*
X85689Y603480D01*
X85755Y603184D01*
X85699Y602886D01*
X85598Y602733D01*
X85542Y602449D01*
X85375Y602196D01*
X80048Y596869D01*
X79807Y596706D01*
X79509Y596646D01*
X67924Y596646D01*
X67661Y596693D01*
X67403Y596852D01*
X67227Y597100D01*
X67162Y597396D01*
X67218Y597694D01*
X67385Y597947D01*
X68644Y599206D01*
X70024Y602537D01*
X70024Y606143D01*
X68644Y609474D01*
X66094Y612024D01*
X62763Y613404D01*
X59157Y613404D01*
X55826Y612024D01*
X53276Y609474D01*
X51896Y606143D01*
X51896Y602537D01*
X53276Y599206D01*
X55826Y596656D01*
X57740Y595863D01*
X57970Y595715D01*
X58145Y595467D01*
X58210Y595171D01*
X58155Y594873D01*
X57987Y594620D01*
X38862Y575495D01*
X38862Y248989D01*
X55441Y232410D01*
X56649Y232410D01*
X56935Y232354D01*
X57188Y232187D01*
X61105Y228271D01*
X61267Y228029D01*
X61328Y227732D01*
X61328Y220697D01*
X62220Y219805D01*
X73222Y219805D01*
X74115Y220697D01*
X74115Y227137D01*
X74162Y227400D01*
X74321Y227658D01*
X74568Y227834D01*
X74865Y227899D01*
X75163Y227843D01*
X75416Y227676D01*
X79825Y223266D01*
X84074Y223266D01*
X84349Y223215D01*
X84604Y223051D01*
X84776Y222801D01*
X84836Y222504D01*
X84836Y220697D01*
X85729Y219805D01*
X96730Y219805D01*
X97623Y220697D01*
X97623Y229947D01*
X96730Y230840D01*
X85729Y230840D01*
X84836Y229947D01*
X84836Y228600D01*
X84785Y228325D01*
X84621Y228070D01*
X84371Y227898D01*
X84074Y227838D01*
X82035Y227838D01*
X81749Y227894D01*
X81496Y228061D01*
X69527Y240030D01*
X66908Y240030D01*
X66645Y240077D01*
X66387Y240236D01*
X66211Y240484D01*
X66146Y240780D01*
X66202Y241078D01*
X66369Y241331D01*
X68644Y243606D01*
X70024Y246937D01*
X70024Y248359D01*
X70069Y248616D01*
X70226Y248875D01*
X70472Y249053D01*
X70768Y249120D01*
X71066Y249067D01*
X71321Y248902D01*
X71490Y248650D01*
X74074Y242413D01*
X80307Y236179D01*
X88452Y232805D01*
X97268Y232805D01*
X103340Y235321D01*
X103608Y235378D01*
X103907Y235327D01*
X104162Y235164D01*
X104334Y234914D01*
X104394Y234617D01*
X104394Y220033D01*
X108920Y215507D01*
X109029Y215440D01*
X109205Y215192D01*
X109270Y214896D01*
X109214Y214598D01*
X109047Y214345D01*
X108344Y213643D01*
X108344Y204393D01*
X109237Y203501D01*
X111252Y203501D01*
X111527Y203449D01*
X111782Y203286D01*
X111954Y203036D01*
X112014Y202739D01*
X112014Y150615D01*
X111958Y150329D01*
X111791Y150076D01*
X84582Y122867D01*
X84582Y102685D01*
X89169Y98098D01*
X89327Y97868D01*
X89392Y97572D01*
X89336Y97273D01*
X89169Y97021D01*
X88646Y96498D01*
X88646Y88922D01*
X94002Y83566D01*
X101581Y83566D01*
X101789Y83711D01*
X102084Y83780D01*
X102383Y83730D01*
X102638Y83566D01*
X102810Y83316D01*
X102870Y83019D01*
X102870Y73318D01*
X102823Y73054D01*
X102664Y72796D01*
X102416Y72621D01*
X102120Y72556D01*
X101822Y72611D01*
X101569Y72779D01*
X100708Y73640D01*
X97418Y73640D01*
X97418Y51560D01*
G37*
G36*
X59157Y646076D02*
X62763Y646076D01*
X66094Y647456D01*
X68644Y650006D01*
X70024Y653337D01*
X70024Y656943D01*
X68644Y660274D01*
X66094Y662824D01*
X62763Y664204D01*
X59157Y664204D01*
X55826Y662824D01*
X53276Y660274D01*
X51896Y656943D01*
X51896Y653337D01*
X53276Y650006D01*
X55826Y647456D01*
X59157Y646076D01*
G37*
G36*
X236957Y646076D02*
X240563Y646076D01*
X243894Y647456D01*
X246444Y650006D01*
X247824Y653337D01*
X247824Y656943D01*
X246444Y660274D01*
X243894Y662824D01*
X240563Y664204D01*
X236957Y664204D01*
X233626Y662824D01*
X231076Y660274D01*
X229696Y656943D01*
X229696Y653337D01*
X231076Y650006D01*
X233626Y647456D01*
X236957Y646076D01*
G37*
G36*
X91992Y646660D02*
X98639Y646660D01*
X98639Y650944D01*
X97151Y652432D01*
X91992Y652432D01*
X91992Y646660D01*
G37*
G36*
X83820Y646660D02*
X90468Y646660D01*
X90468Y652432D01*
X85308Y652432D01*
X83820Y650944D01*
X83820Y646660D01*
G37*
G36*
X85308Y639365D02*
X90468Y639365D01*
X90468Y645136D01*
X83820Y645136D01*
X83820Y640852D01*
X85308Y639365D01*
G37*
G36*
X59157Y620676D02*
X62763Y620676D01*
X66094Y622056D01*
X68644Y624606D01*
X70024Y627937D01*
X70024Y631543D01*
X68644Y634874D01*
X66094Y637424D01*
X62763Y638804D01*
X59157Y638804D01*
X55826Y637424D01*
X53276Y634874D01*
X51896Y631543D01*
X51896Y627937D01*
X53276Y624606D01*
X55826Y622056D01*
X59157Y620676D01*
G37*
G36*
X228680Y300302D02*
X237998Y300302D01*
X237998Y309620D01*
X236755Y309620D01*
X233050Y308085D01*
X230215Y305250D01*
X228680Y301545D01*
X228680Y300302D01*
G37*
G36*
X239522Y300302D02*
X248840Y300302D01*
X248840Y301545D01*
X247305Y305250D01*
X244470Y308085D01*
X240765Y309620D01*
X239522Y309620D01*
X239522Y300302D01*
G37*
G36*
X239522Y289460D02*
X240765Y289460D01*
X244470Y290995D01*
X247305Y293830D01*
X248840Y297535D01*
X248840Y298778D01*
X239522Y298778D01*
X239522Y289460D01*
G37*
G36*
X236755Y289460D02*
X237998Y289460D01*
X237998Y298778D01*
X228680Y298778D01*
X228680Y297535D01*
X230215Y293830D01*
X233050Y290995D01*
X236755Y289460D01*
G37*
G36*
X236957Y265076D02*
X240563Y265076D01*
X243894Y266456D01*
X246444Y269006D01*
X247824Y272337D01*
X247824Y275943D01*
X246444Y279274D01*
X243894Y281824D01*
X240563Y283204D01*
X236957Y283204D01*
X233626Y281824D01*
X231076Y279274D01*
X229696Y275943D01*
X229696Y272337D01*
X231076Y269006D01*
X233626Y266456D01*
X236957Y265076D01*
G37*
G36*
X69342Y187052D02*
X77470Y187052D01*
X77470Y188058D01*
X76117Y191326D01*
X73616Y193827D01*
X70348Y195180D01*
X69342Y195180D01*
X69342Y187052D01*
G37*
G36*
X66812Y177400D02*
X67818Y177400D01*
X67818Y185528D01*
X59690Y185528D01*
X59690Y184522D01*
X61043Y181254D01*
X63544Y178753D01*
X66812Y177400D01*
G37*
G36*
X69342Y177400D02*
X70348Y177400D01*
X73616Y178753D01*
X76117Y181254D01*
X77470Y184522D01*
X77470Y185528D01*
X69342Y185528D01*
X69342Y177400D01*
G37*
G36*
X67014Y153416D02*
X70146Y153416D01*
X73040Y154615D01*
X75255Y156830D01*
X76454Y159724D01*
X76454Y162856D01*
X75255Y165750D01*
X73040Y167965D01*
X70146Y169164D01*
X67014Y169164D01*
X64120Y167965D01*
X61905Y165750D01*
X60706Y162856D01*
X60706Y159724D01*
X61905Y156830D01*
X64120Y154615D01*
X67014Y153416D01*
G37*
G36*
X123952Y118872D02*
X133350Y118872D01*
X133350Y122318D01*
X127398Y128270D01*
X123952Y128270D01*
X123952Y118872D01*
G37*
G36*
X113030Y118872D02*
X122428Y118872D01*
X122428Y128270D01*
X118982Y128270D01*
X113030Y122318D01*
X113030Y118872D01*
G37*
G36*
X34290Y118872D02*
X43688Y118872D01*
X43688Y128270D01*
X40242Y128270D01*
X34290Y122318D01*
X34290Y118872D01*
G37*
G36*
X45212Y118872D02*
X54610Y118872D01*
X54610Y122318D01*
X48658Y128270D01*
X45212Y128270D01*
X45212Y118872D01*
G37*
G36*
X123952Y107950D02*
X127398Y107950D01*
X133350Y113902D01*
X133350Y117348D01*
X123952Y117348D01*
X123952Y107950D01*
G37*
G36*
X118982Y107950D02*
X122428Y107950D01*
X122428Y117348D01*
X113030Y117348D01*
X113030Y113902D01*
X118982Y107950D01*
G37*
G36*
X45212Y107950D02*
X48658Y107950D01*
X54610Y113902D01*
X54610Y117348D01*
X45212Y117348D01*
X45212Y107950D01*
G37*
G36*
X40242Y107950D02*
X43688Y107950D01*
X43688Y117348D01*
X34290Y117348D01*
X34290Y113902D01*
X40242Y107950D01*
G37*
G36*
X177418Y51560D02*
X180708Y51560D01*
X181117Y51969D01*
X181348Y52127D01*
X181644Y52192D01*
X181942Y52137D01*
X182195Y51969D01*
X182604Y51560D01*
X185894Y51560D01*
X185894Y73640D01*
X182604Y73640D01*
X182195Y73231D01*
X181964Y73073D01*
X181668Y73008D01*
X181370Y73063D01*
X181117Y73231D01*
X180708Y73640D01*
X177418Y73640D01*
X177418Y51560D01*
G37*
G36*
X16025Y22576D02*
X42287Y22576D01*
X43180Y23469D01*
X43180Y52731D01*
X42287Y53624D01*
X16025Y53624D01*
X15132Y52731D01*
X15132Y23469D01*
X16025Y22576D01*
G37*
%LPD*%
G36*
X256340Y533966D02*
X256044Y533901D01*
X255746Y533956D01*
X255493Y534124D01*
X246311Y543306D01*
X244224Y543306D01*
X243966Y543351D01*
X243707Y543508D01*
X243530Y543754D01*
X243462Y544050D01*
X243516Y544348D01*
X243681Y544603D01*
X243933Y544772D01*
X244470Y544995D01*
X247305Y547830D01*
X248840Y551535D01*
X248840Y552778D01*
X228299Y552778D01*
X228299Y552987D01*
X228226Y552936D01*
X227930Y552871D01*
X227632Y552926D01*
X227379Y553094D01*
X203677Y576796D01*
X203514Y577037D01*
X203454Y577335D01*
X203454Y583788D01*
X203505Y584062D01*
X203669Y584318D01*
X203919Y584489D01*
X204216Y584550D01*
X207888Y584550D01*
X207888Y598839D01*
X204216Y598839D01*
X203941Y598890D01*
X203686Y599053D01*
X203514Y599303D01*
X203454Y599601D01*
X203454Y600296D01*
X203505Y600570D01*
X203669Y600826D01*
X203919Y600997D01*
X204216Y601058D01*
X214132Y601058D01*
X215025Y601950D01*
X215025Y603164D01*
X215071Y603427D01*
X215231Y603685D01*
X215478Y603861D01*
X215774Y603926D01*
X216072Y603870D01*
X216325Y603703D01*
X217258Y602770D01*
X221654Y602770D01*
X224762Y605878D01*
X224762Y606841D01*
X224809Y607105D01*
X224968Y607363D01*
X225216Y607538D01*
X225512Y607603D01*
X225810Y607548D01*
X226063Y607380D01*
X226091Y607352D01*
X226254Y607111D01*
X226314Y606813D01*
X226314Y573601D01*
X235623Y564292D01*
X235779Y564067D01*
X235846Y563771D01*
X235793Y563473D01*
X235628Y563218D01*
X235376Y563049D01*
X233050Y562085D01*
X230215Y559250D01*
X228680Y555545D01*
X228680Y554302D01*
X249030Y554302D01*
X249046Y554329D01*
X249294Y554504D01*
X249590Y554569D01*
X249888Y554514D01*
X250141Y554346D01*
X256571Y547916D01*
X256734Y547675D01*
X256794Y547377D01*
X256794Y534663D01*
X256747Y534399D01*
X256588Y534141D01*
X256340Y533966D01*
G37*
%LPC*%
G36*
X209412Y592456D02*
X216041Y592456D01*
X216041Y597351D01*
X214553Y598839D01*
X209412Y598839D01*
X209412Y592456D01*
G37*
G36*
X209412Y584550D02*
X214553Y584550D01*
X216041Y586037D01*
X216041Y590932D01*
X209412Y590932D01*
X209412Y584550D01*
G37*
%LPD*%
G36*
X250244Y383090D02*
X249948Y383025D01*
X249650Y383080D01*
X249397Y383248D01*
X241374Y391271D01*
X241218Y391496D01*
X241151Y391792D01*
X241204Y392091D01*
X241369Y392345D01*
X241621Y392514D01*
X243894Y393456D01*
X246444Y396006D01*
X247824Y399337D01*
X247824Y402943D01*
X246444Y406274D01*
X243894Y408824D01*
X240563Y410204D01*
X236957Y410204D01*
X233626Y408824D01*
X231076Y406274D01*
X229696Y402943D01*
X229696Y399337D01*
X231076Y396006D01*
X233351Y393731D01*
X233504Y393511D01*
X233574Y393216D01*
X233523Y392917D01*
X233359Y392662D01*
X233109Y392490D01*
X232812Y392430D01*
X229863Y392430D01*
X229577Y392486D01*
X229324Y392653D01*
X218879Y403098D01*
X158235Y403098D01*
X157949Y403154D01*
X157696Y403321D01*
X135932Y425085D01*
X135779Y425304D01*
X135709Y425599D01*
X135760Y425898D01*
X135924Y426154D01*
X136174Y426325D01*
X136471Y426386D01*
X143747Y426386D01*
X144639Y427278D01*
X144639Y436528D01*
X144149Y437018D01*
X143991Y437249D01*
X143926Y437545D01*
X143981Y437843D01*
X144149Y438096D01*
X148590Y442537D01*
X148590Y453575D01*
X144203Y457962D01*
X133549Y457962D01*
X133263Y458018D01*
X133011Y458185D01*
X130214Y460982D01*
X125818Y460982D01*
X122710Y457874D01*
X122710Y453478D01*
X124545Y451643D01*
X124698Y451423D01*
X124768Y451128D01*
X124717Y450829D01*
X124554Y450574D01*
X124304Y450402D01*
X124007Y450342D01*
X121893Y450342D01*
X121619Y450393D01*
X121363Y450557D01*
X121192Y450807D01*
X121131Y451104D01*
X121131Y452832D01*
X120238Y453725D01*
X109237Y453725D01*
X108344Y452832D01*
X108344Y445649D01*
X108289Y445363D01*
X108121Y445110D01*
X104394Y441383D01*
X104394Y435603D01*
X104338Y435317D01*
X104171Y435064D01*
X98924Y429817D01*
X98704Y429664D01*
X98409Y429594D01*
X98110Y429645D01*
X97855Y429808D01*
X97683Y430058D01*
X97623Y430356D01*
X97623Y436528D01*
X97019Y437132D01*
X96861Y437363D01*
X96796Y437659D01*
X96851Y437957D01*
X97019Y438210D01*
X101346Y442537D01*
X101346Y464243D01*
X68811Y496778D01*
X68650Y497014D01*
X68587Y497311D01*
X68645Y497609D01*
X70024Y500937D01*
X70024Y504543D01*
X68644Y507874D01*
X66094Y510424D01*
X63566Y511471D01*
X63336Y511620D01*
X63161Y511867D01*
X63096Y512163D01*
X63152Y512461D01*
X63319Y512714D01*
X81496Y530891D01*
X81737Y531054D01*
X82035Y531114D01*
X103893Y531114D01*
X104179Y531058D01*
X104432Y530891D01*
X106242Y529081D01*
X106405Y528839D01*
X106466Y528542D01*
X106466Y521549D01*
X107358Y520657D01*
X116608Y520657D01*
X117501Y521549D01*
X117501Y532551D01*
X116608Y533444D01*
X108661Y533444D01*
X108375Y533499D01*
X108122Y533667D01*
X107665Y534124D01*
X107502Y534365D01*
X107442Y534663D01*
X107442Y536405D01*
X107493Y536679D01*
X107657Y536935D01*
X107907Y537106D01*
X108204Y537167D01*
X116568Y537167D01*
X117461Y538059D01*
X117461Y549061D01*
X116572Y549950D01*
X116414Y550181D01*
X116349Y550477D01*
X116404Y550775D01*
X116572Y551028D01*
X118082Y552538D01*
X118082Y556934D01*
X114974Y560042D01*
X114011Y560042D01*
X113747Y560089D01*
X113489Y560248D01*
X113314Y560496D01*
X113249Y560792D01*
X113304Y561090D01*
X113472Y561343D01*
X113538Y561409D01*
X113538Y578694D01*
X113589Y578969D01*
X113753Y579224D01*
X114003Y579396D01*
X114300Y579456D01*
X115441Y579456D01*
X116334Y580349D01*
X116334Y586124D01*
X116381Y586387D01*
X116540Y586645D01*
X116787Y586820D01*
X117084Y586885D01*
X117382Y586830D01*
X117531Y586731D01*
X121666Y586731D01*
X121666Y591430D01*
X123190Y591430D01*
X123190Y586731D01*
X126492Y586731D01*
X126767Y586680D01*
X127022Y586516D01*
X127194Y586266D01*
X127254Y585969D01*
X127254Y559047D01*
X127198Y558761D01*
X127031Y558508D01*
X119634Y551111D01*
X119634Y532453D01*
X122546Y529541D01*
X122709Y529299D01*
X122770Y529002D01*
X122770Y521549D01*
X123662Y520657D01*
X132912Y520657D01*
X133805Y521549D01*
X133805Y532551D01*
X132912Y533444D01*
X125425Y533444D01*
X125139Y533499D01*
X124886Y533667D01*
X124429Y534124D01*
X124266Y534365D01*
X124206Y534663D01*
X124206Y536405D01*
X124257Y536679D01*
X124421Y536935D01*
X124671Y537106D01*
X124968Y537167D01*
X132872Y537167D01*
X133765Y538059D01*
X133765Y544744D01*
X133821Y545030D01*
X133988Y545283D01*
X134874Y546169D01*
X134874Y582518D01*
X134925Y582792D01*
X135089Y583048D01*
X135339Y583219D01*
X135636Y583280D01*
X140637Y583280D01*
X140637Y597569D01*
X135496Y597569D01*
X134593Y596666D01*
X134362Y596508D01*
X134066Y596443D01*
X133768Y596498D01*
X133515Y596666D01*
X127985Y602196D01*
X127822Y602437D01*
X127762Y602735D01*
X127762Y602868D01*
X127813Y603143D01*
X127977Y603398D01*
X128227Y603570D01*
X128524Y603630D01*
X134262Y603630D01*
X134536Y603579D01*
X134792Y603415D01*
X134963Y603165D01*
X135024Y602868D01*
X135024Y600680D01*
X135916Y599788D01*
X146881Y599788D01*
X147774Y600680D01*
X147774Y603504D01*
X147825Y603779D01*
X147988Y604034D01*
X148239Y604206D01*
X148536Y604266D01*
X153416Y604266D01*
X153691Y604215D01*
X153946Y604051D01*
X154118Y603801D01*
X154178Y603504D01*
X154178Y599247D01*
X154270Y599113D01*
X154335Y598817D01*
X154279Y598519D01*
X154178Y598366D01*
X154178Y594245D01*
X154269Y594112D01*
X154335Y593816D01*
X154279Y593518D01*
X154178Y593365D01*
X154178Y589275D01*
X154838Y588615D01*
X154996Y588385D01*
X155061Y588088D01*
X155005Y587790D01*
X154838Y587537D01*
X153190Y585890D01*
X153190Y581494D01*
X155987Y578697D01*
X156150Y578456D01*
X156210Y578159D01*
X156210Y512641D01*
X163645Y505206D01*
X196857Y505206D01*
X197121Y505159D01*
X197379Y505000D01*
X197554Y504752D01*
X197619Y504456D01*
X197564Y504158D01*
X197396Y503905D01*
X160782Y467291D01*
X160782Y454487D01*
X160731Y454212D01*
X160567Y453956D01*
X160317Y453785D01*
X160020Y453725D01*
X156253Y453725D01*
X155361Y452832D01*
X155361Y443582D01*
X156253Y442690D01*
X167255Y442690D01*
X168148Y443582D01*
X168148Y452832D01*
X167255Y453725D01*
X166116Y453725D01*
X165841Y453776D01*
X165586Y453939D01*
X165414Y454189D01*
X165354Y454487D01*
X165354Y457763D01*
X165401Y458026D01*
X165560Y458284D01*
X165808Y458459D01*
X166104Y458524D01*
X166402Y458469D01*
X166655Y458301D01*
X166966Y457990D01*
X170716Y457990D01*
X170991Y457939D01*
X171246Y457775D01*
X171418Y457525D01*
X171478Y457228D01*
X171478Y455002D01*
X174275Y452205D01*
X174438Y451964D01*
X174498Y451667D01*
X174498Y442537D01*
X179149Y437886D01*
X179307Y437655D01*
X179372Y437359D01*
X179317Y437061D01*
X179149Y436808D01*
X178869Y436528D01*
X178869Y427278D01*
X179761Y426386D01*
X190763Y426386D01*
X191656Y427278D01*
X191656Y432684D01*
X191703Y432947D01*
X191862Y433205D01*
X192109Y433381D01*
X192406Y433446D01*
X192704Y433390D01*
X192957Y433223D01*
X198659Y427520D01*
X198822Y427279D01*
X198882Y426981D01*
X198882Y425773D01*
X201745Y422910D01*
X215831Y422910D01*
X218694Y425773D01*
X218694Y441383D01*
X215387Y444690D01*
X215224Y444931D01*
X215164Y445229D01*
X215164Y452832D01*
X214271Y453725D01*
X211836Y453725D01*
X211561Y453776D01*
X211306Y453939D01*
X211134Y454189D01*
X211074Y454487D01*
X211074Y460509D01*
X211130Y460795D01*
X211297Y461048D01*
X215897Y465648D01*
X216117Y465801D01*
X216412Y465871D01*
X216711Y465820D01*
X216966Y465657D01*
X217138Y465407D01*
X217198Y465109D01*
X217198Y461098D01*
X219995Y458301D01*
X220158Y458060D01*
X220218Y457763D01*
X220218Y453205D01*
X235983Y437441D01*
X236138Y437216D01*
X236206Y436920D01*
X236152Y436621D01*
X235987Y436367D01*
X235735Y436198D01*
X233050Y435085D01*
X230215Y432250D01*
X228680Y428545D01*
X228680Y427302D01*
X239522Y427302D01*
X239522Y416460D01*
X240765Y416460D01*
X244470Y417995D01*
X247305Y420830D01*
X248840Y424535D01*
X248840Y425791D01*
X248887Y426055D01*
X249046Y426313D01*
X249294Y426488D01*
X249590Y426553D01*
X249888Y426498D01*
X250141Y426330D01*
X250475Y425996D01*
X250638Y425755D01*
X250698Y425457D01*
X250698Y383787D01*
X250651Y383523D01*
X250492Y383265D01*
X250244Y383090D01*
G37*
%LPC*%
G36*
X142161Y591186D02*
X148790Y591186D01*
X148790Y596081D01*
X147302Y597569D01*
X142161Y597569D01*
X142161Y591186D01*
G37*
G36*
X142161Y583280D02*
X147302Y583280D01*
X148790Y584767D01*
X148790Y589662D01*
X142161Y589662D01*
X142161Y583280D01*
G37*
G36*
X162516Y432665D02*
X169164Y432665D01*
X169164Y436949D01*
X167676Y438437D01*
X162516Y438437D01*
X162516Y432665D01*
G37*
G36*
X154345Y432665D02*
X160992Y432665D01*
X160992Y438437D01*
X155832Y438437D01*
X154345Y436949D01*
X154345Y432665D01*
G37*
G36*
X162516Y425370D02*
X167676Y425370D01*
X169164Y426857D01*
X169164Y431141D01*
X162516Y431141D01*
X162516Y425370D01*
G37*
G36*
X155832Y425370D02*
X160992Y425370D01*
X160992Y431141D01*
X154345Y431141D01*
X154345Y426857D01*
X155832Y425370D01*
G37*
G36*
X236755Y416460D02*
X237998Y416460D01*
X237998Y425778D01*
X228680Y425778D01*
X228680Y424535D01*
X230215Y420830D01*
X233050Y417995D01*
X236755Y416460D01*
G37*
%LPD*%
G36*
X161863Y537019D02*
X161568Y536949D01*
X161269Y537000D01*
X161014Y537163D01*
X160842Y537413D01*
X160782Y537711D01*
X160782Y578159D01*
X160838Y578445D01*
X161005Y578697D01*
X163802Y581494D01*
X163802Y585890D01*
X162611Y587081D01*
X162458Y587301D01*
X162388Y587596D01*
X162439Y587895D01*
X162602Y588150D01*
X162852Y588322D01*
X163149Y588382D01*
X163953Y588382D01*
X164479Y588908D01*
X164699Y589061D01*
X164994Y589131D01*
X165293Y589080D01*
X165548Y588916D01*
X165720Y588666D01*
X165780Y588369D01*
X165780Y581619D01*
X166717Y580682D01*
X166875Y580452D01*
X166940Y580155D01*
X166884Y579857D01*
X166717Y579604D01*
X165382Y578270D01*
X165382Y573874D01*
X168490Y570766D01*
X172886Y570766D01*
X175994Y573874D01*
X175994Y578270D01*
X173951Y580313D01*
X173793Y580543D01*
X173728Y580840D01*
X173783Y581138D01*
X173951Y581391D01*
X174179Y581619D01*
X174179Y589321D01*
X173286Y590214D01*
X172212Y590214D01*
X171937Y590265D01*
X171682Y590429D01*
X171510Y590679D01*
X171450Y590976D01*
X171450Y592259D01*
X171384Y592325D01*
X171231Y592545D01*
X171161Y592840D01*
X171212Y593139D01*
X171375Y593394D01*
X171625Y593566D01*
X171923Y593626D01*
X172886Y593626D01*
X174159Y594899D01*
X174400Y595062D01*
X174697Y595122D01*
X184188Y595122D01*
X184452Y595075D01*
X184710Y594916D01*
X184885Y594668D01*
X184950Y594372D01*
X184895Y594074D01*
X184727Y593821D01*
X184658Y593752D01*
X184658Y592065D01*
X191770Y592065D01*
X191770Y587366D01*
X195072Y587366D01*
X195347Y587315D01*
X195602Y587151D01*
X195774Y586901D01*
X195834Y586604D01*
X195834Y559047D01*
X195778Y558761D01*
X195611Y558508D01*
X187280Y550177D01*
X187038Y550014D01*
X186741Y549954D01*
X182880Y549954D01*
X182605Y550005D01*
X182350Y550168D01*
X182178Y550418D01*
X182118Y550716D01*
X182118Y579964D01*
X182169Y580239D01*
X182333Y580494D01*
X182583Y580666D01*
X182880Y580726D01*
X183436Y580726D01*
X184329Y581619D01*
X184329Y587343D01*
X184376Y587607D01*
X184535Y587865D01*
X184783Y588040D01*
X185079Y588105D01*
X185377Y588050D01*
X185630Y587882D01*
X186146Y587366D01*
X190246Y587366D01*
X190246Y590541D01*
X184594Y590541D01*
X184452Y590311D01*
X184204Y590135D01*
X183908Y590070D01*
X183610Y590126D01*
X183477Y590214D01*
X176823Y590214D01*
X175930Y589321D01*
X175930Y581619D01*
X176832Y580717D01*
X177059Y580675D01*
X177314Y580511D01*
X177486Y580261D01*
X177546Y579964D01*
X177546Y552951D01*
X177490Y552665D01*
X177323Y552412D01*
X174235Y549324D01*
X174004Y549166D01*
X173708Y549101D01*
X173410Y549156D01*
X173157Y549324D01*
X172528Y549954D01*
X163278Y549954D01*
X162385Y549061D01*
X162385Y537790D01*
X162330Y537504D01*
X162162Y537251D01*
X162083Y537172D01*
X161863Y537019D01*
G37*
G36*
X47563Y508063D02*
X47268Y507993D01*
X46969Y508044D01*
X46714Y508207D01*
X46542Y508457D01*
X46482Y508755D01*
X46482Y550425D01*
X46538Y550711D01*
X46705Y550964D01*
X49579Y553838D01*
X49799Y553991D01*
X50094Y554061D01*
X50393Y554010D01*
X50499Y553942D01*
X50499Y554302D01*
X60198Y554302D01*
X60198Y564001D01*
X60555Y564001D01*
X60504Y564074D01*
X60439Y564370D01*
X60494Y564668D01*
X60662Y564921D01*
X61684Y565943D01*
X61925Y566106D01*
X62223Y566166D01*
X66479Y566166D01*
X86329Y586016D01*
X86549Y586169D01*
X86844Y586239D01*
X87143Y586188D01*
X87398Y586025D01*
X87570Y585775D01*
X87630Y585477D01*
X87630Y559047D01*
X87574Y558761D01*
X87407Y558508D01*
X65485Y536586D01*
X65249Y536425D01*
X64952Y536363D01*
X64654Y536421D01*
X62763Y537204D01*
X59157Y537204D01*
X55826Y535824D01*
X53276Y533274D01*
X51896Y529943D01*
X51896Y526337D01*
X53276Y523006D01*
X55826Y520456D01*
X59157Y519076D01*
X61375Y519076D01*
X61639Y519029D01*
X61897Y518870D01*
X62072Y518622D01*
X62137Y518326D01*
X62082Y518028D01*
X61914Y517775D01*
X60236Y516097D01*
X59995Y515934D01*
X59697Y515874D01*
X55441Y515874D01*
X47783Y508216D01*
X47563Y508063D01*
G37*
%LPC*%
G36*
X61722Y554302D02*
X71040Y554302D01*
X71040Y555545D01*
X69505Y559250D01*
X66670Y562085D01*
X62965Y563620D01*
X61722Y563620D01*
X61722Y554302D01*
G37*
G36*
X58955Y543460D02*
X60198Y543460D01*
X60198Y552778D01*
X50880Y552778D01*
X50880Y551535D01*
X52415Y547830D01*
X55250Y544995D01*
X58955Y543460D01*
G37*
G36*
X61722Y543460D02*
X62965Y543460D01*
X66670Y544995D01*
X69505Y547830D01*
X71040Y551535D01*
X71040Y552778D01*
X61722Y552778D01*
X61722Y543460D01*
G37*
%LPD*%
G36*
X97320Y368106D02*
X97023Y368046D01*
X67924Y368046D01*
X67661Y368093D01*
X67403Y368252D01*
X67227Y368500D01*
X67162Y368796D01*
X67218Y369094D01*
X67385Y369347D01*
X68644Y370606D01*
X70024Y373937D01*
X70024Y377543D01*
X68644Y380874D01*
X66094Y383424D01*
X62763Y384804D01*
X59157Y384804D01*
X57266Y384021D01*
X56986Y383963D01*
X56688Y384018D01*
X56435Y384186D01*
X52801Y387820D01*
X52638Y388061D01*
X52578Y388359D01*
X52578Y394864D01*
X52625Y395127D01*
X52784Y395385D01*
X53032Y395561D01*
X53328Y395626D01*
X53626Y395570D01*
X53879Y395403D01*
X55826Y393456D01*
X59157Y392076D01*
X62763Y392076D01*
X66094Y393456D01*
X68644Y396006D01*
X70024Y399337D01*
X70024Y402943D01*
X68644Y406274D01*
X66094Y408824D01*
X62763Y410204D01*
X59157Y410204D01*
X55826Y408824D01*
X53879Y406877D01*
X53659Y406724D01*
X53364Y406654D01*
X53065Y406705D01*
X52810Y406869D01*
X52638Y407119D01*
X52578Y407416D01*
X52578Y418827D01*
X52625Y419090D01*
X52784Y419348D01*
X53032Y419524D01*
X53328Y419589D01*
X53626Y419533D01*
X53879Y419366D01*
X55250Y417995D01*
X58955Y416460D01*
X60198Y416460D01*
X60198Y436620D01*
X58955Y436620D01*
X55250Y435085D01*
X53879Y433714D01*
X53659Y433561D01*
X53364Y433491D01*
X53065Y433542D01*
X52810Y433706D01*
X52638Y433956D01*
X52578Y434253D01*
X52578Y445664D01*
X52625Y445927D01*
X52784Y446185D01*
X53032Y446361D01*
X53328Y446426D01*
X53626Y446370D01*
X53879Y446203D01*
X55826Y444256D01*
X59157Y442876D01*
X62763Y442876D01*
X66094Y444256D01*
X68644Y446806D01*
X70024Y450137D01*
X70024Y453743D01*
X68644Y457074D01*
X66094Y459624D01*
X62763Y461004D01*
X59157Y461004D01*
X55826Y459624D01*
X53879Y457677D01*
X53659Y457524D01*
X53364Y457454D01*
X53065Y457505D01*
X52810Y457669D01*
X52638Y457919D01*
X52578Y458216D01*
X52578Y471064D01*
X52625Y471327D01*
X52784Y471585D01*
X53032Y471761D01*
X53328Y471826D01*
X53626Y471770D01*
X53879Y471603D01*
X55826Y469656D01*
X59157Y468276D01*
X62763Y468276D01*
X66094Y469656D01*
X68644Y472206D01*
X70024Y475537D01*
X70024Y479143D01*
X68644Y482474D01*
X66094Y485024D01*
X62763Y486404D01*
X59157Y486404D01*
X55826Y485024D01*
X53879Y483077D01*
X53659Y482924D01*
X53364Y482854D01*
X53065Y482905D01*
X52810Y483069D01*
X52638Y483319D01*
X52578Y483616D01*
X52578Y496464D01*
X52625Y496727D01*
X52784Y496985D01*
X53032Y497161D01*
X53328Y497226D01*
X53626Y497170D01*
X53879Y497003D01*
X55826Y495056D01*
X59157Y493676D01*
X62763Y493676D01*
X64191Y494267D01*
X64470Y494325D01*
X64768Y494270D01*
X65021Y494102D01*
X96551Y462572D01*
X96714Y462331D01*
X96774Y462033D01*
X96774Y455503D01*
X96723Y455228D01*
X96559Y454972D01*
X96309Y454801D01*
X96012Y454741D01*
X91992Y454741D01*
X91992Y441674D01*
X92177Y441674D01*
X92440Y441627D01*
X92698Y441467D01*
X92874Y441220D01*
X92939Y440924D01*
X92883Y440626D01*
X92716Y440373D01*
X89987Y437644D01*
X89745Y437481D01*
X89448Y437421D01*
X85729Y437421D01*
X84836Y436528D01*
X84836Y429761D01*
X84780Y429475D01*
X84613Y429222D01*
X81534Y426143D01*
X81534Y375481D01*
X85375Y371640D01*
X85538Y371399D01*
X85598Y371101D01*
X85598Y370835D01*
X86491Y369942D01*
X95373Y369942D01*
X96266Y370835D01*
X96266Y371101D01*
X96313Y371365D01*
X96472Y371623D01*
X96720Y371798D01*
X97016Y371863D01*
X97314Y371808D01*
X97567Y371640D01*
X98075Y371132D01*
X98238Y370891D01*
X98298Y370593D01*
X98298Y370440D01*
X98242Y370154D01*
X98075Y369901D01*
X97785Y369611D01*
X97785Y368808D01*
X97734Y368533D01*
X97570Y368278D01*
X97320Y368106D01*
G37*
%LPC*%
G36*
X83820Y448969D02*
X90468Y448969D01*
X90468Y454741D01*
X85308Y454741D01*
X83820Y453253D01*
X83820Y448969D01*
G37*
G36*
X85308Y441674D02*
X90468Y441674D01*
X90468Y447445D01*
X83820Y447445D01*
X83820Y443161D01*
X85308Y441674D01*
G37*
G36*
X61722Y427302D02*
X71040Y427302D01*
X71040Y428545D01*
X69505Y432250D01*
X66670Y435085D01*
X62965Y436620D01*
X61722Y436620D01*
X61722Y427302D01*
G37*
G36*
X61722Y416460D02*
X62965Y416460D01*
X66670Y417995D01*
X69505Y420830D01*
X71040Y424535D01*
X71040Y425778D01*
X61722Y425778D01*
X61722Y416460D01*
G37*
%LPD*%
G36*
X119191Y247459D02*
X118896Y247389D01*
X118597Y247440D01*
X118342Y247603D01*
X118170Y247853D01*
X118110Y248151D01*
X118110Y266123D01*
X92387Y291846D01*
X69361Y291846D01*
X69098Y291893D01*
X68840Y292052D01*
X68664Y292300D01*
X68599Y292596D01*
X68655Y292894D01*
X68822Y293147D01*
X69505Y293830D01*
X71040Y297535D01*
X71040Y298778D01*
X60198Y298778D01*
X60198Y309620D01*
X58955Y309620D01*
X55250Y308085D01*
X52415Y305250D01*
X50996Y301825D01*
X50856Y301604D01*
X50611Y301425D01*
X50316Y301355D01*
X50017Y301406D01*
X49762Y301569D01*
X49590Y301819D01*
X49530Y302117D01*
X49530Y332493D01*
X49577Y332757D01*
X49736Y333015D01*
X49984Y333190D01*
X50280Y333255D01*
X50578Y333200D01*
X50831Y333032D01*
X53066Y330797D01*
X53227Y330561D01*
X53289Y330264D01*
X53231Y329967D01*
X51896Y326743D01*
X51896Y323137D01*
X53276Y319806D01*
X55826Y317256D01*
X59157Y315876D01*
X62763Y315876D01*
X64909Y316765D01*
X65188Y316823D01*
X65487Y316767D01*
X65739Y316600D01*
X76777Y305562D01*
X105704Y305562D01*
X105978Y305511D01*
X106234Y305347D01*
X106405Y305097D01*
X106466Y304800D01*
X106466Y301839D01*
X107358Y300947D01*
X116608Y300947D01*
X117501Y301839D01*
X117501Y312841D01*
X116608Y313734D01*
X107358Y313734D01*
X106466Y312841D01*
X106466Y310896D01*
X106414Y310621D01*
X106251Y310366D01*
X106001Y310194D01*
X105704Y310134D01*
X78987Y310134D01*
X78701Y310190D01*
X78448Y310357D01*
X69108Y319697D01*
X68948Y319933D01*
X68885Y320229D01*
X68943Y320527D01*
X70024Y323137D01*
X70024Y326743D01*
X68644Y330074D01*
X66094Y332624D01*
X62763Y334004D01*
X59157Y334004D01*
X57625Y333369D01*
X57345Y333311D01*
X57047Y333367D01*
X56794Y333535D01*
X52801Y337528D01*
X52638Y337769D01*
X52578Y338067D01*
X52578Y344064D01*
X52625Y344327D01*
X52784Y344585D01*
X53032Y344761D01*
X53328Y344826D01*
X53626Y344770D01*
X53879Y344603D01*
X55826Y342656D01*
X59157Y341276D01*
X62763Y341276D01*
X64191Y341867D01*
X64470Y341925D01*
X64768Y341870D01*
X65021Y341702D01*
X84397Y322326D01*
X105704Y322326D01*
X105978Y322275D01*
X106234Y322111D01*
X106405Y321861D01*
X106466Y321564D01*
X106466Y318349D01*
X107358Y317457D01*
X116608Y317457D01*
X117501Y318349D01*
X117501Y329351D01*
X116608Y330244D01*
X107358Y330244D01*
X106466Y329351D01*
X106466Y327660D01*
X106414Y327385D01*
X106251Y327130D01*
X106001Y326958D01*
X105704Y326898D01*
X86607Y326898D01*
X86321Y326954D01*
X86068Y327121D01*
X68811Y344378D01*
X68650Y344614D01*
X68587Y344911D01*
X68645Y345209D01*
X70024Y348537D01*
X70024Y352143D01*
X68644Y355474D01*
X68041Y356077D01*
X67888Y356297D01*
X67818Y356592D01*
X67869Y356891D01*
X68033Y357146D01*
X68283Y357318D01*
X68580Y357378D01*
X106103Y357378D01*
X109518Y360793D01*
X109759Y360956D01*
X110057Y361016D01*
X115441Y361016D01*
X116334Y361909D01*
X116334Y368319D01*
X116381Y368582D01*
X116540Y368840D01*
X116787Y369015D01*
X117084Y369080D01*
X117382Y369025D01*
X117531Y368926D01*
X121666Y368926D01*
X121666Y372101D01*
X116078Y372101D01*
X116078Y371266D01*
X116027Y370991D01*
X115863Y370736D01*
X115613Y370564D01*
X115316Y370504D01*
X110099Y370504D01*
X109836Y370551D01*
X109578Y370710D01*
X109403Y370958D01*
X109338Y371254D01*
X109393Y371552D01*
X109561Y371805D01*
X110462Y372706D01*
X110462Y377102D01*
X108627Y378937D01*
X108469Y379168D01*
X108404Y379464D01*
X108459Y379762D01*
X108627Y380015D01*
X110462Y381850D01*
X110462Y385805D01*
X110518Y386091D01*
X110685Y386344D01*
X113709Y389368D01*
X113950Y389531D01*
X114248Y389591D01*
X115441Y389591D01*
X115793Y389943D01*
X116013Y390096D01*
X116308Y390166D01*
X116607Y390115D01*
X116862Y389952D01*
X117034Y389702D01*
X117094Y389404D01*
X117094Y385808D01*
X117185Y385675D01*
X117251Y385379D01*
X117195Y385081D01*
X117094Y384928D01*
X117094Y380807D01*
X117186Y380673D01*
X117251Y380377D01*
X117195Y380079D01*
X117094Y379926D01*
X117094Y376644D01*
X117038Y376358D01*
X116871Y376105D01*
X116078Y375312D01*
X116078Y373625D01*
X123190Y373625D01*
X123190Y368926D01*
X126492Y368926D01*
X126767Y368875D01*
X127022Y368711D01*
X127194Y368461D01*
X127254Y368164D01*
X127254Y339591D01*
X127198Y339305D01*
X127031Y339052D01*
X119634Y331655D01*
X119634Y312997D01*
X122546Y310085D01*
X122709Y309843D01*
X122770Y309546D01*
X122770Y301839D01*
X123662Y300947D01*
X132912Y300947D01*
X133805Y301839D01*
X133805Y312841D01*
X132912Y313734D01*
X125679Y313734D01*
X125393Y313789D01*
X125140Y313957D01*
X124429Y314668D01*
X124266Y314909D01*
X124206Y315207D01*
X124206Y316695D01*
X124257Y316969D01*
X124421Y317225D01*
X124671Y317396D01*
X124968Y317457D01*
X132912Y317457D01*
X133805Y318349D01*
X133805Y325328D01*
X133860Y325614D01*
X134028Y325867D01*
X134874Y326713D01*
X134874Y364713D01*
X134925Y364987D01*
X135089Y365243D01*
X135339Y365414D01*
X135636Y365475D01*
X140637Y365475D01*
X140637Y379764D01*
X135496Y379764D01*
X134529Y378797D01*
X134299Y378639D01*
X134003Y378574D01*
X133705Y378630D01*
X133452Y378797D01*
X127985Y384264D01*
X127822Y384505D01*
X127762Y384803D01*
X127762Y385063D01*
X127813Y385338D01*
X127977Y385593D01*
X128227Y385765D01*
X128524Y385825D01*
X134262Y385825D01*
X134536Y385774D01*
X134792Y385610D01*
X134963Y385360D01*
X135024Y385063D01*
X135024Y382875D01*
X135916Y381983D01*
X146304Y381983D01*
X146579Y381931D01*
X146834Y381768D01*
X147006Y381518D01*
X147066Y381221D01*
X147066Y380526D01*
X147015Y380251D01*
X146851Y379995D01*
X146601Y379824D01*
X146304Y379764D01*
X142161Y379764D01*
X142161Y365475D01*
X146304Y365475D01*
X146579Y365423D01*
X146834Y365260D01*
X147006Y365010D01*
X147066Y364713D01*
X147066Y275583D01*
X147010Y275297D01*
X146843Y275044D01*
X119411Y247612D01*
X119191Y247459D01*
G37*
%LPC*%
G36*
X61722Y300302D02*
X71040Y300302D01*
X71040Y301545D01*
X69505Y305250D01*
X66670Y308085D01*
X62965Y309620D01*
X61722Y309620D01*
X61722Y300302D01*
G37*
%LPD*%
G36*
X160317Y230900D02*
X160020Y230840D01*
X156972Y230840D01*
X156697Y230891D01*
X156442Y231054D01*
X156270Y231304D01*
X156210Y231602D01*
X156210Y324640D01*
X156261Y324915D01*
X156425Y325170D01*
X156675Y325342D01*
X156972Y325402D01*
X157646Y325402D01*
X157957Y325713D01*
X158177Y325866D01*
X158472Y325936D01*
X158771Y325885D01*
X159026Y325722D01*
X159198Y325472D01*
X159258Y325175D01*
X159258Y299281D01*
X162121Y296418D01*
X176207Y296418D01*
X180512Y300723D01*
X180754Y300886D01*
X181051Y300947D01*
X188871Y300947D01*
X189764Y301839D01*
X189764Y312841D01*
X188871Y313734D01*
X179622Y313734D01*
X178847Y312959D01*
X178627Y312806D01*
X178564Y312791D01*
X178669Y312638D01*
X178729Y312340D01*
X178729Y305722D01*
X178673Y305436D01*
X178506Y305183D01*
X174761Y301438D01*
X174541Y301285D01*
X174246Y301215D01*
X173947Y301266D01*
X173692Y301429D01*
X173520Y301679D01*
X173460Y301977D01*
X173460Y308595D01*
X173516Y308881D01*
X173683Y309134D01*
X177428Y312879D01*
X177648Y313032D01*
X177711Y313047D01*
X177606Y313200D01*
X177546Y313497D01*
X177546Y317693D01*
X177593Y317956D01*
X177752Y318214D01*
X178000Y318389D01*
X178296Y318454D01*
X178594Y318399D01*
X178847Y318231D01*
X179622Y317457D01*
X188871Y317457D01*
X189764Y318349D01*
X189764Y326423D01*
X189820Y326709D01*
X189987Y326962D01*
X198882Y335857D01*
X198882Y362973D01*
X198938Y363259D01*
X199105Y363512D01*
X200406Y364813D01*
X200406Y365975D01*
X200453Y366239D01*
X200612Y366497D01*
X200860Y366672D01*
X201156Y366737D01*
X201454Y366682D01*
X201707Y366514D01*
X202746Y365475D01*
X207888Y365475D01*
X207888Y379764D01*
X202746Y379764D01*
X201707Y378724D01*
X201487Y378571D01*
X201192Y378501D01*
X200893Y378552D01*
X200638Y378715D01*
X200466Y378966D01*
X200406Y379263D01*
X200406Y381947D01*
X197829Y384524D01*
X197676Y384744D01*
X197606Y385039D01*
X197657Y385338D01*
X197820Y385593D01*
X198070Y385765D01*
X198368Y385825D01*
X201513Y385825D01*
X201787Y385774D01*
X202043Y385610D01*
X202214Y385360D01*
X202275Y385063D01*
X202275Y382875D01*
X203167Y381983D01*
X214132Y381983D01*
X214147Y381998D01*
X214378Y382156D01*
X214674Y382221D01*
X214972Y382166D01*
X215225Y381998D01*
X230924Y366299D01*
X231082Y366068D01*
X231147Y365772D01*
X231092Y365474D01*
X230924Y365221D01*
X226314Y360611D01*
X226314Y345001D01*
X233749Y337566D01*
X243263Y337566D01*
X255493Y349796D01*
X255713Y349949D01*
X256008Y350019D01*
X256307Y349968D01*
X256562Y349805D01*
X256734Y349555D01*
X256794Y349257D01*
X256794Y347211D01*
X256738Y346925D01*
X256571Y346672D01*
X243285Y333386D01*
X243049Y333225D01*
X242752Y333163D01*
X242454Y333221D01*
X240563Y334004D01*
X236957Y334004D01*
X233626Y332624D01*
X231076Y330074D01*
X229696Y326743D01*
X229696Y323137D01*
X231076Y319806D01*
X233351Y317531D01*
X233504Y317311D01*
X233574Y317016D01*
X233523Y316717D01*
X233359Y316462D01*
X233109Y316290D01*
X232812Y316230D01*
X232225Y316230D01*
X160782Y244787D01*
X160782Y231602D01*
X160731Y231327D01*
X160567Y231071D01*
X160317Y230900D01*
G37*
%LPC*%
G36*
X209412Y373381D02*
X216041Y373381D01*
X216041Y378276D01*
X214553Y379764D01*
X209412Y379764D01*
X209412Y373381D01*
G37*
G36*
X209412Y365475D02*
X214553Y365475D01*
X216041Y366962D01*
X216041Y371857D01*
X209412Y371857D01*
X209412Y365475D01*
G37*
%LPD*%
G36*
X185264Y357438D02*
X184967Y357378D01*
X182880Y357378D01*
X182605Y357429D01*
X182350Y357593D01*
X182178Y357843D01*
X182118Y358140D01*
X182118Y361524D01*
X182169Y361799D01*
X182333Y362054D01*
X182583Y362226D01*
X182880Y362286D01*
X183436Y362286D01*
X184329Y363179D01*
X184329Y369538D01*
X184376Y369802D01*
X184535Y370060D01*
X184783Y370235D01*
X185079Y370300D01*
X185377Y370245D01*
X185630Y370077D01*
X186146Y369561D01*
X190246Y369561D01*
X190246Y374260D01*
X191770Y374260D01*
X191770Y369561D01*
X195072Y369561D01*
X195347Y369510D01*
X195602Y369346D01*
X195774Y369096D01*
X195834Y368799D01*
X195834Y367023D01*
X195778Y366737D01*
X195611Y366484D01*
X194310Y365183D01*
X194310Y360625D01*
X194263Y360362D01*
X194104Y360104D01*
X193856Y359929D01*
X193560Y359864D01*
X193262Y359919D01*
X193009Y360087D01*
X192698Y360398D01*
X188302Y360398D01*
X185505Y357601D01*
X185264Y357438D01*
G37*
G36*
X186755Y90995D02*
X186460Y90925D01*
X186161Y90976D01*
X185906Y91139D01*
X185734Y91389D01*
X185674Y91686D01*
X185674Y96498D01*
X180318Y101854D01*
X172742Y101854D01*
X171711Y100823D01*
X171481Y100665D01*
X171185Y100600D01*
X170887Y100656D01*
X170634Y100823D01*
X168625Y102832D01*
X168462Y103073D01*
X168402Y103371D01*
X168402Y111467D01*
X168449Y111730D01*
X168608Y111988D01*
X168856Y112164D01*
X169152Y112229D01*
X169450Y112173D01*
X169703Y112006D01*
X172742Y108966D01*
X180318Y108966D01*
X185674Y114322D01*
X185674Y121898D01*
X180318Y127254D01*
X173736Y127254D01*
X173461Y127305D01*
X173206Y127469D01*
X173034Y127719D01*
X172974Y128016D01*
X172974Y177731D01*
X165577Y185128D01*
X165414Y185369D01*
X165354Y185667D01*
X165354Y202739D01*
X165405Y203013D01*
X165569Y203269D01*
X165819Y203440D01*
X166116Y203501D01*
X167255Y203501D01*
X168148Y204393D01*
X168148Y213643D01*
X167445Y214345D01*
X167292Y214565D01*
X167222Y214860D01*
X167273Y215159D01*
X167437Y215414D01*
X167687Y215586D01*
X167984Y215646D01*
X168587Y215646D01*
X168776Y215835D01*
X169006Y215993D01*
X169302Y216058D01*
X169601Y216002D01*
X169853Y215835D01*
X173062Y212626D01*
X177458Y212626D01*
X177568Y212736D01*
X177787Y212889D01*
X178082Y212959D01*
X178381Y212908D01*
X178637Y212745D01*
X178808Y212495D01*
X178869Y212197D01*
X178869Y204393D01*
X179761Y203501D01*
X182880Y203501D01*
X183155Y203449D01*
X183410Y203286D01*
X183582Y203036D01*
X183642Y202739D01*
X183642Y184981D01*
X185077Y183546D01*
X185230Y183326D01*
X185300Y183031D01*
X185249Y182732D01*
X185086Y182477D01*
X184836Y182305D01*
X184538Y182245D01*
X181212Y182245D01*
X175260Y176293D01*
X175260Y172847D01*
X186182Y172847D01*
X186182Y161925D01*
X189628Y161925D01*
X193009Y165306D01*
X193229Y165459D01*
X193524Y165529D01*
X193823Y165478D01*
X194078Y165314D01*
X194250Y165064D01*
X194310Y164767D01*
X194310Y129279D01*
X194254Y128993D01*
X194087Y128740D01*
X188214Y122867D01*
X188214Y102685D01*
X192824Y98075D01*
X192982Y97844D01*
X193047Y97548D01*
X192992Y97250D01*
X192824Y96997D01*
X186975Y91148D01*
X186755Y90995D01*
G37*
%LPC*%
G36*
X181212Y161925D02*
X184658Y161925D01*
X184658Y171323D01*
X175260Y171323D01*
X175260Y167877D01*
X181212Y161925D01*
G37*
%LPD*%
D10*
X122428Y605672D03*
X122428Y600671D03*
X122428Y595669D03*
X122428Y590668D03*
X90932Y590668D03*
X90932Y595669D03*
X90932Y600671D03*
X90932Y605672D03*
X191008Y606307D03*
X191008Y601306D03*
X191008Y596304D03*
X191008Y591303D03*
X159512Y591303D03*
X159512Y596304D03*
X159512Y601306D03*
X159512Y606307D03*
D11*
X91230Y645898D03*
X91230Y662202D03*
D12*
X111944Y543560D03*
X128248Y543560D03*
X111983Y527050D03*
X128287Y527050D03*
D11*
X91230Y209018D03*
X91230Y225322D03*
X67721Y209018D03*
X67721Y225322D03*
X114738Y645898D03*
X114738Y662202D03*
X138246Y645898D03*
X138246Y662202D03*
D13*
X141399Y605916D03*
X141399Y590424D03*
D10*
X122428Y387867D03*
X122428Y382866D03*
X122428Y377864D03*
X122428Y372863D03*
X90932Y372863D03*
X90932Y377864D03*
X90932Y382866D03*
X90932Y387867D03*
D11*
X91230Y448207D03*
X91230Y431903D03*
D12*
X111983Y323850D03*
X128287Y323850D03*
X111983Y307340D03*
X128287Y307340D03*
D11*
X138246Y209018D03*
X138246Y225322D03*
X114738Y209018D03*
X114738Y225322D03*
X114738Y431903D03*
X114738Y448207D03*
X138246Y431903D03*
X138246Y448207D03*
D13*
X141399Y388111D03*
X141399Y372619D03*
D12*
X184207Y543560D03*
X167903Y543560D03*
X184246Y527050D03*
X167942Y527050D03*
D11*
X161754Y662202D03*
X161754Y645898D03*
D13*
X208650Y607186D03*
X208650Y591694D03*
D11*
X185262Y225322D03*
X185262Y209018D03*
X161754Y225322D03*
X161754Y209018D03*
X208771Y645898D03*
X208771Y662202D03*
X185262Y645898D03*
X185262Y662202D03*
D10*
X191008Y388502D03*
X191008Y383501D03*
X191008Y378499D03*
X191008Y373498D03*
X159512Y373498D03*
X159512Y378499D03*
X159512Y383501D03*
X159512Y388502D03*
D12*
X184246Y323850D03*
X167942Y323850D03*
X184246Y307340D03*
X167942Y307340D03*
D11*
X161754Y431903D03*
X161754Y448207D03*
D13*
X208650Y388111D03*
X208650Y372619D03*
D11*
X232279Y225322D03*
X232279Y209018D03*
X208771Y225322D03*
X208771Y209018D03*
X208771Y431903D03*
X208771Y448207D03*
X185262Y431903D03*
X185262Y448207D03*
D14*
X68580Y161290D03*
X68580Y186290D03*
D15*
X86656Y62600D03*
X76656Y62600D03*
X66656Y62600D03*
X56656Y62600D03*
D16*
X274156Y38100D03*
X29156Y38100D03*
D15*
X96656Y62600D03*
X106656Y62600D03*
X116656Y62600D03*
X126656Y62600D03*
X136656Y62600D03*
X146656Y62600D03*
X156656Y62600D03*
X166656Y62600D03*
X176656Y62600D03*
X186656Y62600D03*
X196656Y62600D03*
X206656Y62600D03*
X216656Y62600D03*
X226656Y62600D03*
X236656Y62600D03*
X246656Y62600D03*
D17*
X261620Y171450D03*
X236220Y171450D03*
X210820Y171450D03*
X134620Y172085D03*
X185420Y172085D03*
X160020Y172085D03*
D18*
X112134Y584200D03*
X101984Y584200D03*
X112134Y612140D03*
X101984Y612140D03*
X112134Y365760D03*
X101984Y365760D03*
X112134Y394335D03*
X101984Y394335D03*
X169980Y585470D03*
X180130Y585470D03*
X169980Y612775D03*
X180130Y612775D03*
X169980Y367030D03*
X180130Y367030D03*
X169980Y394970D03*
X180130Y394970D03*
D17*
X19050Y92710D03*
X19050Y118110D03*
X44450Y92710D03*
X44450Y118110D03*
X97790Y92710D03*
X97790Y118110D03*
X123190Y92710D03*
X123190Y118110D03*
X176530Y92710D03*
X176530Y118110D03*
X201930Y92710D03*
X201930Y118110D03*
X255270Y92710D03*
X255270Y118110D03*
X280670Y92710D03*
X280670Y118110D03*
D19*
X60960Y731340D03*
X60960Y705940D03*
X60960Y578940D03*
X60960Y553540D03*
X60960Y680540D03*
X60960Y655140D03*
X60960Y604340D03*
X60960Y629740D03*
X60960Y528140D03*
X60960Y502740D03*
X60960Y477340D03*
X60960Y451940D03*
X60960Y426540D03*
X60960Y401140D03*
X60960Y375740D03*
X60960Y350340D03*
X60960Y324940D03*
X60960Y299540D03*
X60960Y274140D03*
X60960Y248740D03*
X238760Y248740D03*
X238760Y274140D03*
X238760Y299540D03*
X238760Y324940D03*
X238760Y350340D03*
X238760Y375740D03*
X238760Y401140D03*
X238760Y426540D03*
X238760Y451940D03*
X238760Y477340D03*
X238760Y502740D03*
X238760Y528140D03*
X238760Y553540D03*
X238760Y578940D03*
X238760Y604340D03*
X238760Y629740D03*
X238760Y655140D03*
X238760Y680540D03*
X238760Y705940D03*
X238760Y731340D03*
D20*
X89916Y589788D02*
X89916Y557784D01*
X60960Y528828D01*
X89916Y589788D02*
X90932Y590668D01*
X60960Y528828D02*
X60960Y528140D01*
X80772Y662940D02*
X89916Y662940D01*
X91230Y662202D01*
D21*
X80772Y662940D03*
D20*
X82296Y448056D02*
X89916Y448056D01*
X82296Y448056D02*
X60960Y426720D01*
X89916Y448056D02*
X91230Y448207D01*
X60960Y426720D02*
X60960Y426540D01*
X121920Y371856D02*
X121920Y335280D01*
X118872Y332232D01*
X118872Y301752D01*
X115824Y298704D01*
X60960Y298704D01*
X121920Y371856D02*
X122428Y372863D01*
X60960Y299540D02*
X60960Y298704D01*
X140208Y306324D02*
X140208Y371856D01*
X140208Y306324D02*
X132588Y298704D01*
X121920Y298704D01*
X118872Y301752D01*
X140208Y371856D02*
X141399Y372619D01*
X89916Y646176D02*
X79248Y656844D01*
X77724Y656844D01*
X60960Y673608D01*
X60960Y679704D01*
X89916Y646176D02*
X91230Y645898D01*
X60960Y679704D02*
X60960Y680540D01*
X208788Y591312D02*
X208788Y583692D01*
X237744Y554736D01*
X208788Y591312D02*
X208650Y591694D01*
X237744Y554736D02*
X238760Y553540D01*
X192024Y583692D02*
X192024Y591312D01*
X191008Y591303D01*
X173736Y662940D02*
X163068Y662940D01*
X173736Y662940D02*
X190500Y679704D01*
X237744Y679704D01*
X163068Y662940D02*
X161754Y662202D01*
X237744Y679704D02*
X238760Y680540D01*
X91440Y649224D02*
X91440Y646176D01*
X91440Y649224D02*
X106680Y664464D01*
X106680Y667512D01*
X108204Y669036D01*
X155448Y669036D01*
X161544Y662940D01*
X91440Y646176D02*
X91230Y645898D01*
X161544Y662940D02*
X161754Y662202D01*
X62497Y173749D02*
X45720Y156972D01*
X45720Y118872D01*
X62497Y173749D02*
X68580Y186290D01*
X45720Y118872D02*
X44450Y118110D01*
X97536Y62484D02*
X97536Y56388D01*
X103632Y50292D01*
X109728Y50292D01*
X115824Y56388D01*
X115824Y62484D01*
X97536Y62484D02*
X96656Y62600D01*
X115824Y62484D02*
X116656Y62600D01*
X156972Y62484D02*
X156972Y56388D01*
X163068Y50292D01*
X169164Y50292D01*
X175260Y56388D01*
X175260Y62484D01*
X156972Y62484D02*
X156656Y62600D01*
X175260Y62484D02*
X176656Y62600D01*
X176784Y64008D02*
X185928Y64008D01*
X186656Y62600D01*
X176784Y64008D02*
X176656Y62600D01*
X205740Y64008D02*
X205740Y68580D01*
X199644Y74676D01*
X193548Y74676D01*
X187452Y68580D01*
X187452Y64008D01*
X205740Y64008D02*
X206656Y62600D01*
X187452Y64008D02*
X186656Y62600D01*
X121920Y50292D02*
X115824Y56388D01*
X121920Y50292D02*
X150876Y50292D01*
X156972Y56388D01*
X116656Y62600D02*
X115824Y56388D01*
X156972Y56388D02*
X156656Y62600D01*
X121920Y106680D02*
X121920Y117348D01*
X121920Y106680D02*
X112776Y97536D01*
X112776Y67056D01*
X115824Y64008D01*
X121920Y117348D02*
X123190Y118110D01*
X115824Y64008D02*
X116656Y62600D01*
X202692Y106680D02*
X202692Y117348D01*
X202692Y106680D02*
X211836Y97536D01*
X211836Y86868D01*
X199644Y74676D01*
X202692Y117348D02*
X201930Y118110D01*
X190500Y365760D02*
X190500Y373380D01*
X191008Y373498D01*
X207264Y371856D02*
X207264Y365760D01*
X202692Y361188D01*
X207264Y371856D02*
X208650Y372619D01*
X121920Y554736D02*
X121920Y589788D01*
X121920Y554736D02*
X118872Y551688D01*
X118872Y524256D01*
X123444Y519684D01*
X134112Y519684D01*
X140208Y525780D01*
X140208Y589788D01*
X122428Y590668D02*
X121920Y589788D01*
X140208Y589788D02*
X141399Y590424D01*
X163068Y431292D02*
X173736Y431292D01*
X182880Y422148D01*
X234696Y422148D01*
X237744Y425196D01*
X163068Y431292D02*
X161754Y431903D01*
X237744Y425196D02*
X238760Y426540D01*
X134112Y469392D02*
X134112Y519684D01*
X134112Y469392D02*
X153924Y449580D01*
X153924Y440436D01*
X161544Y432816D01*
X161754Y431903D01*
D21*
X192024Y583692D03*
X190500Y365760D03*
X202692Y361188D03*
D20*
X111252Y592836D02*
X111252Y611124D01*
X112134Y612140D01*
X112776Y554736D02*
X112776Y544068D01*
X111944Y543560D01*
D21*
X111252Y592836D03*
X112776Y554736D03*
D20*
X123444Y594360D02*
X128016Y594360D01*
X129540Y592836D01*
X129540Y557784D01*
X121920Y550164D01*
X121920Y533400D01*
X128016Y527304D01*
X123444Y594360D02*
X122428Y595669D01*
X128016Y527304D02*
X128287Y527050D01*
X122672Y605916D02*
X141399Y605916D01*
X122672Y605916D02*
X122428Y605672D01*
X201168Y607186D02*
X208650Y607186D01*
X201168Y607186D02*
X191887Y607186D01*
X191008Y606307D01*
X191399Y388111D02*
X208650Y388111D01*
X191399Y388111D02*
X191008Y388502D01*
X141399Y388111D02*
X134112Y388111D01*
X122672Y388111D01*
X122428Y387867D01*
X141732Y606552D02*
X158496Y606552D01*
X159512Y606307D01*
X141732Y606552D02*
X141399Y605916D01*
X91440Y606552D02*
X91440Y633984D01*
X106680Y649224D01*
X106680Y653796D01*
X114300Y661416D01*
X91440Y606552D02*
X90932Y605672D01*
X114300Y661416D02*
X114738Y662202D01*
X115824Y662940D02*
X121920Y662940D01*
X137160Y662940D01*
X138246Y662202D01*
X115824Y662940D02*
X114738Y662202D01*
X121920Y662940D02*
X121920Y606552D01*
X122428Y605672D01*
X185928Y662940D02*
X207264Y662940D01*
X185928Y662940D02*
X185262Y662202D01*
X207264Y662940D02*
X208771Y662202D01*
X149352Y661416D02*
X138684Y661416D01*
X149352Y661416D02*
X155448Y655320D01*
X178308Y655320D01*
X184404Y661416D01*
X138684Y661416D02*
X138246Y662202D01*
X184404Y661416D02*
X185262Y662202D01*
X185928Y448056D02*
X185928Y443484D01*
X201168Y428244D01*
X201168Y426720D01*
X202692Y425196D01*
X214884Y425196D01*
X216408Y426720D01*
X216408Y440436D01*
X208788Y448056D01*
X185928Y448056D02*
X185262Y448207D01*
X208771Y448207D02*
X208788Y448056D01*
X201168Y576072D02*
X201168Y606552D01*
X201168Y576072D02*
X236220Y541020D01*
X245364Y541020D01*
X252984Y533400D01*
X252984Y502920D01*
X237744Y487680D01*
X234696Y487680D01*
X224028Y477012D02*
X208788Y461772D01*
X224028Y477012D02*
X234696Y487680D01*
X208788Y461772D02*
X208788Y449580D01*
X201168Y606552D02*
X201168Y607186D01*
X208788Y449580D02*
X208771Y448207D01*
X91440Y419100D02*
X91440Y388620D01*
X91440Y419100D02*
X106680Y434340D01*
X106680Y440436D01*
X114300Y448056D01*
X91440Y388620D02*
X90932Y387867D01*
X114300Y448056D02*
X114738Y448207D01*
X158496Y399288D02*
X158496Y388620D01*
X143256Y414528D02*
X131064Y426720D01*
X136906Y420878D02*
X143256Y414528D01*
X156972Y400812D01*
X158496Y399288D01*
X131064Y426720D02*
X131064Y441960D01*
X137160Y448056D01*
X158496Y388620D02*
X159512Y388502D01*
X138246Y448207D02*
X137160Y448056D01*
X208788Y387096D02*
X213360Y387096D01*
X234696Y365760D01*
X243840Y365760D01*
X249936Y371856D01*
X249936Y379476D01*
X239268Y390144D01*
X228600Y390144D01*
X217932Y400812D01*
X156972Y400812D01*
X208650Y388111D02*
X208788Y387096D01*
X134112Y388620D02*
X134112Y399288D01*
X127508Y411480D02*
X136906Y420878D01*
X134112Y388620D02*
X134112Y388111D01*
X124968Y448056D02*
X115824Y448056D01*
X124968Y448056D02*
X131064Y441960D01*
X115824Y448056D02*
X114738Y448207D01*
X224028Y477012D02*
X239268Y461772D01*
X243840Y461772D01*
X256032Y449580D01*
X256032Y353568D01*
X242316Y339852D01*
X234696Y339852D01*
X228600Y345948D01*
X228600Y359664D01*
X234696Y365760D01*
X219456Y608076D02*
X208788Y608076D01*
X208650Y607186D01*
D21*
X134112Y399288D03*
X127508Y411480D03*
X219456Y608076D03*
D20*
X228785Y642188D02*
X229486Y642188D01*
X228785Y642188D02*
X208771Y662202D01*
X238760Y632914D02*
X238760Y629740D01*
X238760Y632914D02*
X229486Y642188D01*
X100584Y611124D02*
X100584Y606552D01*
X96012Y601980D01*
X91440Y601980D01*
X100584Y611124D02*
X101984Y612140D01*
X91440Y601980D02*
X90932Y600671D01*
X57912Y234696D02*
X67056Y225552D01*
X57912Y234696D02*
X56388Y234696D01*
X41148Y249936D01*
X41148Y574548D01*
X60960Y594360D01*
X80772Y594360D01*
X86868Y600456D01*
X89916Y600456D01*
X67056Y225552D02*
X67721Y225322D01*
X89916Y600456D02*
X90932Y600671D01*
X114300Y624840D02*
X114300Y644652D01*
X114300Y624840D02*
X102108Y612648D01*
X114300Y644652D02*
X114738Y645898D01*
X102108Y612648D02*
X101984Y612140D01*
X100584Y589788D02*
X100584Y585216D01*
X97536Y592836D02*
X96012Y594360D01*
X97536Y592836D02*
X100584Y589788D01*
X96012Y594360D02*
X91440Y594360D01*
X100584Y585216D02*
X101984Y584200D01*
X91440Y594360D02*
X90932Y595669D01*
X89916Y225552D02*
X80772Y225552D01*
X68580Y237744D01*
X57912Y237744D01*
X44196Y251460D01*
X44196Y551688D01*
X60960Y568452D01*
X65532Y568452D01*
X83820Y586740D01*
X83820Y592836D01*
X85344Y594360D01*
X89916Y594360D01*
X89916Y225552D02*
X91230Y225322D01*
X89916Y594360D02*
X90932Y595669D01*
X139470Y645898D02*
X152908Y632460D01*
X139470Y645898D02*
X138246Y645898D01*
X100584Y595884D02*
X97536Y592836D01*
D21*
X152908Y632460D03*
X100584Y595884D03*
D20*
X67056Y208788D02*
X67056Y202692D01*
X28956Y164592D01*
X28956Y102108D01*
X24384Y97536D02*
X19812Y92964D01*
X24384Y97536D02*
X28956Y102108D01*
X67056Y208788D02*
X67721Y209018D01*
X19812Y92964D02*
X19050Y92710D01*
X76200Y68580D02*
X76200Y64008D01*
X76200Y68580D02*
X62484Y82296D01*
X39624Y82296D01*
X24384Y97536D01*
X76200Y64008D02*
X76656Y62600D01*
X24384Y97536D02*
X19050Y92710D01*
X89916Y137160D02*
X89916Y208788D01*
X54864Y102108D02*
X45720Y92964D01*
X54864Y102108D02*
X89916Y137160D01*
X89916Y208788D02*
X91230Y209018D01*
X45720Y92964D02*
X44450Y92710D01*
X85344Y71628D02*
X85344Y64008D01*
X85344Y71628D02*
X54864Y102108D01*
X85344Y64008D02*
X86656Y62600D01*
X217932Y64008D02*
X225552Y64008D01*
X217932Y64008D02*
X216656Y62600D01*
X225552Y64008D02*
X226656Y62600D01*
X227076Y64008D02*
X236220Y64008D01*
X236656Y62600D01*
X227076Y64008D02*
X226656Y62600D01*
X237744Y64008D02*
X237744Y68580D01*
X251460Y82296D01*
X259080Y82296D01*
X265176Y88392D01*
X265176Y97536D01*
X256032Y106680D01*
X256032Y117348D01*
X237744Y64008D02*
X236656Y62600D01*
X256032Y117348D02*
X255270Y118110D01*
X134112Y153924D02*
X134112Y170688D01*
X134112Y153924D02*
X99060Y118872D01*
X134112Y170688D02*
X134620Y172085D01*
X99060Y118872D02*
X97790Y118110D01*
X89916Y373380D02*
X86868Y373380D01*
X83820Y376428D01*
X83820Y425196D01*
X89916Y431292D01*
X89916Y373380D02*
X90932Y372863D01*
X89916Y431292D02*
X91230Y431903D01*
X91440Y432816D02*
X91440Y435864D01*
X99060Y443484D01*
X99060Y463296D01*
X60960Y501396D01*
X91440Y432816D02*
X91230Y431903D01*
X60960Y501396D02*
X60960Y502740D01*
X123444Y377952D02*
X126492Y377952D01*
X129540Y374904D01*
X129540Y338328D01*
X121920Y330708D01*
X121920Y313944D01*
X128016Y307848D01*
X122428Y377864D02*
X123444Y377952D01*
X128016Y307848D02*
X128287Y307340D01*
X100584Y388620D02*
X100584Y393192D01*
X100584Y388620D02*
X96012Y384048D01*
X91440Y384048D01*
X100584Y393192D02*
X101984Y394335D01*
X91440Y384048D02*
X90932Y382866D01*
X115824Y240792D02*
X115824Y225552D01*
X115824Y240792D02*
X149352Y274320D01*
X124968Y417576D02*
X115824Y426720D01*
X115824Y431292D01*
X115824Y225552D02*
X114738Y225322D01*
X115824Y431292D02*
X114738Y431903D01*
X124968Y417576D02*
X102108Y394716D01*
X101984Y394335D01*
X121440Y408967D02*
X121440Y413994D01*
X121440Y408967D02*
X124995Y405412D01*
X124968Y417522D02*
X124968Y417576D01*
X124968Y417522D02*
X121440Y413994D01*
X124995Y405412D02*
X136786Y405412D01*
X149352Y392846D01*
X149352Y274320D01*
X100584Y370332D02*
X100584Y371856D01*
X100584Y370332D02*
X100584Y365760D01*
X100584Y371856D02*
X94488Y377952D01*
X91440Y377952D01*
X100584Y365760D02*
X101984Y365760D01*
X91440Y377952D02*
X90932Y377864D01*
X126492Y224028D02*
X137160Y224028D01*
X126492Y224028D02*
X120396Y217932D01*
X109728Y217932D01*
X106680Y220980D01*
X106680Y236220D01*
X115824Y245364D01*
X115824Y265176D01*
X91440Y289560D01*
X56388Y289560D01*
X47244Y298704D01*
X47244Y356616D01*
X56388Y365760D01*
X100584Y365760D01*
X138246Y225322D02*
X137160Y224028D01*
X101984Y365760D02*
X100584Y365760D01*
X138684Y432816D02*
X138684Y435864D01*
X146304Y443484D01*
X146304Y452628D01*
X143256Y455676D01*
X128016Y455676D01*
X105156Y374904D02*
X100584Y370332D01*
X138246Y431903D02*
X138684Y432816D01*
D21*
X128016Y455676D03*
X105156Y374904D03*
D20*
X111252Y324612D02*
X85344Y324612D01*
X60960Y348996D01*
X111252Y324612D02*
X111983Y323850D01*
X60960Y348996D02*
X60960Y350340D01*
X111252Y390144D02*
X111252Y393192D01*
X111252Y390144D02*
X105156Y384048D01*
X111252Y393192D02*
X112134Y394335D01*
D21*
X105156Y384048D03*
D20*
X111252Y365760D02*
X105156Y359664D01*
X67056Y359664D01*
X65532Y361188D01*
X56388Y361188D01*
X50292Y355092D01*
X50292Y336804D01*
X60960Y326136D01*
X111252Y365760D02*
X112134Y365760D01*
X60960Y326136D02*
X60960Y324940D01*
X77724Y307848D02*
X111252Y307848D01*
X77724Y307848D02*
X60960Y324612D01*
X111252Y307848D02*
X111983Y307340D01*
X60960Y324612D02*
X60960Y324940D01*
X138684Y208788D02*
X138684Y182880D01*
X144780Y176784D01*
X144780Y114300D01*
X123444Y92964D01*
X138684Y208788D02*
X138246Y209018D01*
X123444Y92964D02*
X123190Y92710D01*
X126492Y88392D02*
X126492Y64008D01*
X126492Y88392D02*
X123444Y91440D01*
X126492Y64008D02*
X126656Y62600D01*
X123444Y91440D02*
X123190Y92710D01*
X114300Y149352D02*
X114300Y208788D01*
X114300Y149352D02*
X86868Y121920D01*
X86868Y103632D01*
X97536Y92964D01*
X114300Y208788D02*
X114738Y209018D01*
X97536Y92964D02*
X97790Y92710D01*
X105156Y85344D02*
X105156Y64008D01*
X105156Y85344D02*
X99060Y91440D01*
X105156Y64008D02*
X106656Y62600D01*
X99060Y91440D02*
X97790Y92710D01*
X188976Y614172D02*
X222504Y614172D01*
X188976Y614172D02*
X181356Y614172D01*
X222504Y614172D02*
X228600Y608076D01*
X228600Y574548D01*
X239268Y563880D01*
X243840Y563880D01*
X259080Y548640D01*
X259080Y345948D01*
X239268Y326136D01*
X180130Y612775D02*
X181356Y614172D01*
X239268Y326136D02*
X238760Y324940D01*
X167640Y539496D02*
X167640Y542544D01*
X167640Y539496D02*
X161544Y533400D01*
X161544Y515112D01*
X166116Y510540D01*
X172212Y510540D01*
X178308Y516636D01*
X167640Y542544D02*
X167903Y543560D01*
D21*
X178308Y516636D03*
X188976Y614172D03*
D20*
X179832Y585216D02*
X179832Y551688D01*
X175260Y547116D01*
X175260Y533400D01*
X169164Y527304D01*
X179832Y585216D02*
X180130Y585470D01*
X169164Y527304D02*
X167942Y527050D01*
X169164Y525780D02*
X169164Y516636D01*
X222504Y463296D02*
X222504Y454152D01*
X239268Y437388D01*
X242316Y437388D01*
X252984Y426720D01*
X252984Y364236D01*
X239268Y350520D01*
X169164Y525780D02*
X167942Y527050D01*
X238760Y350340D02*
X239268Y350520D01*
D21*
X169164Y516636D03*
X222504Y463296D03*
D20*
X158496Y513588D02*
X158496Y583692D01*
X158496Y591312D01*
X158496Y513588D02*
X164592Y507492D01*
X199644Y507492D01*
X230124Y537972D01*
X243840Y537972D01*
X249936Y531876D01*
X249936Y513588D01*
X239268Y502920D01*
X159512Y591303D02*
X158496Y591312D01*
X238760Y502740D02*
X239268Y502920D01*
X161544Y614172D02*
X161544Y644652D01*
X161754Y645898D01*
D21*
X161544Y614172D03*
X158496Y583692D03*
D20*
X185928Y208788D02*
X185928Y185928D01*
X196596Y175260D01*
X196596Y128016D01*
X190500Y121920D01*
X190500Y103632D01*
X196596Y97536D02*
X201168Y92964D01*
X196596Y97536D02*
X190500Y103632D01*
X185928Y208788D02*
X185262Y209018D01*
X201168Y92964D02*
X201930Y92710D01*
X147828Y68580D02*
X147828Y64008D01*
X147828Y68580D02*
X163068Y83820D01*
X170688Y83820D01*
X172212Y82296D01*
X181356Y82296D01*
X196596Y97536D01*
X147828Y64008D02*
X146656Y62600D01*
X196596Y97536D02*
X201930Y92710D01*
X169164Y606552D02*
X169164Y612648D01*
X169164Y606552D02*
X164592Y601980D01*
X160020Y601980D01*
X169164Y612648D02*
X169980Y612775D01*
X160020Y601980D02*
X159512Y601306D01*
X163068Y243840D02*
X163068Y225552D01*
X163068Y243840D02*
X233172Y313944D01*
X242316Y313944D01*
X262128Y333756D01*
X262128Y595884D01*
X239268Y618744D01*
X211836Y618744D01*
X193548Y637032D02*
X185928Y644652D01*
X193548Y637032D02*
X211836Y618744D01*
X163068Y225552D02*
X161754Y225322D01*
X185928Y644652D02*
X185262Y645898D01*
X193548Y637032D02*
X170688Y614172D01*
X169980Y612775D01*
X169164Y591312D02*
X169164Y586740D01*
X169164Y591312D02*
X164592Y595884D01*
X160020Y595884D01*
X169164Y586740D02*
X169980Y585470D01*
X160020Y595884D02*
X159512Y596304D01*
X185928Y224028D02*
X198120Y224028D01*
X239268Y234696D02*
X272796Y268224D01*
X272796Y560832D01*
X185262Y225322D02*
X185928Y224028D01*
X170688Y576072D02*
X170688Y585216D01*
X176784Y637032D02*
X176784Y650748D01*
X178308Y652272D01*
X201168Y652272D01*
X207264Y646176D01*
X170688Y585216D02*
X169980Y585470D01*
X207264Y646176D02*
X208771Y645898D01*
D21*
X198120Y224028D03*
X239268Y234696D03*
X272796Y560832D03*
X226973Y636120D03*
X170688Y576072D03*
X176784Y637032D03*
D20*
X208771Y645898D02*
X218549Y636120D01*
X226973Y636120D01*
X217932Y396240D02*
X181356Y396240D01*
X217932Y396240D02*
X237744Y376428D01*
X181356Y396240D02*
X180130Y394970D01*
X237744Y376428D02*
X238760Y375740D01*
X169164Y330708D02*
X169164Y324612D01*
X169164Y330708D02*
X173736Y335280D01*
X169164Y324612D02*
X167942Y323850D01*
D21*
X173736Y335280D03*
D20*
X179832Y332232D02*
X179832Y355092D01*
X179832Y365760D01*
X179832Y332232D02*
X175260Y327660D01*
X175260Y313944D01*
X169164Y307848D01*
X179832Y365760D02*
X180130Y367030D01*
X169164Y307848D02*
X167942Y307340D01*
X179832Y355092D02*
X190500Y355092D01*
D21*
X190500Y355092D03*
D20*
X163068Y449580D02*
X163068Y466344D01*
X224028Y527304D01*
X237744Y527304D01*
X163068Y449580D02*
X161754Y448207D01*
X237744Y527304D02*
X238760Y528140D01*
X160020Y373380D02*
X160020Y367284D01*
X161544Y365760D01*
X160020Y373380D02*
X159512Y373498D01*
D21*
X161544Y365760D03*
D20*
X169164Y388620D02*
X169164Y394716D01*
X166116Y385572D02*
X164592Y384048D01*
X166116Y385572D02*
X169164Y388620D01*
X164592Y384048D02*
X160020Y384048D01*
X169164Y394716D02*
X169980Y394970D01*
X160020Y384048D02*
X159512Y383501D01*
X207264Y224028D02*
X201168Y217932D01*
X175260Y217932D01*
X169164Y382524D02*
X166116Y385572D01*
X208771Y225322D02*
X207264Y224028D01*
X184404Y432816D02*
X184404Y435864D01*
X176784Y443484D01*
X176784Y457200D01*
X184404Y432816D02*
X185262Y431903D01*
D21*
X175260Y217932D03*
X169164Y382524D03*
X176784Y457200D03*
D20*
X169164Y373380D02*
X169164Y367284D01*
X169164Y373380D02*
X164592Y377952D01*
X160020Y377952D01*
X169164Y367284D02*
X169980Y367030D01*
X160020Y377952D02*
X159512Y378499D01*
X220980Y225552D02*
X231648Y225552D01*
X220980Y225552D02*
X214884Y231648D01*
X178308Y231648D01*
X169164Y222504D01*
X169164Y219456D01*
X167640Y217932D01*
X156972Y217932D01*
X153924Y220980D01*
X153924Y330708D02*
X153924Y348996D01*
X153924Y330708D02*
X153924Y220980D01*
X153924Y348996D02*
X170688Y365760D01*
X231648Y225552D02*
X232279Y225322D01*
X170688Y365760D02*
X169980Y367030D01*
X207264Y432816D02*
X207264Y437388D01*
X193548Y451104D01*
X193548Y452628D01*
X182880Y463296D01*
X169164Y463296D01*
X155448Y330708D02*
X153924Y330708D01*
X208771Y431903D02*
X207264Y432816D01*
D21*
X169164Y463296D03*
X155448Y330708D03*
D20*
X163068Y208788D02*
X163068Y184404D01*
X170688Y176784D01*
X170688Y126492D01*
X166116Y121920D01*
X166116Y102108D01*
X167640Y100584D02*
X175260Y92964D01*
X167640Y100584D02*
X166116Y102108D01*
X163068Y208788D02*
X161754Y209018D01*
X175260Y92964D02*
X176530Y92710D01*
X137160Y70104D02*
X137160Y64008D01*
X137160Y70104D02*
X167640Y100584D01*
X137160Y64008D02*
X136656Y62600D01*
X208788Y188976D02*
X208788Y208788D01*
X208788Y188976D02*
X225552Y172212D01*
X225552Y111252D01*
X243840Y92964D01*
X254508Y92964D01*
X208788Y208788D02*
X208771Y209018D01*
X254508Y92964D02*
X255270Y92710D01*
X167640Y77724D02*
X167640Y64008D01*
X166656Y62600D01*
D21*
X167640Y77724D03*
D20*
X233172Y188976D02*
X233172Y208788D01*
X233172Y188976D02*
X251460Y170688D01*
X251460Y137160D01*
X265176Y123444D01*
X265176Y109728D01*
X263652Y108204D01*
X233172Y208788D02*
X232279Y209018D01*
X198120Y62484D02*
X198120Y56388D01*
X204216Y50292D01*
X249936Y50292D01*
X280416Y80772D01*
X280416Y91440D01*
X198120Y62484D02*
X196656Y62600D01*
X280416Y91440D02*
X280670Y92710D01*
D21*
X263652Y108204D03*
D20*
X269748Y86868D02*
X246888Y64008D01*
X269748Y86868D02*
X269748Y163068D01*
X262128Y170688D01*
X246888Y64008D02*
X246656Y62600D01*
X262128Y170688D02*
X261620Y171450D01*
X67056Y62484D02*
X67056Y56388D01*
X74676Y48768D01*
X234696Y111252D02*
X234696Y169164D01*
X236220Y170688D01*
X67056Y62484D02*
X66656Y62600D01*
X236220Y170688D02*
X236220Y171450D01*
D21*
X74676Y48768D03*
X234696Y111252D03*
D20*
X56388Y70104D02*
X56388Y64008D01*
X56388Y70104D02*
X50292Y76200D01*
X213360Y105156D02*
X213360Y169164D01*
X211836Y170688D01*
X56388Y64008D02*
X56656Y62600D01*
X210820Y171450D02*
X211836Y170688D01*
D21*
X50292Y76200D03*
X213360Y105156D03*
D20*
X126492Y600456D02*
X123444Y600456D01*
X126492Y600456D02*
X132588Y594360D01*
X132588Y547116D01*
X129540Y544068D01*
X123444Y600456D02*
X122428Y600671D01*
X129540Y544068D02*
X128248Y543560D01*
X111252Y562356D02*
X111252Y583692D01*
X111252Y562356D02*
X105156Y556260D01*
X105156Y533400D01*
X111252Y527304D01*
X111252Y583692D02*
X112134Y584200D01*
X111252Y527304D02*
X111983Y527050D01*
X105156Y533400D02*
X80772Y533400D01*
X60960Y513588D01*
X56388Y513588D01*
X50292Y507492D01*
X50292Y387096D01*
X60960Y376428D01*
X60960Y375740D01*
X123444Y382524D02*
X126492Y382524D01*
X132588Y376428D01*
X132588Y327660D01*
X129540Y324612D01*
X123444Y382524D02*
X122428Y382866D01*
X129540Y324612D02*
X128287Y323850D01*
X192024Y382524D02*
X196596Y382524D01*
X198120Y381000D01*
X198120Y365760D01*
X196596Y364236D01*
X196596Y336804D01*
X184404Y324612D01*
X192024Y382524D02*
X191008Y383501D01*
X184404Y324612D02*
X184246Y323850D01*
X182880Y377952D02*
X190500Y377952D01*
X182880Y377952D02*
X181356Y376428D01*
X161544Y342900D02*
X161544Y300228D01*
X163068Y298704D01*
X175260Y298704D01*
X182880Y306324D01*
X190500Y377952D02*
X191008Y378499D01*
X184246Y307340D02*
X182880Y306324D01*
D21*
X181356Y376428D03*
X161544Y342900D03*
D20*
X192024Y600456D02*
X196596Y600456D01*
X198120Y598932D01*
X198120Y557784D01*
X184404Y544068D01*
X192024Y600456D02*
X191008Y601306D01*
X184404Y544068D02*
X184207Y543560D01*
X190500Y597408D02*
X172212Y597408D01*
X170688Y598932D01*
X196596Y539496D02*
X184404Y527304D01*
X191008Y596304D02*
X190500Y597408D01*
X184404Y527304D02*
X184246Y527050D01*
D21*
X170688Y598932D03*
X196596Y539496D03*
M02*
