G04 EAGLE Gerber RS-274X export*
G75*
%MOMM*%
%FSLAX34Y34*%
%LPD*%
%INTop Copper*%
%IPPOS*%
%AMOC8*
5,1,8,0,0,1.08239X$1,22.5*%
G01*
G04 Define Apertures*
%ADD10C,1.270000*%
%ADD11P,1.64956X8X22.5*%
%ADD12C,1.508000*%
%ADD13R,3.500000X1.700000*%
%ADD14C,0.152400*%
%ADD15C,0.756400*%
G36*
X114899Y110550D02*
X114602Y110490D01*
X109467Y110490D01*
X109181Y110546D01*
X108928Y110713D01*
X106665Y112976D01*
X106507Y113206D01*
X106442Y113503D01*
X106498Y113801D01*
X106665Y114054D01*
X106934Y114322D01*
X106934Y121898D01*
X101578Y127254D01*
X94002Y127254D01*
X93733Y126985D01*
X93503Y126827D01*
X93207Y126762D01*
X92909Y126818D01*
X92656Y126985D01*
X75661Y143980D01*
X75498Y144221D01*
X75438Y144519D01*
X75438Y153359D01*
X75491Y153639D01*
X75657Y153894D01*
X75908Y154063D01*
X77240Y154615D01*
X79455Y156830D01*
X80654Y159724D01*
X80654Y162856D01*
X79455Y165750D01*
X77240Y167965D01*
X74346Y169164D01*
X71214Y169164D01*
X68320Y167965D01*
X66105Y165750D01*
X64906Y162856D01*
X64906Y159724D01*
X66105Y156830D01*
X68320Y154615D01*
X70396Y153755D01*
X70634Y153598D01*
X70806Y153348D01*
X70866Y153051D01*
X70866Y146304D01*
X70815Y146029D01*
X70651Y145774D01*
X70401Y145602D01*
X70104Y145542D01*
X53917Y145542D01*
X29756Y121381D01*
X29515Y121218D01*
X29217Y121158D01*
X28956Y121158D01*
X28681Y121209D01*
X28426Y121373D01*
X28254Y121623D01*
X28200Y121892D01*
X22838Y127254D01*
X15262Y127254D01*
X11461Y123452D01*
X11241Y123299D01*
X10946Y123230D01*
X10647Y123280D01*
X10392Y123444D01*
X10220Y123694D01*
X10160Y123991D01*
X10160Y197169D01*
X10209Y197438D01*
X10370Y197695D01*
X10619Y197868D01*
X10916Y197931D01*
X11214Y197873D01*
X19333Y194510D01*
X28347Y194510D01*
X36676Y197960D01*
X43050Y204334D01*
X46500Y212663D01*
X46500Y221677D01*
X43050Y230006D01*
X36676Y236380D01*
X34576Y237250D01*
X34355Y237390D01*
X34176Y237635D01*
X34106Y237930D01*
X34157Y238229D01*
X34320Y238484D01*
X34570Y238656D01*
X34868Y238716D01*
X67991Y238716D01*
X68884Y239609D01*
X68884Y244033D01*
X68942Y244325D01*
X70024Y246937D01*
X70024Y248359D01*
X70069Y248616D01*
X70226Y248875D01*
X70472Y249053D01*
X70768Y249120D01*
X71066Y249067D01*
X71321Y248902D01*
X71490Y248650D01*
X74074Y242413D01*
X80307Y236179D01*
X88452Y232805D01*
X97268Y232805D01*
X105413Y236179D01*
X111646Y242413D01*
X115020Y250557D01*
X115020Y259373D01*
X111646Y267518D01*
X105413Y273752D01*
X97268Y277125D01*
X88452Y277125D01*
X80307Y273752D01*
X74074Y267518D01*
X70700Y259373D01*
X70700Y252742D01*
X70655Y252484D01*
X70498Y252225D01*
X70252Y252047D01*
X69956Y251980D01*
X69658Y252033D01*
X69404Y252199D01*
X69234Y252450D01*
X68942Y253155D01*
X68884Y253447D01*
X68884Y257871D01*
X67991Y258764D01*
X31729Y258764D01*
X30836Y257871D01*
X30836Y239940D01*
X30787Y239671D01*
X30626Y239414D01*
X30377Y239240D01*
X30080Y239178D01*
X29782Y239236D01*
X28347Y239830D01*
X19333Y239830D01*
X11214Y236467D01*
X10946Y236409D01*
X10647Y236460D01*
X10392Y236624D01*
X10220Y236874D01*
X10160Y237171D01*
X10160Y739078D01*
X10211Y739353D01*
X10375Y739608D01*
X10625Y739780D01*
X10922Y739840D01*
X30074Y739840D01*
X30349Y739789D01*
X30604Y739625D01*
X30776Y739375D01*
X30836Y739078D01*
X30836Y722209D01*
X31729Y721316D01*
X67991Y721316D01*
X68884Y722209D01*
X68884Y726633D01*
X68942Y726925D01*
X69234Y727630D01*
X69374Y727851D01*
X69619Y728030D01*
X69914Y728100D01*
X70213Y728049D01*
X70468Y727886D01*
X70640Y727635D01*
X70700Y727338D01*
X70700Y721697D01*
X74074Y713553D01*
X80307Y707319D01*
X88452Y703945D01*
X97268Y703945D01*
X105413Y707319D01*
X110924Y712830D01*
X111144Y712983D01*
X111439Y713053D01*
X111738Y713002D01*
X111993Y712839D01*
X112165Y712589D01*
X112225Y712292D01*
X112225Y691467D01*
X112234Y691412D01*
X112237Y691411D01*
X112277Y691405D01*
X187433Y691405D01*
X187488Y691414D01*
X187489Y691417D01*
X187495Y691457D01*
X187495Y712292D01*
X187542Y712555D01*
X187701Y712813D01*
X187949Y712988D01*
X188245Y713054D01*
X188543Y712998D01*
X188796Y712830D01*
X194307Y707319D01*
X202452Y703945D01*
X211268Y703945D01*
X219413Y707319D01*
X225646Y713553D01*
X229020Y721697D01*
X229020Y727338D01*
X229065Y727596D01*
X229222Y727855D01*
X229468Y728033D01*
X229764Y728100D01*
X230062Y728047D01*
X230317Y727881D01*
X230486Y727630D01*
X230778Y726925D01*
X230836Y726633D01*
X230836Y722209D01*
X231729Y721316D01*
X267991Y721316D01*
X268884Y722209D01*
X268884Y739078D01*
X268935Y739353D01*
X269099Y739608D01*
X269349Y739780D01*
X269646Y739840D01*
X289078Y739840D01*
X289353Y739789D01*
X289608Y739625D01*
X289780Y739375D01*
X289840Y739078D01*
X289840Y237867D01*
X289791Y237598D01*
X289630Y237341D01*
X289381Y237168D01*
X289084Y237105D01*
X288786Y237163D01*
X282347Y239830D01*
X273333Y239830D01*
X269655Y238307D01*
X269400Y238250D01*
X269100Y238296D01*
X268842Y238455D01*
X268667Y238702D01*
X268602Y238999D01*
X268657Y239297D01*
X268825Y239550D01*
X268884Y239609D01*
X268884Y257871D01*
X267991Y258764D01*
X231729Y258764D01*
X230836Y257871D01*
X230836Y253447D01*
X230778Y253155D01*
X230496Y252474D01*
X230356Y252253D01*
X230111Y252074D01*
X229816Y252004D01*
X229517Y252055D01*
X229262Y252219D01*
X229090Y252469D01*
X229030Y252766D01*
X229030Y259373D01*
X225656Y267518D01*
X219423Y273752D01*
X211278Y277125D01*
X202462Y277125D01*
X194317Y273752D01*
X188084Y267518D01*
X184710Y259373D01*
X184710Y250557D01*
X185924Y247626D01*
X185981Y247371D01*
X185935Y247071D01*
X185776Y246813D01*
X185529Y246637D01*
X185232Y246572D01*
X184934Y246628D01*
X184681Y246795D01*
X167101Y264376D01*
X166938Y264617D01*
X166878Y264915D01*
X166878Y312983D01*
X166925Y313246D01*
X167084Y313504D01*
X167332Y313679D01*
X167628Y313744D01*
X167926Y313689D01*
X168179Y313521D01*
X168490Y313210D01*
X169453Y313210D01*
X169717Y313163D01*
X169975Y313004D01*
X170150Y312756D01*
X170215Y312460D01*
X170160Y312162D01*
X169992Y311909D01*
X169926Y311843D01*
X169926Y287089D01*
X172779Y284236D01*
X172942Y283995D01*
X173002Y283697D01*
X173002Y279742D01*
X176110Y276634D01*
X180506Y276634D01*
X183614Y279742D01*
X183614Y284138D01*
X181779Y285973D01*
X181621Y286204D01*
X181556Y286500D01*
X181611Y286798D01*
X181779Y287051D01*
X183303Y288575D01*
X183544Y288738D01*
X183841Y288798D01*
X227337Y288798D01*
X227623Y288742D01*
X227876Y288575D01*
X230701Y285750D01*
X269171Y285750D01*
X272034Y288613D01*
X272034Y336227D01*
X268507Y339754D01*
X268349Y339984D01*
X268284Y340281D01*
X268339Y340579D01*
X268507Y340832D01*
X268884Y341209D01*
X268884Y359471D01*
X268327Y360028D01*
X268169Y360259D01*
X268104Y360555D01*
X268159Y360853D01*
X268327Y361106D01*
X272034Y364813D01*
X272034Y438335D01*
X270695Y439674D01*
X235959Y439674D01*
X235673Y439730D01*
X235420Y439897D01*
X234702Y440615D01*
X234549Y440835D01*
X234479Y441130D01*
X234530Y441429D01*
X234693Y441684D01*
X234943Y441856D01*
X235241Y441916D01*
X267991Y441916D01*
X268884Y442809D01*
X268884Y461071D01*
X267991Y461964D01*
X231729Y461964D01*
X230836Y461071D01*
X230836Y456647D01*
X230778Y456355D01*
X230344Y455306D01*
X230195Y455077D01*
X229948Y454901D01*
X229652Y454836D01*
X229354Y454892D01*
X229101Y455059D01*
X227750Y456410D01*
X223795Y456410D01*
X223509Y456466D01*
X223256Y456633D01*
X199105Y480784D01*
X198942Y481025D01*
X198882Y481323D01*
X198882Y527867D01*
X198938Y528153D01*
X199105Y528405D01*
X201902Y531202D01*
X201902Y535598D01*
X198794Y538706D01*
X194398Y538706D01*
X191290Y535598D01*
X191290Y531202D01*
X194087Y528405D01*
X194250Y528164D01*
X194310Y527867D01*
X194310Y479113D01*
X220023Y453400D01*
X220186Y453159D01*
X220246Y452861D01*
X220246Y448906D01*
X223043Y446109D01*
X223206Y445868D01*
X223262Y445589D01*
X230751Y438100D01*
X230909Y437870D01*
X230974Y437574D01*
X230918Y437276D01*
X230751Y437023D01*
X229678Y435950D01*
X229614Y435846D01*
X229366Y435671D01*
X229070Y435606D01*
X228772Y435661D01*
X228519Y435829D01*
X226226Y438122D01*
X221830Y438122D01*
X219033Y435325D01*
X218792Y435162D01*
X218495Y435102D01*
X211575Y435102D01*
X211289Y435158D01*
X211036Y435325D01*
X167101Y479260D01*
X166938Y479501D01*
X166878Y479799D01*
X166878Y508055D01*
X166925Y508318D01*
X167084Y508576D01*
X167332Y508751D01*
X167628Y508816D01*
X167926Y508761D01*
X168179Y508593D01*
X168490Y508282D01*
X172886Y508282D01*
X175994Y511390D01*
X175994Y515345D01*
X176050Y515631D01*
X176217Y515884D01*
X183642Y523309D01*
X183642Y556823D01*
X183698Y557109D01*
X183865Y557361D01*
X186662Y560158D01*
X186662Y564554D01*
X183554Y567662D01*
X179158Y567662D01*
X176561Y565065D01*
X176330Y564907D01*
X176034Y564842D01*
X175736Y564897D01*
X175483Y565065D01*
X173547Y567001D01*
X173389Y567231D01*
X173324Y567527D01*
X173380Y567825D01*
X173547Y568078D01*
X182369Y576900D01*
X182589Y577053D01*
X182884Y577123D01*
X183183Y577072D01*
X183438Y576909D01*
X183610Y576659D01*
X183670Y576361D01*
X183670Y575398D01*
X186778Y572290D01*
X190733Y572290D01*
X191019Y572234D01*
X191272Y572067D01*
X197163Y566176D01*
X197326Y565935D01*
X197386Y565637D01*
X197386Y561682D01*
X200494Y558574D01*
X204890Y558574D01*
X207998Y561682D01*
X207998Y566078D01*
X204890Y569186D01*
X200935Y569186D01*
X200649Y569242D01*
X200396Y569409D01*
X194505Y575300D01*
X194342Y575541D01*
X194282Y575839D01*
X194282Y579794D01*
X191174Y582902D01*
X190211Y582902D01*
X189947Y582949D01*
X189689Y583108D01*
X189514Y583356D01*
X189449Y583652D01*
X189504Y583950D01*
X189672Y584203D01*
X203066Y597597D01*
X203296Y597755D01*
X203592Y597820D01*
X203891Y597764D01*
X204143Y597597D01*
X206590Y595150D01*
X210986Y595150D01*
X214094Y598258D01*
X214094Y602654D01*
X210986Y605762D01*
X208499Y605762D01*
X208235Y605809D01*
X207977Y605968D01*
X207802Y606216D01*
X207737Y606512D01*
X207792Y606810D01*
X207960Y607063D01*
X227800Y626903D01*
X228041Y627066D01*
X228339Y627126D01*
X229523Y627126D01*
X229803Y627073D01*
X230057Y626907D01*
X230227Y626656D01*
X230778Y625325D01*
X230836Y625033D01*
X230836Y620609D01*
X231729Y619716D01*
X267991Y619716D01*
X268884Y620609D01*
X268884Y638871D01*
X267991Y639764D01*
X231729Y639764D01*
X230836Y638871D01*
X230836Y634447D01*
X230778Y634155D01*
X229955Y632168D01*
X229798Y631930D01*
X229548Y631758D01*
X229251Y631698D01*
X226129Y631698D01*
X174536Y580105D01*
X174295Y579942D01*
X173997Y579882D01*
X165553Y579882D01*
X165267Y579938D01*
X165015Y580105D01*
X162218Y582902D01*
X157822Y582902D01*
X155025Y580105D01*
X154784Y579942D01*
X154487Y579882D01*
X87829Y579882D01*
X87543Y579938D01*
X87291Y580105D01*
X84494Y582902D01*
X80098Y582902D01*
X76990Y579794D01*
X76990Y575398D01*
X80098Y572290D01*
X84494Y572290D01*
X87291Y575087D01*
X87532Y575250D01*
X87829Y575310D01*
X117911Y575310D01*
X118174Y575263D01*
X118432Y575104D01*
X118607Y574856D01*
X118672Y574560D01*
X118617Y574262D01*
X118449Y574009D01*
X116614Y572174D01*
X116614Y567778D01*
X117537Y566855D01*
X117695Y566625D01*
X117760Y566329D01*
X117704Y566031D01*
X117537Y565778D01*
X113538Y561779D01*
X113538Y519121D01*
X113482Y518835D01*
X113315Y518583D01*
X110518Y515786D01*
X110518Y511390D01*
X113626Y508282D01*
X118022Y508282D01*
X119095Y509355D01*
X119326Y509513D01*
X119622Y509578D01*
X119920Y509523D01*
X120173Y509355D01*
X122770Y506758D01*
X127166Y506758D01*
X130274Y509866D01*
X130274Y514262D01*
X127477Y517059D01*
X127314Y517300D01*
X127254Y517597D01*
X127254Y555299D01*
X127310Y555585D01*
X127477Y555837D01*
X130274Y558634D01*
X130274Y563030D01*
X127049Y566255D01*
X126904Y566344D01*
X126729Y566592D01*
X126664Y566888D01*
X126719Y567186D01*
X126887Y567439D01*
X127226Y567778D01*
X127226Y572174D01*
X125391Y574009D01*
X125238Y574229D01*
X125168Y574524D01*
X125219Y574823D01*
X125382Y575078D01*
X125632Y575250D01*
X125929Y575310D01*
X154487Y575310D01*
X154773Y575254D01*
X155025Y575087D01*
X157822Y572290D01*
X161544Y572290D01*
X161819Y572239D01*
X162074Y572075D01*
X162246Y571825D01*
X162306Y571528D01*
X162306Y477589D01*
X206540Y433355D01*
X206698Y433124D01*
X206763Y432828D01*
X206708Y432530D01*
X206540Y432277D01*
X160792Y386529D01*
X160551Y386366D01*
X160253Y386306D01*
X156298Y386306D01*
X153501Y383509D01*
X153260Y383346D01*
X152963Y383286D01*
X116785Y383286D01*
X116499Y383342D01*
X116247Y383509D01*
X113450Y386306D01*
X109054Y386306D01*
X106257Y383509D01*
X106016Y383346D01*
X105719Y383286D01*
X89353Y383286D01*
X89067Y383342D01*
X88815Y383509D01*
X86018Y386306D01*
X81622Y386306D01*
X78514Y383198D01*
X78514Y378802D01*
X81622Y375694D01*
X86018Y375694D01*
X88815Y378491D01*
X89056Y378654D01*
X89353Y378714D01*
X105719Y378714D01*
X106005Y378658D01*
X106257Y378491D01*
X109054Y375694D01*
X113450Y375694D01*
X116247Y378491D01*
X116488Y378654D01*
X116785Y378714D01*
X152963Y378714D01*
X153249Y378658D01*
X153501Y378491D01*
X155987Y376005D01*
X156150Y375764D01*
X156210Y375467D01*
X156210Y264229D01*
X233711Y186728D01*
X233874Y186487D01*
X233934Y186189D01*
X233934Y181991D01*
X233883Y181716D01*
X233719Y181461D01*
X233469Y181289D01*
X233172Y181229D01*
X232432Y181229D01*
X227076Y175873D01*
X227076Y168297D01*
X228297Y167076D01*
X228455Y166846D01*
X228521Y166549D01*
X228465Y166251D01*
X228297Y165998D01*
X223266Y160967D01*
X223266Y159457D01*
X223210Y159171D01*
X223043Y158919D01*
X220246Y156122D01*
X220246Y151726D01*
X220557Y151415D01*
X220710Y151195D01*
X220780Y150900D01*
X220729Y150601D01*
X220566Y150346D01*
X220316Y150174D01*
X220019Y150114D01*
X210051Y150114D01*
X209765Y150170D01*
X209512Y150337D01*
X193597Y166252D01*
X193439Y166483D01*
X193373Y166779D01*
X193429Y167077D01*
X193597Y167330D01*
X194564Y168297D01*
X194564Y175873D01*
X189208Y181229D01*
X181632Y181229D01*
X176276Y175873D01*
X176276Y168297D01*
X181632Y162941D01*
X189208Y162941D01*
X189286Y163019D01*
X189517Y163177D01*
X189813Y163243D01*
X190111Y163187D01*
X190364Y163019D01*
X207841Y145542D01*
X229547Y145542D01*
X249174Y165169D01*
X249174Y170949D01*
X249230Y171235D01*
X249397Y171488D01*
X251175Y173266D01*
X251395Y173419D01*
X251690Y173489D01*
X251989Y173438D01*
X252244Y173275D01*
X252416Y173025D01*
X252476Y172727D01*
X252476Y168297D01*
X253523Y167251D01*
X253686Y167009D01*
X253746Y166712D01*
X253746Y128016D01*
X253695Y127741D01*
X253531Y127486D01*
X253281Y127314D01*
X252984Y127254D01*
X251482Y127254D01*
X246126Y121898D01*
X246126Y114322D01*
X246649Y113799D01*
X246807Y113569D01*
X246872Y113273D01*
X246816Y112975D01*
X246649Y112722D01*
X244640Y110713D01*
X244399Y110550D01*
X244101Y110490D01*
X210518Y110490D01*
X210255Y110537D01*
X209997Y110696D01*
X209821Y110944D01*
X209756Y111240D01*
X209812Y111538D01*
X209979Y111791D01*
X212090Y113902D01*
X212090Y117348D01*
X191389Y117348D01*
X191389Y117457D01*
X191316Y117406D01*
X191020Y117341D01*
X190722Y117396D01*
X190469Y117564D01*
X188399Y119634D01*
X186436Y119634D01*
X186161Y119685D01*
X185906Y119849D01*
X185734Y120099D01*
X185674Y120396D01*
X185674Y121898D01*
X180318Y127254D01*
X172742Y127254D01*
X167386Y121898D01*
X167386Y120396D01*
X167335Y120121D01*
X167171Y119866D01*
X166921Y119694D01*
X166624Y119634D01*
X136213Y119634D01*
X134651Y118072D01*
X134431Y117919D01*
X134136Y117849D01*
X133837Y117900D01*
X133731Y117968D01*
X133731Y117348D01*
X113030Y117348D01*
X113030Y113902D01*
X115141Y111791D01*
X115294Y111571D01*
X115364Y111276D01*
X115313Y110977D01*
X115149Y110722D01*
X114899Y110550D01*
G37*
%LPC*%
G36*
X231729Y695916D02*
X267991Y695916D01*
X268884Y696809D01*
X268884Y715071D01*
X267991Y715964D01*
X231729Y715964D01*
X230836Y715071D01*
X230836Y710647D01*
X230778Y710355D01*
X229696Y707743D01*
X229696Y704137D01*
X230778Y701525D01*
X230836Y701233D01*
X230836Y696809D01*
X231729Y695916D01*
G37*
G36*
X31729Y695916D02*
X67991Y695916D01*
X68884Y696809D01*
X68884Y701233D01*
X68942Y701525D01*
X70024Y704137D01*
X70024Y707743D01*
X68942Y710355D01*
X68884Y710647D01*
X68884Y715071D01*
X67991Y715964D01*
X31729Y715964D01*
X30836Y715071D01*
X30836Y696809D01*
X31729Y695916D01*
G37*
G36*
X250622Y681302D02*
X269900Y681302D01*
X269900Y690092D01*
X268412Y691580D01*
X250622Y691580D01*
X250622Y681302D01*
G37*
G36*
X50622Y669500D02*
X68412Y669500D01*
X69900Y670988D01*
X69900Y675631D01*
X69958Y675923D01*
X71040Y678535D01*
X71040Y679778D01*
X60198Y679778D01*
X60198Y681302D01*
X71040Y681302D01*
X71040Y682545D01*
X69958Y685157D01*
X69900Y685449D01*
X69900Y690092D01*
X68412Y691580D01*
X50622Y691580D01*
X50622Y669500D01*
G37*
G36*
X231308Y669500D02*
X249098Y669500D01*
X249098Y691580D01*
X231308Y691580D01*
X229820Y690092D01*
X229820Y685449D01*
X229762Y685157D01*
X228680Y682545D01*
X228680Y681302D01*
X239522Y681302D01*
X239522Y679778D01*
X228680Y679778D01*
X228680Y678535D01*
X229762Y675923D01*
X229820Y675631D01*
X229820Y670988D01*
X231308Y669500D01*
G37*
G36*
X29820Y681302D02*
X49098Y681302D01*
X49098Y691580D01*
X31308Y691580D01*
X29820Y690092D01*
X29820Y681302D01*
G37*
G36*
X250622Y669500D02*
X268412Y669500D01*
X269900Y670988D01*
X269900Y679778D01*
X250622Y679778D01*
X250622Y669500D01*
G37*
G36*
X31308Y669500D02*
X49098Y669500D01*
X49098Y679778D01*
X29820Y679778D01*
X29820Y670988D01*
X31308Y669500D01*
G37*
G36*
X31729Y645116D02*
X67991Y645116D01*
X68884Y646009D01*
X68884Y650433D01*
X68942Y650725D01*
X70024Y653337D01*
X70024Y656943D01*
X68942Y659555D01*
X68884Y659847D01*
X68884Y664271D01*
X67991Y665164D01*
X31729Y665164D01*
X30836Y664271D01*
X30836Y646009D01*
X31729Y645116D01*
G37*
G36*
X231729Y645116D02*
X267991Y645116D01*
X268884Y646009D01*
X268884Y664271D01*
X267991Y665164D01*
X231729Y665164D01*
X230836Y664271D01*
X230836Y659847D01*
X230778Y659555D01*
X229696Y656943D01*
X229696Y653337D01*
X230778Y650725D01*
X230836Y650433D01*
X230836Y646009D01*
X231729Y645116D01*
G37*
G36*
X31729Y619716D02*
X67991Y619716D01*
X68884Y620609D01*
X68884Y625033D01*
X68942Y625325D01*
X70024Y627937D01*
X70024Y631543D01*
X68942Y634155D01*
X68884Y634447D01*
X68884Y638871D01*
X67991Y639764D01*
X31729Y639764D01*
X30836Y638871D01*
X30836Y620609D01*
X31729Y619716D01*
G37*
G36*
X231729Y594316D02*
X267991Y594316D01*
X268884Y595209D01*
X268884Y613471D01*
X267991Y614364D01*
X231729Y614364D01*
X230836Y613471D01*
X230836Y609047D01*
X230778Y608755D01*
X229696Y606143D01*
X229696Y602537D01*
X230778Y599925D01*
X230836Y599633D01*
X230836Y595209D01*
X231729Y594316D01*
G37*
G36*
X31729Y594316D02*
X67991Y594316D01*
X68884Y595209D01*
X68884Y599633D01*
X68942Y599925D01*
X70024Y602537D01*
X70024Y606143D01*
X68942Y608755D01*
X68884Y609047D01*
X68884Y613471D01*
X67991Y614364D01*
X31729Y614364D01*
X30836Y613471D01*
X30836Y595209D01*
X31729Y594316D01*
G37*
G36*
X231729Y568916D02*
X267991Y568916D01*
X268884Y569809D01*
X268884Y588071D01*
X267991Y588964D01*
X231729Y588964D01*
X230836Y588071D01*
X230836Y583647D01*
X230778Y583355D01*
X229696Y580743D01*
X229696Y577137D01*
X230778Y574525D01*
X230836Y574233D01*
X230836Y569809D01*
X231729Y568916D01*
G37*
G36*
X31729Y568916D02*
X67991Y568916D01*
X68884Y569809D01*
X68884Y574233D01*
X68942Y574525D01*
X70024Y577137D01*
X70024Y580743D01*
X68942Y583355D01*
X68884Y583647D01*
X68884Y588071D01*
X67991Y588964D01*
X31729Y588964D01*
X30836Y588071D01*
X30836Y569809D01*
X31729Y568916D01*
G37*
G36*
X31729Y365716D02*
X67991Y365716D01*
X68884Y366609D01*
X68884Y371033D01*
X68942Y371325D01*
X70024Y373937D01*
X70024Y377543D01*
X68942Y380155D01*
X68884Y380447D01*
X68884Y380803D01*
X68940Y381089D01*
X69107Y381342D01*
X130292Y442527D01*
X130533Y442690D01*
X130831Y442750D01*
X134786Y442750D01*
X137894Y445858D01*
X137894Y450254D01*
X134786Y453362D01*
X130831Y453362D01*
X130545Y453418D01*
X130292Y453585D01*
X104617Y479260D01*
X104454Y479501D01*
X104394Y479799D01*
X104394Y506531D01*
X104450Y506817D01*
X104617Y507069D01*
X107414Y509866D01*
X107414Y514262D01*
X104306Y517370D01*
X103343Y517370D01*
X103079Y517417D01*
X102821Y517576D01*
X102646Y517824D01*
X102581Y518120D01*
X102636Y518418D01*
X102804Y518671D01*
X102870Y518737D01*
X102870Y556823D01*
X102926Y557109D01*
X103093Y557361D01*
X105890Y560158D01*
X105890Y564554D01*
X102782Y567662D01*
X98386Y567662D01*
X95278Y564554D01*
X95278Y560158D01*
X98075Y557361D01*
X98238Y557120D01*
X98298Y556823D01*
X98298Y520947D01*
X98242Y520661D01*
X98075Y520408D01*
X69342Y491675D01*
X69342Y487853D01*
X69295Y487590D01*
X69136Y487332D01*
X68888Y487156D01*
X68592Y487091D01*
X68294Y487147D01*
X68041Y487314D01*
X67991Y487364D01*
X31729Y487364D01*
X30836Y486471D01*
X30836Y468209D01*
X31729Y467316D01*
X67991Y467316D01*
X68041Y467366D01*
X68261Y467519D01*
X68556Y467589D01*
X68855Y467538D01*
X69110Y467374D01*
X69282Y467124D01*
X69342Y466827D01*
X69342Y462453D01*
X69295Y462190D01*
X69136Y461932D01*
X68888Y461756D01*
X68592Y461691D01*
X68294Y461747D01*
X68041Y461914D01*
X67991Y461964D01*
X31729Y461964D01*
X30836Y461071D01*
X30836Y442809D01*
X31729Y441916D01*
X67991Y441916D01*
X68041Y441966D01*
X68261Y442119D01*
X68556Y442189D01*
X68855Y442138D01*
X69110Y441974D01*
X69282Y441724D01*
X69342Y441427D01*
X69342Y438342D01*
X69291Y438067D01*
X69127Y437812D01*
X68877Y437640D01*
X68580Y437580D01*
X50622Y437580D01*
X50622Y415500D01*
X68580Y415500D01*
X68855Y415449D01*
X69110Y415285D01*
X69282Y415035D01*
X69342Y414738D01*
X69342Y414267D01*
X69286Y413981D01*
X69119Y413728D01*
X66778Y411387D01*
X66537Y411224D01*
X66239Y411164D01*
X31729Y411164D01*
X30836Y410271D01*
X30836Y392009D01*
X31729Y391116D01*
X67991Y391116D01*
X68884Y392009D01*
X68884Y396433D01*
X68942Y396725D01*
X70024Y399337D01*
X70024Y402943D01*
X68942Y405555D01*
X68884Y405847D01*
X68884Y406711D01*
X68940Y406997D01*
X69107Y407250D01*
X73914Y412057D01*
X73914Y489465D01*
X73970Y489751D01*
X74137Y490004D01*
X95501Y511368D01*
X95721Y511521D01*
X96016Y511591D01*
X96315Y511540D01*
X96570Y511377D01*
X96742Y511127D01*
X96802Y510829D01*
X96802Y509866D01*
X99599Y507069D01*
X99762Y506828D01*
X99822Y506531D01*
X99822Y477589D01*
X127059Y450352D01*
X127222Y450111D01*
X127282Y449813D01*
X127282Y446299D01*
X127226Y446013D01*
X127059Y445760D01*
X67286Y385987D01*
X67045Y385824D01*
X66747Y385764D01*
X31729Y385764D01*
X30836Y384871D01*
X30836Y366609D01*
X31729Y365716D01*
G37*
G36*
X231308Y542500D02*
X249098Y542500D01*
X249098Y564580D01*
X231308Y564580D01*
X229820Y563092D01*
X229820Y558449D01*
X229762Y558157D01*
X228680Y555545D01*
X228680Y554302D01*
X239522Y554302D01*
X239522Y552778D01*
X228680Y552778D01*
X228680Y551535D01*
X229762Y548923D01*
X229820Y548631D01*
X229820Y543988D01*
X231308Y542500D01*
G37*
G36*
X50622Y542500D02*
X68412Y542500D01*
X69900Y543988D01*
X69900Y548631D01*
X69958Y548923D01*
X71040Y551535D01*
X71040Y552778D01*
X60198Y552778D01*
X60198Y554302D01*
X71040Y554302D01*
X71040Y555545D01*
X69958Y558157D01*
X69900Y558449D01*
X69900Y563092D01*
X68412Y564580D01*
X50622Y564580D01*
X50622Y542500D01*
G37*
G36*
X250622Y554302D02*
X269900Y554302D01*
X269900Y563092D01*
X268412Y564580D01*
X250622Y564580D01*
X250622Y554302D01*
G37*
G36*
X29820Y554302D02*
X49098Y554302D01*
X49098Y564580D01*
X31308Y564580D01*
X29820Y563092D01*
X29820Y554302D01*
G37*
G36*
X250622Y542500D02*
X268412Y542500D01*
X269900Y543988D01*
X269900Y552778D01*
X250622Y552778D01*
X250622Y542500D01*
G37*
G36*
X31308Y542500D02*
X49098Y542500D01*
X49098Y552778D01*
X29820Y552778D01*
X29820Y543988D01*
X31308Y542500D01*
G37*
G36*
X231729Y518116D02*
X267991Y518116D01*
X268884Y519009D01*
X268884Y537271D01*
X267991Y538164D01*
X231729Y538164D01*
X230836Y537271D01*
X230836Y532847D01*
X230778Y532555D01*
X229696Y529943D01*
X229696Y526337D01*
X230778Y523725D01*
X230836Y523433D01*
X230836Y519009D01*
X231729Y518116D01*
G37*
G36*
X31729Y518116D02*
X67991Y518116D01*
X68884Y519009D01*
X68884Y523433D01*
X68942Y523725D01*
X70024Y526337D01*
X70024Y529943D01*
X68942Y532555D01*
X68884Y532847D01*
X68884Y537271D01*
X67991Y538164D01*
X31729Y538164D01*
X30836Y537271D01*
X30836Y519009D01*
X31729Y518116D01*
G37*
G36*
X31729Y492716D02*
X67991Y492716D01*
X68884Y493609D01*
X68884Y498033D01*
X68942Y498325D01*
X70024Y500937D01*
X70024Y504543D01*
X68942Y507155D01*
X68884Y507447D01*
X68884Y511871D01*
X67991Y512764D01*
X31729Y512764D01*
X30836Y511871D01*
X30836Y493609D01*
X31729Y492716D01*
G37*
G36*
X231729Y492716D02*
X267991Y492716D01*
X268884Y493609D01*
X268884Y511871D01*
X267991Y512764D01*
X231729Y512764D01*
X230836Y511871D01*
X230836Y507447D01*
X230778Y507155D01*
X229696Y504543D01*
X229696Y500937D01*
X230778Y498325D01*
X230836Y498033D01*
X230836Y493609D01*
X231729Y492716D01*
G37*
G36*
X231729Y467316D02*
X267991Y467316D01*
X268884Y468209D01*
X268884Y486471D01*
X267991Y487364D01*
X231729Y487364D01*
X230836Y486471D01*
X230836Y482047D01*
X230778Y481755D01*
X229696Y479143D01*
X229696Y475537D01*
X230778Y472925D01*
X230836Y472633D01*
X230836Y468209D01*
X231729Y467316D01*
G37*
G36*
X29820Y427302D02*
X49098Y427302D01*
X49098Y437580D01*
X31308Y437580D01*
X29820Y436092D01*
X29820Y427302D01*
G37*
G36*
X31308Y415500D02*
X49098Y415500D01*
X49098Y425778D01*
X29820Y425778D01*
X29820Y416988D01*
X31308Y415500D01*
G37*
G36*
X134962Y261394D02*
X139358Y261394D01*
X142466Y264502D01*
X142466Y268898D01*
X139669Y271695D01*
X139506Y271936D01*
X139446Y272233D01*
X139446Y304223D01*
X106113Y337556D01*
X105950Y337797D01*
X105890Y338095D01*
X105890Y342050D01*
X102782Y345158D01*
X100295Y345158D01*
X100031Y345205D01*
X99773Y345364D01*
X99598Y345612D01*
X99533Y345908D01*
X99588Y346206D01*
X99756Y346459D01*
X115313Y362016D01*
X115533Y362169D01*
X115828Y362239D01*
X116127Y362188D01*
X116382Y362025D01*
X116554Y361775D01*
X116614Y361477D01*
X116614Y360514D01*
X119411Y357717D01*
X119574Y357476D01*
X119634Y357179D01*
X119634Y346909D01*
X119578Y346623D01*
X119411Y346371D01*
X116614Y343574D01*
X116614Y339178D01*
X119722Y336070D01*
X124118Y336070D01*
X127226Y339178D01*
X127226Y343574D01*
X124429Y346371D01*
X124266Y346612D01*
X124206Y346909D01*
X124206Y357179D01*
X124262Y357465D01*
X124429Y357717D01*
X127226Y360514D01*
X127226Y364910D01*
X125391Y366745D01*
X125233Y366976D01*
X125168Y367272D01*
X125223Y367570D01*
X125391Y367823D01*
X127226Y369658D01*
X127226Y374054D01*
X124118Y377162D01*
X119722Y377162D01*
X116614Y374054D01*
X116614Y370099D01*
X116558Y369813D01*
X116391Y369560D01*
X92202Y345371D01*
X92202Y320617D01*
X95055Y317764D01*
X95218Y317523D01*
X95278Y317225D01*
X95278Y313270D01*
X98386Y310162D01*
X102782Y310162D01*
X105890Y313270D01*
X105890Y317666D01*
X102782Y320774D01*
X98827Y320774D01*
X98541Y320830D01*
X98288Y320997D01*
X96997Y322288D01*
X96834Y322529D01*
X96774Y322827D01*
X96774Y334319D01*
X96821Y334582D01*
X96980Y334840D01*
X97228Y335015D01*
X97524Y335080D01*
X97822Y335025D01*
X98075Y334857D01*
X98386Y334546D01*
X102341Y334546D01*
X102627Y334490D01*
X102880Y334323D01*
X134651Y302552D01*
X134814Y302311D01*
X134874Y302013D01*
X134874Y272233D01*
X134818Y271947D01*
X134651Y271695D01*
X131854Y268898D01*
X131854Y264502D01*
X134962Y261394D01*
G37*
G36*
X31729Y340316D02*
X67991Y340316D01*
X68884Y341209D01*
X68884Y345633D01*
X68942Y345925D01*
X70024Y348537D01*
X70024Y352143D01*
X68986Y354648D01*
X68928Y354928D01*
X68984Y355226D01*
X69152Y355479D01*
X76924Y363251D01*
X77165Y363414D01*
X77463Y363474D01*
X88955Y363474D01*
X89241Y363418D01*
X89493Y363251D01*
X92290Y360454D01*
X96686Y360454D01*
X99794Y363562D01*
X99794Y367958D01*
X96686Y371066D01*
X92290Y371066D01*
X89493Y368269D01*
X89252Y368106D01*
X88955Y368046D01*
X75253Y368046D01*
X67794Y360587D01*
X67553Y360424D01*
X67255Y360364D01*
X31729Y360364D01*
X30836Y359471D01*
X30836Y341209D01*
X31729Y340316D01*
G37*
G36*
X31729Y314916D02*
X67991Y314916D01*
X68884Y315809D01*
X68884Y320233D01*
X68942Y320525D01*
X70024Y323137D01*
X70024Y326743D01*
X68942Y329355D01*
X68884Y329647D01*
X68884Y334071D01*
X67991Y334964D01*
X31729Y334964D01*
X30836Y334071D01*
X30836Y315809D01*
X31729Y314916D01*
G37*
G36*
X50622Y288500D02*
X68412Y288500D01*
X69900Y289988D01*
X69900Y294631D01*
X69958Y294923D01*
X71040Y297535D01*
X71040Y298778D01*
X60198Y298778D01*
X60198Y300302D01*
X71040Y300302D01*
X71040Y301545D01*
X69958Y304157D01*
X69900Y304449D01*
X69900Y309092D01*
X68412Y310580D01*
X50622Y310580D01*
X50622Y288500D01*
G37*
G36*
X29820Y300302D02*
X49098Y300302D01*
X49098Y310580D01*
X31308Y310580D01*
X29820Y309092D01*
X29820Y300302D01*
G37*
G36*
X31308Y288500D02*
X49098Y288500D01*
X49098Y298778D01*
X29820Y298778D01*
X29820Y289988D01*
X31308Y288500D01*
G37*
G36*
X231729Y264116D02*
X267991Y264116D01*
X268884Y265009D01*
X268884Y283271D01*
X267991Y284164D01*
X231729Y284164D01*
X230836Y283271D01*
X230836Y278847D01*
X230778Y278555D01*
X229696Y275943D01*
X229696Y272337D01*
X230778Y269725D01*
X230836Y269433D01*
X230836Y265009D01*
X231729Y264116D01*
G37*
G36*
X31729Y264116D02*
X67991Y264116D01*
X68884Y265009D01*
X68884Y269433D01*
X68942Y269725D01*
X70024Y272337D01*
X70024Y275943D01*
X68942Y278555D01*
X68884Y278847D01*
X68884Y283271D01*
X67991Y284164D01*
X31729Y284164D01*
X30836Y283271D01*
X30836Y265009D01*
X31729Y264116D01*
G37*
G36*
X63890Y187052D02*
X72018Y187052D01*
X72018Y195180D01*
X71012Y195180D01*
X67744Y193827D01*
X65243Y191326D01*
X63890Y188058D01*
X63890Y187052D01*
G37*
G36*
X73542Y187052D02*
X81670Y187052D01*
X81670Y188058D01*
X80317Y191326D01*
X77816Y193827D01*
X74548Y195180D01*
X73542Y195180D01*
X73542Y187052D01*
G37*
G36*
X73542Y177400D02*
X74548Y177400D01*
X77816Y178753D01*
X80317Y181254D01*
X81670Y184522D01*
X81670Y185528D01*
X73542Y185528D01*
X73542Y177400D01*
G37*
G36*
X71012Y177400D02*
X72018Y177400D01*
X72018Y185528D01*
X63890Y185528D01*
X63890Y184522D01*
X65243Y181254D01*
X67744Y178753D01*
X71012Y177400D01*
G37*
G36*
X135382Y172847D02*
X144780Y172847D01*
X144780Y176293D01*
X138828Y182245D01*
X135382Y182245D01*
X135382Y172847D01*
G37*
G36*
X124460Y172847D02*
X133858Y172847D01*
X133858Y182245D01*
X130412Y182245D01*
X124460Y176293D01*
X124460Y172847D01*
G37*
G36*
X156232Y162941D02*
X163808Y162941D01*
X169164Y168297D01*
X169164Y175873D01*
X163808Y181229D01*
X156232Y181229D01*
X150876Y175873D01*
X150876Y168297D01*
X156232Y162941D01*
G37*
G36*
X207032Y162941D02*
X214608Y162941D01*
X219964Y168297D01*
X219964Y175873D01*
X214608Y181229D01*
X207032Y181229D01*
X201676Y175873D01*
X201676Y168297D01*
X207032Y162941D01*
G37*
G36*
X130412Y161925D02*
X133858Y161925D01*
X133858Y171323D01*
X124460Y171323D01*
X124460Y167877D01*
X130412Y161925D01*
G37*
G36*
X135382Y161925D02*
X138828Y161925D01*
X144780Y167877D01*
X144780Y171323D01*
X135382Y171323D01*
X135382Y161925D01*
G37*
G36*
X113030Y118872D02*
X122428Y118872D01*
X122428Y128270D01*
X118982Y128270D01*
X113030Y122318D01*
X113030Y118872D01*
G37*
G36*
X191770Y118872D02*
X201168Y118872D01*
X201168Y128270D01*
X197722Y128270D01*
X191770Y122318D01*
X191770Y118872D01*
G37*
G36*
X202692Y118872D02*
X212090Y118872D01*
X212090Y122318D01*
X206138Y128270D01*
X202692Y128270D01*
X202692Y118872D01*
G37*
G36*
X123952Y118872D02*
X133350Y118872D01*
X133350Y122318D01*
X127398Y128270D01*
X123952Y128270D01*
X123952Y118872D01*
G37*
%LPD*%
G36*
X229355Y293430D02*
X229058Y293370D01*
X183841Y293370D01*
X183555Y293426D01*
X183303Y293593D01*
X180506Y296390D01*
X176110Y296390D01*
X175799Y296079D01*
X175579Y295926D01*
X175284Y295856D01*
X174985Y295907D01*
X174730Y296070D01*
X174558Y296320D01*
X174498Y296617D01*
X174498Y309633D01*
X174554Y309919D01*
X174721Y310172D01*
X203454Y338905D01*
X203454Y394716D01*
X203505Y394991D01*
X203669Y395246D01*
X203919Y395418D01*
X204216Y395478D01*
X206303Y395478D01*
X206589Y395422D01*
X206841Y395255D01*
X209638Y392458D01*
X214034Y392458D01*
X217142Y395566D01*
X217142Y399962D01*
X214034Y403070D01*
X209638Y403070D01*
X206841Y400273D01*
X206600Y400110D01*
X206303Y400050D01*
X205177Y400050D01*
X204914Y400097D01*
X204656Y400256D01*
X204481Y400504D01*
X204416Y400800D01*
X204471Y401098D01*
X204639Y401351D01*
X206474Y403186D01*
X206474Y407582D01*
X203366Y410690D01*
X198970Y410690D01*
X195745Y407465D01*
X195656Y407320D01*
X195408Y407145D01*
X195112Y407080D01*
X194814Y407135D01*
X194561Y407303D01*
X192698Y409166D01*
X191735Y409166D01*
X191471Y409213D01*
X191213Y409372D01*
X191038Y409620D01*
X190973Y409916D01*
X191028Y410214D01*
X191196Y410467D01*
X211036Y430307D01*
X211277Y430470D01*
X211575Y430530D01*
X218495Y430530D01*
X218781Y430474D01*
X219033Y430307D01*
X221830Y427510D01*
X226226Y427510D01*
X227379Y428663D01*
X227599Y428816D01*
X227894Y428886D01*
X228193Y428835D01*
X228448Y428672D01*
X228620Y428422D01*
X228680Y428125D01*
X228680Y427302D01*
X239522Y427302D01*
X239522Y425778D01*
X228680Y425778D01*
X228680Y424535D01*
X229762Y421923D01*
X229820Y421631D01*
X229820Y416988D01*
X231308Y415500D01*
X249098Y415500D01*
X249098Y427302D01*
X250622Y427302D01*
X250622Y415500D01*
X266700Y415500D01*
X266975Y415449D01*
X267230Y415285D01*
X267402Y415035D01*
X267462Y414738D01*
X267462Y411926D01*
X267411Y411651D01*
X267247Y411396D01*
X266997Y411224D01*
X266700Y411164D01*
X231729Y411164D01*
X230836Y410271D01*
X230836Y405847D01*
X230778Y405555D01*
X229696Y402943D01*
X229696Y399337D01*
X230778Y396725D01*
X230836Y396433D01*
X230836Y392009D01*
X231729Y391116D01*
X266700Y391116D01*
X266975Y391065D01*
X267230Y390901D01*
X267402Y390651D01*
X267462Y390354D01*
X267462Y386526D01*
X267411Y386251D01*
X267247Y385996D01*
X266997Y385824D01*
X266700Y385764D01*
X231729Y385764D01*
X230836Y384871D01*
X230836Y380447D01*
X230778Y380155D01*
X229696Y377543D01*
X229696Y373937D01*
X230628Y371686D01*
X230686Y371407D01*
X230631Y371109D01*
X230463Y370856D01*
X226314Y366707D01*
X226314Y340429D01*
X230701Y336042D01*
X230967Y336042D01*
X231230Y335995D01*
X231488Y335836D01*
X231664Y335588D01*
X231729Y335292D01*
X231673Y334994D01*
X231506Y334741D01*
X230836Y334071D01*
X230836Y329647D01*
X230778Y329355D01*
X229696Y326743D01*
X229696Y323137D01*
X230778Y320525D01*
X230836Y320233D01*
X230836Y315809D01*
X231729Y314916D01*
X266700Y314916D01*
X266975Y314865D01*
X267230Y314701D01*
X267402Y314451D01*
X267462Y314154D01*
X267462Y311342D01*
X267411Y311067D01*
X267247Y310812D01*
X266997Y310640D01*
X266700Y310580D01*
X250622Y310580D01*
X250622Y298778D01*
X249098Y298778D01*
X249098Y310580D01*
X231308Y310580D01*
X229820Y309092D01*
X229820Y304449D01*
X229762Y304157D01*
X228680Y301545D01*
X228680Y300302D01*
X239522Y300302D01*
X239522Y298778D01*
X228680Y298778D01*
X228680Y297535D01*
X229762Y294923D01*
X229820Y294631D01*
X229820Y294132D01*
X229769Y293857D01*
X229605Y293602D01*
X229355Y293430D01*
G37*
G36*
X289375Y10220D02*
X289078Y10160D01*
X10922Y10160D01*
X10647Y10211D01*
X10392Y10375D01*
X10220Y10625D01*
X10160Y10922D01*
X10160Y86829D01*
X10207Y87092D01*
X10366Y87350D01*
X10614Y87526D01*
X10910Y87591D01*
X11208Y87535D01*
X11461Y87368D01*
X15262Y83566D01*
X22838Y83566D01*
X28194Y88922D01*
X28194Y96498D01*
X22838Y101854D01*
X15262Y101854D01*
X11461Y98052D01*
X11241Y97899D01*
X10946Y97830D01*
X10647Y97880D01*
X10392Y98044D01*
X10220Y98294D01*
X10160Y98591D01*
X10160Y112229D01*
X10207Y112492D01*
X10366Y112750D01*
X10614Y112926D01*
X10910Y112991D01*
X11208Y112935D01*
X11461Y112768D01*
X15262Y108966D01*
X22838Y108966D01*
X28194Y114322D01*
X28194Y115824D01*
X28245Y116099D01*
X28409Y116354D01*
X28659Y116526D01*
X28956Y116586D01*
X31427Y116586D01*
X32989Y118148D01*
X33209Y118301D01*
X33504Y118371D01*
X33803Y118320D01*
X33909Y118252D01*
X33909Y118872D01*
X43688Y118872D01*
X43688Y128651D01*
X44305Y128651D01*
X44254Y128724D01*
X44189Y129020D01*
X44244Y129318D01*
X44412Y129571D01*
X55588Y140747D01*
X55829Y140910D01*
X56127Y140970D01*
X71889Y140970D01*
X72175Y140914D01*
X72428Y140747D01*
X89423Y123752D01*
X89581Y123522D01*
X89646Y123226D01*
X89590Y122927D01*
X89423Y122675D01*
X88646Y121898D01*
X88646Y114322D01*
X94002Y108966D01*
X101578Y108966D01*
X102355Y109743D01*
X102585Y109901D01*
X102881Y109966D01*
X103179Y109910D01*
X103432Y109743D01*
X107257Y105918D01*
X128963Y105918D01*
X137884Y114839D01*
X138125Y115002D01*
X138423Y115062D01*
X166624Y115062D01*
X166899Y115011D01*
X167154Y114847D01*
X167326Y114597D01*
X167380Y114328D01*
X172742Y108966D01*
X180318Y108966D01*
X185806Y114454D01*
X185880Y114575D01*
X186128Y114750D01*
X186424Y114815D01*
X186722Y114760D01*
X186975Y114592D01*
X195649Y105918D01*
X230385Y105918D01*
X230649Y105871D01*
X230907Y105712D01*
X231082Y105464D01*
X231147Y105168D01*
X231092Y104870D01*
X230924Y104617D01*
X206540Y80233D01*
X206299Y80070D01*
X206001Y80010D01*
X71065Y80010D01*
X70779Y80066D01*
X70527Y80233D01*
X67730Y83030D01*
X63334Y83030D01*
X61499Y81195D01*
X61268Y81037D01*
X60972Y80972D01*
X60674Y81027D01*
X60421Y81195D01*
X58586Y83030D01*
X54190Y83030D01*
X51082Y79922D01*
X51082Y75526D01*
X54190Y72418D01*
X58145Y72418D01*
X58431Y72362D01*
X58684Y72195D01*
X61537Y69342D01*
X211259Y69342D01*
X235448Y93531D01*
X235689Y93694D01*
X235987Y93754D01*
X239942Y93754D01*
X243050Y96862D01*
X243050Y101258D01*
X242739Y101569D01*
X242586Y101789D01*
X242516Y102084D01*
X242567Y102383D01*
X242730Y102638D01*
X242980Y102810D01*
X243277Y102870D01*
X250659Y102870D01*
X250922Y102823D01*
X251180Y102664D01*
X251356Y102416D01*
X251421Y102120D01*
X251365Y101822D01*
X251198Y101569D01*
X246126Y96498D01*
X246126Y88922D01*
X251482Y83566D01*
X259057Y83566D01*
X264414Y88922D01*
X264414Y96498D01*
X258926Y101986D01*
X258805Y102060D01*
X258630Y102308D01*
X258565Y102604D01*
X258620Y102902D01*
X258788Y103155D01*
X269483Y113851D01*
X269714Y114009D01*
X270010Y114074D01*
X270308Y114018D01*
X270561Y113851D01*
X276462Y107950D01*
X279908Y107950D01*
X279908Y128270D01*
X276462Y128270D01*
X273335Y125143D01*
X273115Y124990D01*
X272820Y124921D01*
X272521Y124971D01*
X272266Y125135D01*
X272094Y125385D01*
X272034Y125682D01*
X272034Y164853D01*
X272090Y165139D01*
X272257Y165392D01*
X275082Y168217D01*
X275082Y176207D01*
X266123Y185166D01*
X256609Y185166D01*
X246665Y175222D01*
X246445Y175069D01*
X246150Y174999D01*
X245851Y175050D01*
X245596Y175213D01*
X245424Y175463D01*
X245364Y175761D01*
X245364Y175873D01*
X240008Y181229D01*
X239268Y181229D01*
X238993Y181280D01*
X238738Y181444D01*
X238566Y181694D01*
X238506Y181991D01*
X238506Y188399D01*
X204940Y221965D01*
X204787Y222185D01*
X204717Y222480D01*
X204768Y222779D01*
X204931Y223034D01*
X205181Y223206D01*
X205479Y223266D01*
X213923Y223266D01*
X214209Y223210D01*
X214461Y223043D01*
X217258Y220246D01*
X221654Y220246D01*
X224762Y223354D01*
X224762Y227750D01*
X221654Y230858D01*
X217258Y230858D01*
X214461Y228061D01*
X214220Y227898D01*
X213923Y227838D01*
X203955Y227838D01*
X203669Y227894D01*
X203416Y228061D01*
X198700Y232777D01*
X198550Y232991D01*
X198478Y233285D01*
X198526Y233585D01*
X198688Y233841D01*
X198936Y234015D01*
X199233Y234077D01*
X199531Y234020D01*
X202462Y232805D01*
X211278Y232805D01*
X219423Y236179D01*
X225656Y242413D01*
X228230Y248626D01*
X228370Y248847D01*
X228615Y249026D01*
X228910Y249096D01*
X229209Y249045D01*
X229464Y248882D01*
X229636Y248632D01*
X229696Y248334D01*
X229696Y246937D01*
X230778Y244325D01*
X230836Y244033D01*
X230836Y239609D01*
X231729Y238716D01*
X266812Y238716D01*
X267070Y238671D01*
X267329Y238514D01*
X267507Y238268D01*
X267574Y237972D01*
X267521Y237674D01*
X267355Y237420D01*
X267104Y237250D01*
X265004Y236380D01*
X258630Y230006D01*
X255180Y221677D01*
X255180Y212663D01*
X258630Y204334D01*
X265004Y197960D01*
X273333Y194510D01*
X282347Y194510D01*
X288786Y197177D01*
X289054Y197235D01*
X289353Y197184D01*
X289608Y197020D01*
X289780Y196770D01*
X289840Y196473D01*
X289840Y125148D01*
X289793Y124885D01*
X289634Y124627D01*
X289386Y124451D01*
X289090Y124386D01*
X288792Y124442D01*
X288539Y124609D01*
X284878Y128270D01*
X281432Y128270D01*
X281432Y107950D01*
X284878Y107950D01*
X288539Y111611D01*
X288759Y111764D01*
X289054Y111834D01*
X289353Y111783D01*
X289608Y111619D01*
X289780Y111369D01*
X289840Y111072D01*
X289840Y98311D01*
X289793Y98048D01*
X289634Y97790D01*
X289386Y97614D01*
X289090Y97549D01*
X288792Y97605D01*
X288539Y97772D01*
X284457Y101854D01*
X276882Y101854D01*
X271526Y96498D01*
X271526Y88922D01*
X272557Y87891D01*
X272715Y87661D01*
X272780Y87365D01*
X272724Y87067D01*
X272557Y86814D01*
X237020Y51277D01*
X236779Y51114D01*
X236481Y51054D01*
X208225Y51054D01*
X207939Y51110D01*
X207687Y51277D01*
X204890Y54074D01*
X200494Y54074D01*
X197386Y50966D01*
X197386Y46570D01*
X200494Y43462D01*
X204890Y43462D01*
X207687Y46259D01*
X207928Y46422D01*
X208225Y46482D01*
X238691Y46482D01*
X275790Y83581D01*
X276020Y83739D01*
X276316Y83804D01*
X276615Y83748D01*
X276867Y83581D01*
X276882Y83566D01*
X284457Y83566D01*
X288539Y87648D01*
X288759Y87801D01*
X289054Y87871D01*
X289353Y87820D01*
X289608Y87656D01*
X289780Y87406D01*
X289840Y87109D01*
X289840Y10922D01*
X289789Y10647D01*
X289625Y10392D01*
X289375Y10220D01*
G37*
%LPC*%
G36*
X45212Y118872D02*
X54610Y118872D01*
X54610Y122318D01*
X48658Y128270D01*
X45212Y128270D01*
X45212Y118872D01*
G37*
G36*
X45212Y107950D02*
X48658Y107950D01*
X54610Y113902D01*
X54610Y117348D01*
X45212Y117348D01*
X45212Y107950D01*
G37*
G36*
X40242Y107950D02*
X43688Y107950D01*
X43688Y117348D01*
X34290Y117348D01*
X34290Y113902D01*
X40242Y107950D01*
G37*
G36*
X198142Y83566D02*
X205718Y83566D01*
X211074Y88922D01*
X211074Y96498D01*
X205718Y101854D01*
X198142Y101854D01*
X192786Y96498D01*
X192786Y88922D01*
X198142Y83566D01*
G37*
G36*
X172742Y83566D02*
X180318Y83566D01*
X185674Y88922D01*
X185674Y96498D01*
X180318Y101854D01*
X172742Y101854D01*
X167386Y96498D01*
X167386Y88922D01*
X172742Y83566D01*
G37*
G36*
X40662Y83566D02*
X48238Y83566D01*
X53594Y88922D01*
X53594Y96498D01*
X48238Y101854D01*
X40662Y101854D01*
X35306Y96498D01*
X35306Y88922D01*
X40662Y83566D01*
G37*
G36*
X94002Y83566D02*
X101578Y83566D01*
X106934Y88922D01*
X106934Y96498D01*
X101578Y101854D01*
X94002Y101854D01*
X88646Y96498D01*
X88646Y88922D01*
X94002Y83566D01*
G37*
G36*
X119402Y83566D02*
X126978Y83566D01*
X132334Y88922D01*
X132334Y96498D01*
X126978Y101854D01*
X119402Y101854D01*
X114046Y96498D01*
X114046Y88922D01*
X119402Y83566D01*
G37*
%LPD*%
D10*
X72780Y161290D03*
X72780Y186290D03*
D11*
X160020Y172085D03*
X185420Y172085D03*
X210820Y172085D03*
X261620Y172085D03*
X134620Y172085D03*
X236220Y172085D03*
X19050Y92710D03*
X19050Y118110D03*
X44450Y92710D03*
X44450Y118110D03*
X97790Y92710D03*
X97790Y118110D03*
X123190Y92710D03*
X123190Y118110D03*
X176530Y92710D03*
X176530Y118110D03*
X201930Y92710D03*
X201930Y118110D03*
X255270Y92710D03*
X255270Y118110D03*
X280670Y92710D03*
X280670Y118110D03*
D12*
X60960Y731340D03*
X60960Y705940D03*
X60960Y578940D03*
X60960Y553540D03*
X60960Y680540D03*
X60960Y655140D03*
X60960Y604340D03*
X60960Y629740D03*
X60960Y528140D03*
X60960Y502740D03*
X60960Y477340D03*
X60960Y451940D03*
X60960Y426540D03*
X60960Y401140D03*
X60960Y375740D03*
X60960Y350340D03*
X60960Y324940D03*
X60960Y299540D03*
X60960Y274140D03*
X60960Y248740D03*
X238760Y248740D03*
X238760Y274140D03*
X238760Y299540D03*
X238760Y324940D03*
X238760Y350340D03*
X238760Y375740D03*
X238760Y401140D03*
X238760Y426540D03*
X238760Y451940D03*
X238760Y477340D03*
X238760Y502740D03*
X238760Y528140D03*
X238760Y553540D03*
X238760Y578940D03*
X238760Y604340D03*
X238760Y629740D03*
X238760Y655140D03*
X238760Y680540D03*
X238760Y705940D03*
X238760Y731340D03*
D13*
X49860Y731340D03*
X49860Y705940D03*
X49860Y680540D03*
X49860Y655140D03*
X49860Y629740D03*
X49860Y604340D03*
X49860Y578940D03*
X49860Y553540D03*
X49860Y528140D03*
X49860Y502740D03*
X49860Y477340D03*
X49860Y451940D03*
X49860Y426540D03*
X49860Y401140D03*
X49860Y375740D03*
X49860Y350340D03*
X49860Y324940D03*
X49860Y299540D03*
X49860Y274140D03*
X49860Y248740D03*
X249860Y248740D03*
X249860Y274140D03*
X249860Y299540D03*
X249860Y324940D03*
X249860Y350340D03*
X249860Y375740D03*
X249860Y401140D03*
X249860Y426540D03*
X249860Y451940D03*
X249860Y477340D03*
X249860Y502740D03*
X249860Y528140D03*
X249860Y553540D03*
X249860Y578940D03*
X249860Y604340D03*
X249860Y629740D03*
X249860Y655140D03*
X249860Y680540D03*
X249860Y705940D03*
X249860Y731340D03*
D14*
X248412Y731520D02*
X239268Y731520D01*
X238760Y731340D01*
X248412Y731520D02*
X249860Y731340D01*
X60960Y528828D02*
X50292Y528828D01*
X49860Y528140D01*
X60960Y528140D02*
X60960Y528828D01*
X196596Y548640D02*
X233172Y548640D01*
X237744Y553212D01*
X249860Y553540D01*
X239268Y553212D02*
X238760Y553540D01*
X239268Y553212D02*
X249860Y553540D01*
X248412Y426720D02*
X239268Y426720D01*
X248412Y426720D02*
X249860Y426540D01*
X239268Y426720D02*
X238760Y426540D01*
X196596Y542544D02*
X196596Y548640D01*
X196596Y542544D02*
X190500Y536448D01*
X190500Y475488D01*
X239268Y426720D01*
X238760Y426540D01*
X239268Y300228D02*
X248412Y300228D01*
X239268Y300228D02*
X238760Y299540D01*
X248412Y300228D02*
X249860Y299540D01*
X237744Y300228D02*
X220980Y316992D01*
X237744Y300228D02*
X238760Y299540D01*
X237744Y419100D02*
X237744Y425196D01*
X237744Y419100D02*
X220980Y402336D01*
X220980Y316992D01*
X237744Y425196D02*
X238760Y426540D01*
X239268Y681228D02*
X248412Y681228D01*
X239268Y681228D02*
X238760Y680540D01*
X248412Y681228D02*
X249860Y680540D01*
X60960Y553212D02*
X50292Y553212D01*
X60960Y553212D02*
X60960Y553540D01*
X50292Y553212D02*
X49860Y553540D01*
X50292Y681228D02*
X60960Y681228D01*
X50292Y681228D02*
X49860Y680540D01*
X60960Y680540D02*
X60960Y681228D01*
X60960Y559308D02*
X60960Y554736D01*
X60960Y559308D02*
X71628Y569976D01*
X71628Y669036D01*
X60960Y679704D01*
X60960Y554736D02*
X60960Y553540D01*
X60960Y679704D02*
X60960Y680540D01*
X60960Y426720D02*
X50292Y426720D01*
X49860Y426540D01*
X60960Y426540D02*
X60960Y426720D01*
X190500Y118872D02*
X201168Y118872D01*
X190500Y118872D02*
X181356Y128016D01*
X135636Y128016D02*
X132588Y128016D01*
X135636Y128016D02*
X181356Y128016D01*
X132588Y128016D02*
X123444Y118872D01*
X201168Y118872D02*
X201930Y118110D01*
X123444Y118872D02*
X123190Y118110D01*
X60960Y300228D02*
X50292Y300228D01*
X49860Y299540D01*
X60960Y299540D02*
X60960Y300228D01*
X115824Y185928D02*
X120396Y185928D01*
X115824Y185928D02*
X73152Y185928D01*
X120396Y185928D02*
X134112Y172212D01*
X73152Y185928D02*
X72780Y186290D01*
X134112Y172212D02*
X134620Y172085D01*
X82296Y298704D02*
X60960Y298704D01*
X82296Y298704D02*
X115824Y265176D01*
X115824Y185928D01*
X60960Y298704D02*
X60960Y299540D01*
X135636Y170688D02*
X135636Y128016D01*
X135636Y170688D02*
X134620Y172085D01*
X48768Y425196D02*
X44196Y425196D01*
X28956Y409956D01*
X28956Y315468D01*
X44196Y300228D01*
X48768Y300228D01*
X48768Y425196D02*
X49860Y426540D01*
X48768Y300228D02*
X49860Y299540D01*
X48768Y553212D02*
X44196Y553212D01*
X28956Y537972D01*
X28956Y440436D01*
X44196Y425196D01*
X48768Y553212D02*
X49860Y553540D01*
X49860Y426540D02*
X44196Y425196D01*
X249936Y554736D02*
X256032Y554736D01*
X269748Y568452D01*
X269748Y665988D01*
X256032Y679704D01*
X249936Y679704D01*
X249936Y554736D02*
X249860Y553540D01*
X249936Y679704D02*
X249860Y680540D01*
D15*
X196596Y548640D03*
X220980Y316992D03*
D14*
X100584Y519684D02*
X100584Y562356D01*
X100584Y519684D02*
X71628Y490728D01*
X71628Y413004D01*
X60960Y402336D01*
X60960Y401140D01*
X60960Y402336D02*
X50292Y402336D01*
X49860Y401140D01*
X60960Y401140D02*
X60960Y402336D01*
D15*
X100584Y562356D03*
D14*
X124968Y560832D02*
X124968Y512064D01*
D15*
X124968Y560832D03*
X124968Y512064D03*
D14*
X164592Y577596D02*
X175260Y577596D01*
X164592Y577596D02*
X160020Y577596D01*
X82296Y577596D01*
X175260Y577596D02*
X227076Y629412D01*
X237744Y629412D01*
X249860Y629740D01*
X239268Y629412D02*
X238760Y629740D01*
X239268Y629412D02*
X249860Y629740D01*
X225552Y160020D02*
X225552Y153924D01*
X225552Y160020D02*
X236220Y170688D01*
X236220Y172085D01*
X111252Y381000D02*
X83820Y381000D01*
X111252Y381000D02*
X158496Y381000D01*
X210312Y432816D02*
X224028Y432816D01*
X175260Y397764D02*
X158496Y381000D01*
X175260Y397764D02*
X210312Y432816D01*
X175260Y397764D02*
X192024Y381000D01*
X236220Y187452D02*
X236220Y172212D01*
X236220Y187452D02*
X158496Y265176D01*
X158496Y381000D01*
X236220Y172212D02*
X236220Y172085D01*
X164592Y478536D02*
X164592Y577596D01*
X164592Y478536D02*
X210312Y432816D01*
D15*
X82296Y577596D03*
X160020Y577596D03*
X225552Y153924D03*
X83820Y381000D03*
X111252Y381000D03*
X158496Y381000D03*
X224028Y432816D03*
X192024Y381000D03*
D14*
X73152Y160020D02*
X73152Y143256D01*
X97536Y118872D01*
X73152Y160020D02*
X72780Y161290D01*
X97536Y118872D02*
X97790Y118110D01*
X30480Y118872D02*
X19812Y118872D01*
X30480Y118872D02*
X54864Y143256D01*
X73152Y143256D01*
X19812Y118872D02*
X19050Y118110D01*
X137160Y117348D02*
X175260Y117348D01*
X137160Y117348D02*
X128016Y108204D01*
X108204Y108204D01*
X99060Y117348D01*
X175260Y117348D02*
X176530Y118110D01*
X99060Y117348D02*
X97790Y118110D01*
X239268Y705612D02*
X248412Y705612D01*
X239268Y705612D02*
X238760Y705940D01*
X248412Y705612D02*
X249860Y705940D01*
X256032Y166116D02*
X256032Y118872D01*
X256032Y166116D02*
X260604Y170688D01*
X256032Y118872D02*
X255270Y118110D01*
X260604Y170688D02*
X261620Y172085D01*
X187452Y117348D02*
X176784Y117348D01*
X187452Y117348D02*
X196596Y108204D01*
X245364Y108204D01*
X254508Y117348D01*
X176784Y117348D02*
X176530Y118110D01*
X254508Y117348D02*
X255270Y118110D01*
X60960Y502920D02*
X50292Y502920D01*
X60960Y502920D02*
X60960Y502740D01*
X50292Y502920D02*
X49860Y502740D01*
X121920Y362712D02*
X121920Y341376D01*
D15*
X121920Y362712D03*
X121920Y341376D03*
D14*
X137160Y303276D02*
X137160Y266700D01*
X137160Y303276D02*
X100584Y339852D01*
D15*
X137160Y266700D03*
X100584Y339852D03*
D14*
X94488Y365760D02*
X76200Y365760D01*
X60960Y350520D01*
X60960Y350340D01*
X60960Y350520D02*
X50292Y350520D01*
X49860Y350340D01*
X60960Y350340D02*
X60960Y350520D01*
D15*
X94488Y365760D03*
D14*
X60960Y324612D02*
X50292Y324612D01*
X60960Y324612D02*
X60960Y324940D01*
X50292Y324612D02*
X49860Y324940D01*
X202692Y563880D02*
X188976Y577596D01*
X239268Y326136D02*
X248412Y326136D01*
X249860Y324940D01*
X239268Y326136D02*
X238760Y324940D01*
D15*
X188976Y577596D03*
X202692Y563880D03*
D14*
X225552Y451104D02*
X225552Y446532D01*
X234696Y437388D01*
X269748Y437388D01*
X269748Y365760D01*
X254508Y350520D01*
X249936Y350520D01*
X249860Y350340D01*
X196596Y480060D02*
X196596Y533400D01*
X196596Y480060D02*
X225552Y451104D01*
X239268Y350520D02*
X248412Y350520D01*
X239268Y350520D02*
X238760Y350340D01*
X248412Y350520D02*
X249860Y350340D01*
D15*
X225552Y451104D03*
X196596Y533400D03*
D14*
X239268Y502920D02*
X248412Y502920D01*
X239268Y502920D02*
X238760Y502740D01*
X248412Y502920D02*
X249860Y502740D01*
X170688Y562356D02*
X170688Y568452D01*
X202692Y600456D01*
X208788Y600456D01*
D15*
X170688Y562356D03*
X208788Y600456D03*
D14*
X228600Y291084D02*
X178308Y291084D01*
X228600Y291084D02*
X231648Y288036D01*
X268224Y288036D01*
X269748Y289560D01*
X269748Y335280D01*
X266700Y338328D01*
X231648Y338328D01*
X228600Y341376D01*
X228600Y365760D01*
X237744Y374904D01*
X249860Y375740D01*
X239268Y374904D02*
X238760Y375740D01*
X239268Y374904D02*
X249860Y375740D01*
D15*
X178308Y291084D03*
D14*
X239268Y400812D02*
X248412Y400812D01*
X239268Y400812D02*
X238760Y401140D01*
X248412Y400812D02*
X249860Y401140D01*
X248412Y528828D02*
X239268Y528828D01*
X238760Y528140D01*
X248412Y528828D02*
X249860Y528140D01*
X170688Y326136D02*
X170688Y318516D01*
X170688Y326136D02*
X198120Y353568D01*
X198120Y396240D01*
X190500Y403860D01*
D15*
X170688Y318516D03*
X190500Y403860D03*
D14*
X172212Y288036D02*
X178308Y281940D01*
X172212Y288036D02*
X172212Y310896D01*
X201168Y339852D01*
X201168Y397764D02*
X201168Y405384D01*
X201168Y397764D02*
X201168Y339852D01*
X201168Y397764D02*
X211836Y397764D01*
D15*
X178308Y281940D03*
X201168Y405384D03*
X211836Y397764D03*
D14*
X219456Y225552D02*
X202692Y225552D01*
X164592Y263652D01*
X164592Y330708D01*
X166116Y332232D01*
D15*
X219456Y225552D03*
X166116Y332232D03*
D14*
X202692Y48768D02*
X237744Y48768D01*
X280416Y91440D01*
X280670Y92710D01*
D15*
X202692Y48768D03*
D14*
X207264Y77724D02*
X65532Y77724D01*
X207264Y77724D02*
X234696Y105156D01*
X257556Y105156D01*
X269748Y117348D01*
X269748Y166116D01*
X272796Y169164D01*
X272796Y175260D01*
X265176Y182880D01*
X257556Y182880D01*
X246888Y172212D01*
X246888Y166116D01*
X228600Y147828D01*
X208788Y147828D01*
X185928Y170688D01*
X185420Y172085D01*
D15*
X65532Y77724D03*
D14*
X62484Y71628D02*
X56388Y77724D01*
X62484Y71628D02*
X210312Y71628D01*
X237744Y99060D01*
D15*
X56388Y77724D03*
X237744Y99060D03*
D14*
X121920Y566928D02*
X121920Y569976D01*
X121920Y566928D02*
X115824Y560832D01*
X115824Y513588D01*
D15*
X121920Y569976D03*
X115824Y513588D03*
D14*
X132588Y448056D02*
X60960Y376428D01*
X49860Y375740D01*
X102108Y478536D02*
X102108Y512064D01*
X102108Y478536D02*
X132588Y448056D01*
X60960Y376428D02*
X60960Y375740D01*
X60960Y376428D02*
X49860Y375740D01*
D15*
X132588Y448056D03*
X102108Y512064D03*
D14*
X121920Y371856D02*
X94488Y344424D01*
X94488Y321564D01*
X100584Y315468D01*
D15*
X121920Y371856D03*
X100584Y315468D03*
D14*
X181356Y345948D02*
X181356Y365760D01*
X181356Y345948D02*
X173736Y338328D01*
D15*
X181356Y365760D03*
X173736Y338328D03*
D14*
X181356Y524256D02*
X181356Y562356D01*
X181356Y524256D02*
X170688Y513588D01*
D15*
X181356Y562356D03*
X170688Y513588D03*
M02*
