G04 EAGLE Gerber RS-274X export*
G75*
%MOMM*%
%FSLAX34Y34*%
%LPD*%
%INTop Copper*%
%IPPOS*%
%AMOC8*
5,1,8,0,0,1.08239X$1,22.5*%
G01*
G04 Define Apertures*
%ADD10C,1.270000*%
%ADD11P,1.64956X8X22.5*%
%ADD12C,1.508000*%
%ADD13R,3.500000X1.700000*%
%ADD14C,0.152400*%
%ADD15C,0.756400*%
G36*
X289106Y97894D02*
X288810Y97829D01*
X288512Y97885D01*
X288259Y98052D01*
X284457Y101854D01*
X276882Y101854D01*
X275597Y100569D01*
X275367Y100411D01*
X275071Y100346D01*
X274773Y100402D01*
X274520Y100569D01*
X269181Y105908D01*
X269018Y106149D01*
X268958Y106447D01*
X268958Y110402D01*
X265850Y113510D01*
X265176Y113510D01*
X264901Y113561D01*
X264646Y113725D01*
X264474Y113975D01*
X264414Y114272D01*
X264414Y121898D01*
X259057Y127254D01*
X251482Y127254D01*
X246126Y121898D01*
X246126Y120396D01*
X246075Y120121D01*
X245911Y119866D01*
X245661Y119694D01*
X245364Y119634D01*
X215461Y119634D01*
X213391Y117564D01*
X213171Y117411D01*
X212876Y117341D01*
X212577Y117392D01*
X212471Y117460D01*
X212471Y117348D01*
X191770Y117348D01*
X191770Y113902D01*
X193881Y111791D01*
X194034Y111571D01*
X194104Y111276D01*
X194053Y110977D01*
X193889Y110722D01*
X193639Y110550D01*
X193342Y110490D01*
X187191Y110490D01*
X186905Y110546D01*
X186652Y110713D01*
X184897Y112468D01*
X184739Y112698D01*
X184674Y112995D01*
X184730Y113293D01*
X184897Y113546D01*
X185674Y114322D01*
X185674Y121898D01*
X180318Y127254D01*
X172742Y127254D01*
X167386Y121898D01*
X167386Y120396D01*
X167335Y120121D01*
X167171Y119866D01*
X166921Y119694D01*
X166624Y119634D01*
X136213Y119634D01*
X134651Y118072D01*
X134431Y117919D01*
X134136Y117849D01*
X133837Y117900D01*
X133731Y117968D01*
X133731Y117348D01*
X113030Y117348D01*
X113030Y113902D01*
X115141Y111791D01*
X115294Y111571D01*
X115364Y111276D01*
X115313Y110977D01*
X115149Y110722D01*
X114899Y110550D01*
X114602Y110490D01*
X109467Y110490D01*
X109181Y110546D01*
X108928Y110713D01*
X106665Y112976D01*
X106507Y113206D01*
X106442Y113503D01*
X106498Y113801D01*
X106665Y114054D01*
X106934Y114322D01*
X106934Y121898D01*
X101578Y127254D01*
X94002Y127254D01*
X93733Y126985D01*
X93503Y126827D01*
X93207Y126762D01*
X92909Y126818D01*
X92656Y126985D01*
X72613Y147028D01*
X72450Y147269D01*
X72390Y147567D01*
X72390Y153836D01*
X72443Y154117D01*
X72609Y154371D01*
X72860Y154540D01*
X73040Y154615D01*
X75255Y156830D01*
X76454Y159724D01*
X76454Y162856D01*
X75255Y165750D01*
X73040Y167965D01*
X70146Y169164D01*
X67014Y169164D01*
X64120Y167965D01*
X61905Y165750D01*
X60706Y162856D01*
X60706Y159724D01*
X61905Y156830D01*
X64120Y154615D01*
X67014Y153416D01*
X67056Y153416D01*
X67331Y153365D01*
X67586Y153201D01*
X67758Y152951D01*
X67818Y152654D01*
X67818Y149352D01*
X67767Y149077D01*
X67603Y148822D01*
X67353Y148650D01*
X67056Y148590D01*
X56965Y148590D01*
X29756Y121381D01*
X29515Y121218D01*
X29217Y121158D01*
X28956Y121158D01*
X28681Y121209D01*
X28426Y121373D01*
X28254Y121623D01*
X28200Y121892D01*
X22838Y127254D01*
X15262Y127254D01*
X11461Y123452D01*
X11241Y123299D01*
X10946Y123230D01*
X10647Y123280D01*
X10392Y123444D01*
X10220Y123694D01*
X10160Y123991D01*
X10160Y197710D01*
X10209Y197979D01*
X10370Y198236D01*
X10619Y198409D01*
X10916Y198472D01*
X11214Y198414D01*
X19432Y195010D01*
X28248Y195010D01*
X36393Y198384D01*
X42626Y204617D01*
X46000Y212762D01*
X46000Y221578D01*
X42626Y229723D01*
X36393Y235956D01*
X33270Y237250D01*
X33049Y237390D01*
X32869Y237635D01*
X32799Y237930D01*
X32850Y238229D01*
X33014Y238484D01*
X33264Y238656D01*
X33561Y238716D01*
X67991Y238716D01*
X68884Y239609D01*
X68884Y244033D01*
X68942Y244325D01*
X70024Y246937D01*
X70024Y248359D01*
X70069Y248616D01*
X70226Y248875D01*
X70472Y249053D01*
X70768Y249120D01*
X71066Y249067D01*
X71321Y248902D01*
X71490Y248650D01*
X74074Y242413D01*
X80307Y236179D01*
X88452Y232805D01*
X97268Y232805D01*
X105413Y236179D01*
X111646Y242413D01*
X115020Y250557D01*
X115020Y259373D01*
X111646Y267518D01*
X105413Y273752D01*
X97268Y277125D01*
X88452Y277125D01*
X80307Y273752D01*
X74074Y267518D01*
X70700Y259373D01*
X70700Y252742D01*
X70655Y252484D01*
X70498Y252225D01*
X70252Y252047D01*
X69956Y251980D01*
X69658Y252033D01*
X69404Y252199D01*
X69234Y252450D01*
X68942Y253155D01*
X68884Y253447D01*
X68884Y257871D01*
X67991Y258764D01*
X31729Y258764D01*
X30836Y257871D01*
X30836Y239398D01*
X30787Y239129D01*
X30626Y238873D01*
X30377Y238699D01*
X30080Y238636D01*
X29782Y238694D01*
X28248Y239330D01*
X19432Y239330D01*
X11214Y235926D01*
X10946Y235868D01*
X10647Y235919D01*
X10392Y236082D01*
X10220Y236333D01*
X10160Y236630D01*
X10160Y739078D01*
X10211Y739353D01*
X10375Y739608D01*
X10625Y739780D01*
X10922Y739840D01*
X30074Y739840D01*
X30349Y739789D01*
X30604Y739625D01*
X30776Y739375D01*
X30836Y739078D01*
X30836Y722209D01*
X31729Y721316D01*
X67991Y721316D01*
X68884Y722209D01*
X68884Y726633D01*
X68942Y726925D01*
X69234Y727630D01*
X69374Y727851D01*
X69619Y728030D01*
X69914Y728100D01*
X70213Y728049D01*
X70468Y727886D01*
X70640Y727635D01*
X70700Y727338D01*
X70700Y721697D01*
X74074Y713553D01*
X80307Y707319D01*
X88452Y703945D01*
X97268Y703945D01*
X105413Y707319D01*
X110924Y712830D01*
X111144Y712983D01*
X111439Y713053D01*
X111738Y713002D01*
X111993Y712839D01*
X112165Y712589D01*
X112225Y712292D01*
X112225Y691467D01*
X112234Y691412D01*
X112237Y691411D01*
X112277Y691405D01*
X187433Y691405D01*
X187488Y691414D01*
X187489Y691417D01*
X187495Y691457D01*
X187495Y712292D01*
X187542Y712555D01*
X187701Y712813D01*
X187949Y712988D01*
X188245Y713054D01*
X188543Y712998D01*
X188796Y712830D01*
X194307Y707319D01*
X202452Y703945D01*
X211268Y703945D01*
X213342Y704805D01*
X213598Y704862D01*
X213897Y704816D01*
X214155Y704656D01*
X214331Y704409D01*
X214396Y704113D01*
X214340Y703815D01*
X214173Y703562D01*
X168402Y657791D01*
X168402Y604465D01*
X168346Y604179D01*
X168179Y603927D01*
X165382Y601130D01*
X165382Y596734D01*
X168490Y593626D01*
X169453Y593626D01*
X169717Y593579D01*
X169975Y593420D01*
X170150Y593172D01*
X170215Y592876D01*
X170160Y592578D01*
X169992Y592325D01*
X168402Y590735D01*
X168402Y581605D01*
X168346Y581319D01*
X168179Y581067D01*
X165382Y578270D01*
X165382Y573874D01*
X168490Y570766D01*
X172886Y570766D01*
X175994Y573874D01*
X175994Y578270D01*
X173197Y581067D01*
X173034Y581308D01*
X172974Y581605D01*
X172974Y588525D01*
X173030Y588811D01*
X173197Y589064D01*
X179293Y595160D01*
X179513Y595313D01*
X179808Y595383D01*
X180107Y595332D01*
X180362Y595169D01*
X180534Y594919D01*
X180594Y594621D01*
X180594Y540759D01*
X180538Y540473D01*
X180371Y540220D01*
X144018Y503867D01*
X144018Y184143D01*
X143962Y183857D01*
X143795Y183604D01*
X140453Y180262D01*
X140222Y180104D01*
X139926Y180038D01*
X139628Y180094D01*
X139375Y180262D01*
X138408Y181229D01*
X130832Y181229D01*
X127031Y177427D01*
X126811Y177274D01*
X126516Y177205D01*
X126217Y177255D01*
X125962Y177419D01*
X125790Y177669D01*
X125730Y177966D01*
X125730Y387357D01*
X125786Y387643D01*
X125953Y387896D01*
X131816Y393759D01*
X132057Y393922D01*
X132355Y393982D01*
X136310Y393982D01*
X139418Y397090D01*
X139418Y401486D01*
X136621Y404283D01*
X136458Y404524D01*
X136398Y404821D01*
X136398Y405823D01*
X133037Y409184D01*
X132874Y409425D01*
X132814Y409723D01*
X132814Y413678D01*
X129706Y416786D01*
X125310Y416786D01*
X125027Y416503D01*
X124807Y416350D01*
X124512Y416280D01*
X124213Y416331D01*
X123958Y416494D01*
X123786Y416744D01*
X123726Y417041D01*
X123726Y425431D01*
X123782Y425717D01*
X123949Y425970D01*
X130302Y432323D01*
X130302Y450143D01*
X130358Y450429D01*
X130525Y450681D01*
X133322Y453478D01*
X133322Y457874D01*
X130214Y460982D01*
X125818Y460982D01*
X122710Y457874D01*
X122710Y453478D01*
X125507Y450681D01*
X125670Y450440D01*
X125730Y450143D01*
X125730Y434532D01*
X125674Y434246D01*
X125507Y433993D01*
X119154Y427640D01*
X119154Y392451D01*
X119098Y392165D01*
X118931Y391912D01*
X111763Y384744D01*
X111543Y384591D01*
X111248Y384521D01*
X110949Y384572D01*
X110694Y384735D01*
X110522Y384985D01*
X110462Y385283D01*
X110462Y386246D01*
X107354Y389354D01*
X102958Y389354D01*
X100161Y386557D01*
X99920Y386394D01*
X99623Y386334D01*
X93541Y386334D01*
X67794Y360587D01*
X67553Y360424D01*
X67255Y360364D01*
X31729Y360364D01*
X30836Y359471D01*
X30836Y341209D01*
X31729Y340316D01*
X67991Y340316D01*
X68884Y341209D01*
X68884Y345633D01*
X68942Y345925D01*
X70024Y348537D01*
X70024Y352143D01*
X68986Y354648D01*
X68928Y354928D01*
X68984Y355226D01*
X69152Y355479D01*
X95212Y381539D01*
X95453Y381702D01*
X95751Y381762D01*
X99623Y381762D01*
X99909Y381706D01*
X100161Y381539D01*
X101685Y380015D01*
X101843Y379784D01*
X101908Y379488D01*
X101853Y379190D01*
X101685Y378937D01*
X99850Y377102D01*
X99850Y372706D01*
X102958Y369598D01*
X107354Y369598D01*
X110462Y372706D01*
X110462Y376661D01*
X110518Y376947D01*
X110685Y377200D01*
X119857Y386372D01*
X120077Y386525D01*
X120372Y386595D01*
X120671Y386544D01*
X120926Y386381D01*
X121098Y386131D01*
X121158Y385833D01*
X121158Y168217D01*
X130117Y159258D01*
X139631Y159258D01*
X148552Y168179D01*
X148793Y168342D01*
X149091Y168402D01*
X150456Y168402D01*
X150742Y168346D01*
X150995Y168179D01*
X156232Y162941D01*
X163808Y162941D01*
X169164Y168297D01*
X169164Y175873D01*
X163808Y181229D01*
X156232Y181229D01*
X150876Y175873D01*
X150876Y173736D01*
X150825Y173461D01*
X150661Y173206D01*
X150411Y173034D01*
X150114Y172974D01*
X146881Y172974D01*
X145065Y171158D01*
X144845Y171005D01*
X144550Y170935D01*
X144251Y170986D01*
X143996Y171149D01*
X143824Y171399D01*
X143764Y171697D01*
X143764Y175873D01*
X143686Y175951D01*
X143528Y176182D01*
X143462Y176478D01*
X143518Y176776D01*
X143686Y177029D01*
X148590Y181933D01*
X148590Y332493D01*
X148637Y332757D01*
X148796Y333015D01*
X149044Y333190D01*
X149340Y333255D01*
X149638Y333200D01*
X149891Y333032D01*
X149919Y333004D01*
X150082Y332763D01*
X150142Y332465D01*
X150142Y328510D01*
X153250Y325402D01*
X157646Y325402D01*
X160754Y328510D01*
X160754Y329473D01*
X160801Y329737D01*
X160960Y329995D01*
X161208Y330170D01*
X161504Y330235D01*
X161802Y330180D01*
X162055Y330012D01*
X172751Y319316D01*
X172914Y319075D01*
X172974Y318777D01*
X172974Y223465D01*
X172918Y223179D01*
X172751Y222927D01*
X169954Y220130D01*
X169954Y215734D01*
X173062Y212626D01*
X177458Y212626D01*
X180566Y215734D01*
X180566Y220130D01*
X177769Y222927D01*
X177606Y223168D01*
X177546Y223465D01*
X177546Y320987D01*
X162240Y336293D01*
X162087Y336513D01*
X162017Y336808D01*
X162068Y337107D01*
X162231Y337362D01*
X162481Y337534D01*
X162779Y337594D01*
X163742Y337594D01*
X166850Y340702D01*
X166850Y344657D01*
X166906Y344943D01*
X167073Y345196D01*
X183642Y361765D01*
X183642Y370895D01*
X183698Y371181D01*
X183865Y371433D01*
X186662Y374230D01*
X186662Y378626D01*
X183554Y381734D01*
X182591Y381734D01*
X182327Y381781D01*
X182069Y381940D01*
X181894Y382188D01*
X181829Y382484D01*
X181884Y382782D01*
X182052Y383035D01*
X227379Y428362D01*
X227599Y428515D01*
X227894Y428585D01*
X228193Y428534D01*
X228448Y428371D01*
X228620Y428121D01*
X228680Y427823D01*
X228680Y427302D01*
X239522Y427302D01*
X239522Y425778D01*
X228680Y425778D01*
X228680Y424535D01*
X229762Y421923D01*
X229820Y421631D01*
X229820Y416988D01*
X231308Y415500D01*
X249098Y415500D01*
X249098Y437580D01*
X231648Y437580D01*
X231373Y437631D01*
X231118Y437795D01*
X230946Y438045D01*
X230886Y438342D01*
X230886Y441154D01*
X230937Y441429D01*
X231101Y441684D01*
X231351Y441856D01*
X231648Y441916D01*
X267991Y441916D01*
X268884Y442809D01*
X268884Y461071D01*
X267991Y461964D01*
X231648Y461964D01*
X231373Y462015D01*
X231118Y462179D01*
X230946Y462429D01*
X230886Y462726D01*
X230886Y466554D01*
X230937Y466829D01*
X231101Y467084D01*
X231351Y467256D01*
X231648Y467316D01*
X267991Y467316D01*
X268884Y468209D01*
X268884Y486471D01*
X267991Y487364D01*
X231648Y487364D01*
X231373Y487415D01*
X231118Y487579D01*
X230946Y487829D01*
X230886Y488126D01*
X230886Y491954D01*
X230937Y492229D01*
X231101Y492484D01*
X231351Y492656D01*
X231648Y492716D01*
X267991Y492716D01*
X268884Y493609D01*
X268884Y511871D01*
X267991Y512764D01*
X231648Y512764D01*
X231373Y512815D01*
X231118Y512979D01*
X230946Y513229D01*
X230886Y513526D01*
X230886Y516897D01*
X230942Y517183D01*
X231109Y517436D01*
X231566Y517893D01*
X231807Y518056D01*
X232105Y518116D01*
X267991Y518116D01*
X268884Y519009D01*
X268884Y537271D01*
X268073Y538082D01*
X267915Y538313D01*
X267850Y538609D01*
X267905Y538907D01*
X268073Y539160D01*
X281178Y552265D01*
X281178Y708083D01*
X269171Y720090D01*
X268605Y720090D01*
X268342Y720137D01*
X268084Y720296D01*
X267908Y720544D01*
X267843Y720840D01*
X267899Y721138D01*
X268066Y721391D01*
X268884Y722209D01*
X268884Y739078D01*
X268935Y739353D01*
X269099Y739608D01*
X269349Y739780D01*
X269646Y739840D01*
X288798Y739840D01*
X289073Y739789D01*
X289328Y739625D01*
X289500Y739375D01*
X289560Y739078D01*
X289560Y237442D01*
X289511Y237173D01*
X289350Y236916D01*
X289101Y236742D01*
X288804Y236680D01*
X288506Y236738D01*
X282248Y239330D01*
X273432Y239330D01*
X268731Y237383D01*
X268546Y237341D01*
X268411Y237250D01*
X265287Y235956D01*
X259054Y229723D01*
X255680Y221578D01*
X255680Y212762D01*
X259054Y204617D01*
X265287Y198384D01*
X273432Y195010D01*
X282248Y195010D01*
X288506Y197602D01*
X288774Y197660D01*
X289073Y197609D01*
X289328Y197446D01*
X289500Y197196D01*
X289560Y196898D01*
X289560Y125428D01*
X289513Y125165D01*
X289354Y124907D01*
X289106Y124731D01*
X288810Y124666D01*
X288512Y124722D01*
X288259Y124889D01*
X284878Y128270D01*
X281432Y128270D01*
X281432Y107950D01*
X284878Y107950D01*
X288259Y111331D01*
X288479Y111484D01*
X288774Y111554D01*
X289073Y111503D01*
X289328Y111339D01*
X289500Y111089D01*
X289560Y110792D01*
X289560Y98591D01*
X289513Y98328D01*
X289354Y98070D01*
X289106Y97894D01*
G37*
%LPC*%
G36*
X31729Y695916D02*
X67991Y695916D01*
X68884Y696809D01*
X68884Y701233D01*
X68942Y701525D01*
X70024Y704137D01*
X70024Y707743D01*
X68942Y710355D01*
X68884Y710647D01*
X68884Y715071D01*
X67991Y715964D01*
X31729Y715964D01*
X30836Y715071D01*
X30836Y696809D01*
X31729Y695916D01*
G37*
G36*
X29820Y681302D02*
X49098Y681302D01*
X49098Y691580D01*
X31308Y691580D01*
X29820Y690092D01*
X29820Y681302D01*
G37*
G36*
X50622Y669500D02*
X68412Y669500D01*
X69900Y670988D01*
X69900Y675631D01*
X69958Y675923D01*
X71040Y678535D01*
X71040Y679778D01*
X60198Y679778D01*
X60198Y681302D01*
X71040Y681302D01*
X71040Y682545D01*
X69958Y685157D01*
X69900Y685449D01*
X69900Y690092D01*
X68412Y691580D01*
X50622Y691580D01*
X50622Y669500D01*
G37*
G36*
X31308Y669500D02*
X49098Y669500D01*
X49098Y679778D01*
X29820Y679778D01*
X29820Y670988D01*
X31308Y669500D01*
G37*
G36*
X114277Y654405D02*
X135433Y654405D01*
X135488Y654414D01*
X135489Y654417D01*
X135495Y654457D01*
X135495Y675613D01*
X135486Y675668D01*
X135483Y675669D01*
X135443Y675675D01*
X114287Y675675D01*
X114232Y675666D01*
X114231Y675663D01*
X114225Y675623D01*
X114225Y654467D01*
X114234Y654412D01*
X114237Y654411D01*
X114277Y654405D01*
G37*
G36*
X31729Y518116D02*
X67991Y518116D01*
X68884Y519009D01*
X68884Y523433D01*
X68942Y523725D01*
X70024Y526337D01*
X70024Y529943D01*
X68942Y532555D01*
X68884Y532847D01*
X68884Y533203D01*
X68940Y533489D01*
X69107Y533742D01*
X83058Y547693D01*
X83058Y657407D01*
X83114Y657693D01*
X83281Y657945D01*
X86078Y660742D01*
X86078Y665138D01*
X82970Y668246D01*
X78574Y668246D01*
X75466Y665138D01*
X75466Y660742D01*
X78263Y657945D01*
X78426Y657704D01*
X78486Y657407D01*
X78486Y549903D01*
X78430Y549617D01*
X78263Y549364D01*
X67286Y538387D01*
X67045Y538224D01*
X66747Y538164D01*
X31729Y538164D01*
X30836Y537271D01*
X30836Y519009D01*
X31729Y518116D01*
G37*
G36*
X31729Y645116D02*
X67991Y645116D01*
X68884Y646009D01*
X68884Y650433D01*
X68942Y650725D01*
X70024Y653337D01*
X70024Y656943D01*
X68942Y659555D01*
X68884Y659847D01*
X68884Y664271D01*
X67991Y665164D01*
X31729Y665164D01*
X30836Y664271D01*
X30836Y646009D01*
X31729Y645116D01*
G37*
G36*
X31729Y391116D02*
X67991Y391116D01*
X68884Y392009D01*
X68884Y396433D01*
X68942Y396725D01*
X70024Y399337D01*
X70024Y402943D01*
X68942Y405555D01*
X68884Y405847D01*
X68884Y406711D01*
X68940Y406997D01*
X69107Y407250D01*
X113538Y451681D01*
X113538Y548668D01*
X113589Y548943D01*
X113753Y549198D01*
X114003Y549370D01*
X114300Y549430D01*
X114974Y549430D01*
X118082Y552538D01*
X118082Y556934D01*
X114974Y560042D01*
X114300Y560042D01*
X114025Y560093D01*
X113770Y560257D01*
X113598Y560507D01*
X113538Y560804D01*
X113538Y587303D01*
X113594Y587589D01*
X113761Y587841D01*
X116558Y590638D01*
X116558Y595034D01*
X113450Y598142D01*
X109054Y598142D01*
X107191Y596279D01*
X106971Y596126D01*
X106676Y596056D01*
X106377Y596107D01*
X106122Y596270D01*
X105950Y596520D01*
X105890Y596817D01*
X105890Y598082D01*
X103093Y600879D01*
X102930Y601120D01*
X102870Y601417D01*
X102870Y612909D01*
X102926Y613195D01*
X103093Y613448D01*
X112924Y623279D01*
X113144Y623432D01*
X113439Y623502D01*
X113738Y623451D01*
X113993Y623288D01*
X114165Y623038D01*
X114225Y622740D01*
X114225Y604467D01*
X114234Y604412D01*
X114237Y604411D01*
X114277Y604405D01*
X135433Y604405D01*
X135488Y604414D01*
X135489Y604417D01*
X135495Y604457D01*
X135495Y624840D01*
X135546Y625115D01*
X135710Y625370D01*
X135960Y625542D01*
X136257Y625602D01*
X149283Y625602D01*
X150612Y626931D01*
X150853Y627094D01*
X151151Y627154D01*
X155106Y627154D01*
X158214Y630262D01*
X158214Y634658D01*
X155106Y637766D01*
X150710Y637766D01*
X147602Y634658D01*
X147602Y630936D01*
X147551Y630661D01*
X147387Y630406D01*
X147137Y630234D01*
X146840Y630174D01*
X136257Y630174D01*
X135982Y630225D01*
X135727Y630389D01*
X135555Y630639D01*
X135495Y630936D01*
X135495Y650613D01*
X135486Y650668D01*
X135483Y650669D01*
X135443Y650675D01*
X114287Y650675D01*
X114232Y650666D01*
X114231Y650663D01*
X114225Y650623D01*
X114225Y630936D01*
X114174Y630661D01*
X114010Y630406D01*
X113760Y630234D01*
X113463Y630174D01*
X113353Y630174D01*
X98298Y615119D01*
X98298Y601417D01*
X98242Y601131D01*
X98075Y600879D01*
X95278Y598082D01*
X95278Y593686D01*
X98386Y590578D01*
X102782Y590578D01*
X104645Y592441D01*
X104865Y592594D01*
X105160Y592664D01*
X105459Y592613D01*
X105714Y592450D01*
X105886Y592200D01*
X105946Y591903D01*
X105946Y590638D01*
X108743Y587841D01*
X108906Y587600D01*
X108966Y587303D01*
X108966Y558745D01*
X108910Y558459D01*
X108743Y558207D01*
X107470Y556934D01*
X107470Y552538D01*
X108743Y551265D01*
X108906Y551024D01*
X108966Y550727D01*
X108966Y453891D01*
X108910Y453605D01*
X108743Y453352D01*
X66778Y411387D01*
X66537Y411224D01*
X66239Y411164D01*
X31729Y411164D01*
X30836Y410271D01*
X30836Y392009D01*
X31729Y391116D01*
G37*
G36*
X31729Y619716D02*
X67991Y619716D01*
X68884Y620609D01*
X68884Y625033D01*
X68942Y625325D01*
X70024Y627937D01*
X70024Y631543D01*
X68942Y634155D01*
X68884Y634447D01*
X68884Y638871D01*
X67991Y639764D01*
X31729Y639764D01*
X30836Y638871D01*
X30836Y620609D01*
X31729Y619716D01*
G37*
G36*
X156298Y578386D02*
X160694Y578386D01*
X163802Y581494D01*
X163802Y585449D01*
X163830Y585593D01*
X163830Y608639D01*
X163886Y608925D01*
X164053Y609177D01*
X166850Y611974D01*
X166850Y616370D01*
X163742Y619478D01*
X159346Y619478D01*
X156238Y616370D01*
X156238Y611974D01*
X159035Y609177D01*
X159198Y608936D01*
X159258Y608639D01*
X159258Y589760D01*
X159207Y589485D01*
X159043Y589230D01*
X158793Y589058D01*
X158496Y588998D01*
X156298Y588998D01*
X153190Y585890D01*
X153190Y581494D01*
X156298Y578386D01*
G37*
G36*
X31729Y594316D02*
X67991Y594316D01*
X68884Y595209D01*
X68884Y599633D01*
X68942Y599925D01*
X70024Y602537D01*
X70024Y606143D01*
X68942Y608755D01*
X68884Y609047D01*
X68884Y613471D01*
X67991Y614364D01*
X31729Y614364D01*
X30836Y613471D01*
X30836Y595209D01*
X31729Y594316D01*
G37*
G36*
X31729Y568916D02*
X67991Y568916D01*
X68884Y569809D01*
X68884Y574233D01*
X68942Y574525D01*
X70024Y577137D01*
X70024Y580743D01*
X68942Y583355D01*
X68884Y583647D01*
X68884Y588071D01*
X67991Y588964D01*
X31729Y588964D01*
X30836Y588071D01*
X30836Y569809D01*
X31729Y568916D01*
G37*
G36*
X29820Y554302D02*
X49098Y554302D01*
X49098Y564580D01*
X31308Y564580D01*
X29820Y563092D01*
X29820Y554302D01*
G37*
G36*
X50622Y542500D02*
X68412Y542500D01*
X69900Y543988D01*
X69900Y548631D01*
X69958Y548923D01*
X71040Y551535D01*
X71040Y552778D01*
X60198Y552778D01*
X60198Y554302D01*
X71040Y554302D01*
X71040Y555545D01*
X69958Y558157D01*
X69900Y558449D01*
X69900Y563092D01*
X68412Y564580D01*
X50622Y564580D01*
X50622Y542500D01*
G37*
G36*
X31308Y542500D02*
X49098Y542500D01*
X49098Y552778D01*
X29820Y552778D01*
X29820Y543988D01*
X31308Y542500D01*
G37*
G36*
X31729Y492716D02*
X67991Y492716D01*
X68884Y493609D01*
X68884Y498033D01*
X68942Y498325D01*
X70024Y500937D01*
X70024Y504543D01*
X68942Y507155D01*
X68884Y507447D01*
X68884Y511871D01*
X67991Y512764D01*
X31729Y512764D01*
X30836Y511871D01*
X30836Y493609D01*
X31729Y492716D01*
G37*
G36*
X31729Y467316D02*
X67991Y467316D01*
X68884Y468209D01*
X68884Y472633D01*
X68942Y472925D01*
X70024Y475537D01*
X70024Y479143D01*
X68942Y481755D01*
X68884Y482047D01*
X68884Y486471D01*
X67991Y487364D01*
X31729Y487364D01*
X30836Y486471D01*
X30836Y468209D01*
X31729Y467316D01*
G37*
G36*
X31729Y441916D02*
X67991Y441916D01*
X68884Y442809D01*
X68884Y447233D01*
X68942Y447525D01*
X70024Y450137D01*
X70024Y453743D01*
X68942Y456355D01*
X68884Y456647D01*
X68884Y461071D01*
X67991Y461964D01*
X31729Y461964D01*
X30836Y461071D01*
X30836Y442809D01*
X31729Y441916D01*
G37*
G36*
X250622Y427302D02*
X269900Y427302D01*
X269900Y436092D01*
X268412Y437580D01*
X250622Y437580D01*
X250622Y427302D01*
G37*
G36*
X29820Y427302D02*
X49098Y427302D01*
X49098Y437580D01*
X31308Y437580D01*
X29820Y436092D01*
X29820Y427302D01*
G37*
G36*
X50622Y415500D02*
X68412Y415500D01*
X69900Y416988D01*
X69900Y421631D01*
X69958Y421923D01*
X71040Y424535D01*
X71040Y425778D01*
X60198Y425778D01*
X60198Y427302D01*
X71040Y427302D01*
X71040Y428545D01*
X69958Y431157D01*
X69900Y431449D01*
X69900Y436092D01*
X68412Y437580D01*
X50622Y437580D01*
X50622Y415500D01*
G37*
G36*
X250622Y415500D02*
X268412Y415500D01*
X269900Y416988D01*
X269900Y425778D01*
X250622Y425778D01*
X250622Y415500D01*
G37*
G36*
X31308Y415500D02*
X49098Y415500D01*
X49098Y425778D01*
X29820Y425778D01*
X29820Y416988D01*
X31308Y415500D01*
G37*
G36*
X171538Y329974D02*
X175934Y329974D01*
X178731Y332771D01*
X178972Y332934D01*
X179269Y332994D01*
X199067Y332994D01*
X231566Y365493D01*
X231807Y365656D01*
X232105Y365716D01*
X267991Y365716D01*
X268884Y366609D01*
X268884Y384871D01*
X267991Y385764D01*
X231648Y385764D01*
X231373Y385815D01*
X231118Y385979D01*
X230946Y386229D01*
X230886Y386526D01*
X230886Y390354D01*
X230937Y390629D01*
X231101Y390884D01*
X231351Y391056D01*
X231648Y391116D01*
X267991Y391116D01*
X268884Y392009D01*
X268884Y410271D01*
X267991Y411164D01*
X231729Y411164D01*
X230836Y410271D01*
X230836Y405847D01*
X230778Y405555D01*
X229696Y402943D01*
X229696Y399337D01*
X230479Y397446D01*
X230537Y397166D01*
X230482Y396868D01*
X230314Y396615D01*
X226314Y392615D01*
X226314Y379215D01*
X226258Y378929D01*
X226091Y378676D01*
X205016Y357601D01*
X204775Y357438D01*
X204477Y357378D01*
X196033Y357378D01*
X195747Y357434D01*
X195495Y357601D01*
X192698Y360398D01*
X188302Y360398D01*
X185194Y357290D01*
X185194Y352894D01*
X188302Y349786D01*
X192698Y349786D01*
X195495Y352583D01*
X195736Y352746D01*
X196033Y352806D01*
X206687Y352806D01*
X228395Y374514D01*
X228615Y374667D01*
X228910Y374737D01*
X229209Y374686D01*
X229464Y374523D01*
X229636Y374273D01*
X229696Y373975D01*
X229696Y373937D01*
X230628Y371686D01*
X230686Y371407D01*
X230631Y371109D01*
X230463Y370856D01*
X197396Y337789D01*
X197155Y337626D01*
X196857Y337566D01*
X179269Y337566D01*
X178983Y337622D01*
X178731Y337789D01*
X175934Y340586D01*
X171538Y340586D01*
X168430Y337478D01*
X168430Y333082D01*
X171538Y329974D01*
G37*
G36*
X31729Y365716D02*
X67991Y365716D01*
X68884Y366609D01*
X68884Y371033D01*
X68942Y371325D01*
X70024Y373937D01*
X70024Y377543D01*
X68942Y380155D01*
X68884Y380447D01*
X68884Y384871D01*
X67991Y385764D01*
X31729Y385764D01*
X30836Y384871D01*
X30836Y366609D01*
X31729Y365716D01*
G37*
G36*
X231729Y340316D02*
X267991Y340316D01*
X268884Y341209D01*
X268884Y359471D01*
X267991Y360364D01*
X231729Y360364D01*
X230836Y359471D01*
X230836Y355047D01*
X230778Y354755D01*
X229696Y352143D01*
X229696Y348537D01*
X230778Y345925D01*
X230836Y345633D01*
X230836Y341209D01*
X231729Y340316D01*
G37*
G36*
X31729Y314916D02*
X67991Y314916D01*
X68884Y315809D01*
X68884Y320233D01*
X68942Y320525D01*
X70024Y323137D01*
X70024Y326743D01*
X68942Y329355D01*
X68884Y329647D01*
X68884Y334071D01*
X67991Y334964D01*
X31729Y334964D01*
X30836Y334071D01*
X30836Y315809D01*
X31729Y314916D01*
G37*
G36*
X231729Y314916D02*
X267991Y314916D01*
X268884Y315809D01*
X268884Y334071D01*
X267991Y334964D01*
X231729Y334964D01*
X230836Y334071D01*
X230836Y329647D01*
X230778Y329355D01*
X229696Y326743D01*
X229696Y323137D01*
X230778Y320525D01*
X230836Y320233D01*
X230836Y315809D01*
X231729Y314916D01*
G37*
G36*
X29820Y300302D02*
X49098Y300302D01*
X49098Y310580D01*
X31308Y310580D01*
X29820Y309092D01*
X29820Y300302D01*
G37*
G36*
X231308Y288500D02*
X249098Y288500D01*
X249098Y310580D01*
X231308Y310580D01*
X229820Y309092D01*
X229820Y304449D01*
X229762Y304157D01*
X228680Y301545D01*
X228680Y300302D01*
X239522Y300302D01*
X239522Y298778D01*
X228680Y298778D01*
X228680Y297535D01*
X229762Y294923D01*
X229820Y294631D01*
X229820Y289988D01*
X231308Y288500D01*
G37*
G36*
X50622Y288500D02*
X68412Y288500D01*
X69900Y289988D01*
X69900Y294631D01*
X69958Y294923D01*
X71040Y297535D01*
X71040Y298778D01*
X60198Y298778D01*
X60198Y300302D01*
X71040Y300302D01*
X71040Y301545D01*
X69958Y304157D01*
X69900Y304449D01*
X69900Y309092D01*
X68412Y310580D01*
X50622Y310580D01*
X50622Y288500D01*
G37*
G36*
X250622Y300302D02*
X269900Y300302D01*
X269900Y309092D01*
X268412Y310580D01*
X250622Y310580D01*
X250622Y300302D01*
G37*
G36*
X31308Y288500D02*
X49098Y288500D01*
X49098Y298778D01*
X29820Y298778D01*
X29820Y289988D01*
X31308Y288500D01*
G37*
G36*
X250622Y288500D02*
X268412Y288500D01*
X269900Y289988D01*
X269900Y298778D01*
X250622Y298778D01*
X250622Y288500D01*
G37*
G36*
X31729Y264116D02*
X67991Y264116D01*
X68884Y265009D01*
X68884Y269433D01*
X68942Y269725D01*
X70024Y272337D01*
X70024Y275943D01*
X68942Y278555D01*
X68884Y278847D01*
X68884Y283271D01*
X67991Y284164D01*
X31729Y284164D01*
X30836Y283271D01*
X30836Y265009D01*
X31729Y264116D01*
G37*
G36*
X231729Y264116D02*
X267991Y264116D01*
X268884Y265009D01*
X268884Y283271D01*
X267991Y284164D01*
X231729Y284164D01*
X230836Y283271D01*
X230836Y278847D01*
X230778Y278555D01*
X229696Y275943D01*
X229696Y272337D01*
X230778Y269725D01*
X230836Y269433D01*
X230836Y265009D01*
X231729Y264116D01*
G37*
G36*
X195922Y218722D02*
X200318Y218722D01*
X203115Y221519D01*
X203356Y221682D01*
X203653Y221742D01*
X229547Y221742D01*
X236972Y229167D01*
X237213Y229330D01*
X237511Y229390D01*
X241466Y229390D01*
X244574Y232498D01*
X244574Y236894D01*
X244053Y237415D01*
X243900Y237635D01*
X243830Y237930D01*
X243881Y238229D01*
X244044Y238484D01*
X244294Y238656D01*
X244591Y238716D01*
X267991Y238716D01*
X268884Y239609D01*
X268884Y257871D01*
X267991Y258764D01*
X231729Y258764D01*
X230836Y257871D01*
X230836Y253447D01*
X230778Y253155D01*
X230496Y252474D01*
X230356Y252253D01*
X230111Y252074D01*
X229816Y252004D01*
X229517Y252055D01*
X229262Y252219D01*
X229090Y252469D01*
X229030Y252766D01*
X229030Y259373D01*
X225656Y267518D01*
X219423Y273752D01*
X211278Y277125D01*
X202462Y277125D01*
X194317Y273752D01*
X188084Y267518D01*
X184710Y259373D01*
X184710Y250557D01*
X188084Y242413D01*
X194317Y236179D01*
X202462Y232805D01*
X211278Y232805D01*
X219423Y236179D01*
X225656Y242413D01*
X228230Y248626D01*
X228370Y248847D01*
X228615Y249026D01*
X228910Y249096D01*
X229209Y249045D01*
X229464Y248882D01*
X229636Y248632D01*
X229696Y248334D01*
X229696Y246937D01*
X230778Y244325D01*
X230836Y244033D01*
X230836Y239609D01*
X231729Y238716D01*
X233945Y238716D01*
X234208Y238669D01*
X234466Y238510D01*
X234641Y238262D01*
X234706Y237966D01*
X234651Y237668D01*
X234483Y237415D01*
X233962Y236894D01*
X233962Y232939D01*
X233906Y232653D01*
X233739Y232400D01*
X227876Y226537D01*
X227635Y226374D01*
X227337Y226314D01*
X203653Y226314D01*
X203367Y226370D01*
X203115Y226537D01*
X200318Y229334D01*
X195922Y229334D01*
X192814Y226226D01*
X192814Y221830D01*
X195922Y218722D01*
G37*
G36*
X59690Y187052D02*
X67818Y187052D01*
X67818Y195180D01*
X66812Y195180D01*
X63544Y193827D01*
X61043Y191326D01*
X59690Y188058D01*
X59690Y187052D01*
G37*
G36*
X69342Y187052D02*
X77470Y187052D01*
X77470Y188058D01*
X76117Y191326D01*
X73616Y193827D01*
X70348Y195180D01*
X69342Y195180D01*
X69342Y187052D01*
G37*
G36*
X69342Y177400D02*
X70348Y177400D01*
X73616Y178753D01*
X76117Y181254D01*
X77470Y184522D01*
X77470Y185528D01*
X69342Y185528D01*
X69342Y177400D01*
G37*
G36*
X66812Y177400D02*
X67818Y177400D01*
X67818Y185528D01*
X59690Y185528D01*
X59690Y184522D01*
X61043Y181254D01*
X63544Y178753D01*
X66812Y177400D01*
G37*
G36*
X175260Y172847D02*
X184658Y172847D01*
X184658Y182245D01*
X181212Y182245D01*
X175260Y176293D01*
X175260Y172847D01*
G37*
G36*
X186182Y172847D02*
X195580Y172847D01*
X195580Y176293D01*
X189628Y182245D01*
X186182Y182245D01*
X186182Y172847D01*
G37*
G36*
X257832Y162306D02*
X265408Y162306D01*
X270764Y167662D01*
X270764Y175238D01*
X265408Y180594D01*
X257832Y180594D01*
X252476Y175238D01*
X252476Y167662D01*
X257832Y162306D01*
G37*
G36*
X232432Y162306D02*
X240008Y162306D01*
X245364Y167662D01*
X245364Y175238D01*
X240008Y180594D01*
X232432Y180594D01*
X227076Y175238D01*
X227076Y167662D01*
X232432Y162306D01*
G37*
G36*
X207032Y162306D02*
X214608Y162306D01*
X219964Y167662D01*
X219964Y175238D01*
X214608Y180594D01*
X207032Y180594D01*
X201676Y175238D01*
X201676Y167662D01*
X207032Y162306D01*
G37*
G36*
X186182Y161925D02*
X189628Y161925D01*
X195580Y167877D01*
X195580Y171323D01*
X186182Y171323D01*
X186182Y161925D01*
G37*
G36*
X181212Y161925D02*
X184658Y161925D01*
X184658Y171323D01*
X175260Y171323D01*
X175260Y167877D01*
X181212Y161925D01*
G37*
G36*
X113030Y118872D02*
X122428Y118872D01*
X122428Y128270D01*
X118982Y128270D01*
X113030Y122318D01*
X113030Y118872D01*
G37*
G36*
X270510Y118872D02*
X279908Y118872D01*
X279908Y128270D01*
X276462Y128270D01*
X270510Y122318D01*
X270510Y118872D01*
G37*
G36*
X191770Y118872D02*
X201168Y118872D01*
X201168Y128270D01*
X197722Y128270D01*
X191770Y122318D01*
X191770Y118872D01*
G37*
G36*
X202692Y118872D02*
X212090Y118872D01*
X212090Y122318D01*
X206138Y128270D01*
X202692Y128270D01*
X202692Y118872D01*
G37*
G36*
X123952Y118872D02*
X133350Y118872D01*
X133350Y122318D01*
X127398Y128270D01*
X123952Y128270D01*
X123952Y118872D01*
G37*
G36*
X276462Y107950D02*
X279908Y107950D01*
X279908Y117348D01*
X270510Y117348D01*
X270510Y113902D01*
X276462Y107950D01*
G37*
%LPD*%
G36*
X225860Y468133D02*
X225564Y468068D01*
X225266Y468123D01*
X225013Y468291D01*
X224702Y468602D01*
X220747Y468602D01*
X220461Y468658D01*
X220208Y468825D01*
X179004Y510029D01*
X178851Y510249D01*
X178781Y510544D01*
X178832Y510843D01*
X178995Y511098D01*
X179245Y511270D01*
X179543Y511330D01*
X180506Y511330D01*
X183614Y514438D01*
X183614Y518834D01*
X180817Y521631D01*
X180654Y521872D01*
X180594Y522169D01*
X180594Y529089D01*
X180650Y529375D01*
X180817Y529628D01*
X188214Y537025D01*
X188214Y608104D01*
X188265Y608379D01*
X188429Y608634D01*
X188679Y608806D01*
X188976Y608866D01*
X191174Y608866D01*
X194282Y611974D01*
X194282Y616370D01*
X191174Y619478D01*
X186778Y619478D01*
X186467Y619167D01*
X186247Y619014D01*
X185952Y618944D01*
X185653Y618995D01*
X185398Y619158D01*
X185226Y619408D01*
X185166Y619705D01*
X185166Y641865D01*
X185222Y642151D01*
X185389Y642404D01*
X228199Y685214D01*
X228413Y685364D01*
X228707Y685436D01*
X229006Y685388D01*
X229263Y685226D01*
X229437Y684978D01*
X229499Y684681D01*
X229441Y684383D01*
X228680Y682545D01*
X228680Y681302D01*
X239522Y681302D01*
X239522Y679778D01*
X228680Y679778D01*
X228680Y678535D01*
X229762Y675923D01*
X229820Y675631D01*
X229820Y670988D01*
X231308Y669500D01*
X249098Y669500D01*
X249098Y691580D01*
X236405Y691580D01*
X236141Y691627D01*
X235883Y691786D01*
X235708Y692034D01*
X235643Y692330D01*
X235698Y692628D01*
X235866Y692881D01*
X238678Y695693D01*
X238919Y695856D01*
X239217Y695916D01*
X267991Y695916D01*
X268884Y696809D01*
X268884Y712071D01*
X268931Y712335D01*
X269090Y712593D01*
X269338Y712768D01*
X269634Y712833D01*
X269932Y712778D01*
X270185Y712610D01*
X276383Y706412D01*
X276546Y706171D01*
X276606Y705873D01*
X276606Y566365D01*
X276559Y566102D01*
X276400Y565844D01*
X276152Y565669D01*
X275856Y565604D01*
X275558Y565659D01*
X275305Y565827D01*
X274994Y566138D01*
X271039Y566138D01*
X270753Y566194D01*
X270500Y566361D01*
X268507Y568354D01*
X268349Y568584D01*
X268284Y568881D01*
X268339Y569179D01*
X268507Y569432D01*
X268884Y569809D01*
X268884Y588071D01*
X267991Y588964D01*
X231729Y588964D01*
X230836Y588071D01*
X230836Y583647D01*
X230778Y583355D01*
X229696Y580743D01*
X229696Y577137D01*
X230778Y574525D01*
X230836Y574233D01*
X230836Y572813D01*
X230789Y572549D01*
X230630Y572291D01*
X230382Y572116D01*
X230086Y572051D01*
X229788Y572106D01*
X229535Y572274D01*
X215869Y585940D01*
X215706Y586181D01*
X215646Y586479D01*
X215646Y602543D01*
X215693Y602806D01*
X215852Y603064D01*
X216100Y603239D01*
X216396Y603304D01*
X216694Y603249D01*
X216947Y603081D01*
X217258Y602770D01*
X221654Y602770D01*
X224762Y605878D01*
X224762Y609833D01*
X224818Y610119D01*
X224985Y610372D01*
X234106Y619493D01*
X234347Y619656D01*
X234645Y619716D01*
X267991Y619716D01*
X268884Y620609D01*
X268884Y638871D01*
X267991Y639764D01*
X231687Y639764D01*
X231589Y639696D01*
X231292Y639631D01*
X230994Y639687D01*
X230741Y639854D01*
X229170Y641426D01*
X224775Y641426D01*
X221667Y638317D01*
X221667Y633922D01*
X221677Y633911D01*
X221835Y633681D01*
X221900Y633385D01*
X221844Y633087D01*
X221677Y632834D01*
X211074Y622231D01*
X211074Y584269D01*
X230497Y564846D01*
X230655Y564616D01*
X230720Y564320D01*
X230664Y564022D01*
X230497Y563769D01*
X229820Y563092D01*
X229820Y558449D01*
X229762Y558157D01*
X228680Y555545D01*
X228680Y554302D01*
X239522Y554302D01*
X239522Y552778D01*
X228680Y552778D01*
X228680Y551535D01*
X229762Y548923D01*
X229820Y548631D01*
X229820Y543988D01*
X230725Y543083D01*
X230878Y542863D01*
X230948Y542568D01*
X230897Y542269D01*
X230734Y542014D01*
X230484Y541842D01*
X230186Y541782D01*
X202129Y541782D01*
X201843Y541838D01*
X201591Y542005D01*
X198794Y544802D01*
X194398Y544802D01*
X191290Y541694D01*
X191290Y537298D01*
X194398Y534190D01*
X198794Y534190D01*
X201591Y536987D01*
X201832Y537150D01*
X202129Y537210D01*
X230074Y537210D01*
X230349Y537159D01*
X230604Y536995D01*
X230776Y536745D01*
X230836Y536448D01*
X230836Y532847D01*
X230778Y532555D01*
X229696Y529943D01*
X229696Y526337D01*
X230628Y524086D01*
X230686Y523807D01*
X230631Y523509D01*
X230463Y523256D01*
X226314Y519107D01*
X226314Y468829D01*
X226267Y468566D01*
X226108Y468308D01*
X225860Y468133D01*
G37*
%LPC*%
G36*
X250622Y681302D02*
X269900Y681302D01*
X269900Y690092D01*
X268412Y691580D01*
X250622Y691580D01*
X250622Y681302D01*
G37*
G36*
X250622Y669500D02*
X268412Y669500D01*
X269900Y670988D01*
X269900Y679778D01*
X250622Y679778D01*
X250622Y669500D01*
G37*
G36*
X231729Y645116D02*
X267991Y645116D01*
X268884Y646009D01*
X268884Y664271D01*
X267991Y665164D01*
X231729Y665164D01*
X230836Y664271D01*
X230836Y659847D01*
X230778Y659555D01*
X229696Y656943D01*
X229696Y653337D01*
X230778Y650725D01*
X230836Y650433D01*
X230836Y646009D01*
X231729Y645116D01*
G37*
G36*
X231729Y594316D02*
X267991Y594316D01*
X268884Y595209D01*
X268884Y613471D01*
X267991Y614364D01*
X231729Y614364D01*
X230836Y613471D01*
X230836Y609047D01*
X230778Y608755D01*
X229696Y606143D01*
X229696Y602537D01*
X230778Y599925D01*
X230836Y599633D01*
X230836Y595209D01*
X231729Y594316D01*
G37*
%LPD*%
G36*
X270981Y548601D02*
X270686Y548531D01*
X270387Y548582D01*
X270132Y548745D01*
X269960Y548995D01*
X269900Y549293D01*
X269900Y552778D01*
X249098Y552778D01*
X249098Y554302D01*
X269900Y554302D01*
X269900Y554764D01*
X269951Y555039D01*
X270115Y555294D01*
X270365Y555466D01*
X270662Y555526D01*
X274994Y555526D01*
X275305Y555837D01*
X275525Y555990D01*
X275820Y556060D01*
X276119Y556009D01*
X276374Y555846D01*
X276546Y555596D01*
X276606Y555299D01*
X276606Y554475D01*
X276550Y554189D01*
X276383Y553936D01*
X271201Y548754D01*
X270981Y548601D01*
G37*
G36*
X289095Y10220D02*
X288798Y10160D01*
X10922Y10160D01*
X10647Y10211D01*
X10392Y10375D01*
X10220Y10625D01*
X10160Y10922D01*
X10160Y86829D01*
X10207Y87092D01*
X10366Y87350D01*
X10614Y87526D01*
X10910Y87591D01*
X11208Y87535D01*
X11461Y87368D01*
X15262Y83566D01*
X22838Y83566D01*
X28194Y88922D01*
X28194Y96498D01*
X22838Y101854D01*
X15262Y101854D01*
X11461Y98052D01*
X11241Y97899D01*
X10946Y97830D01*
X10647Y97880D01*
X10392Y98044D01*
X10220Y98294D01*
X10160Y98591D01*
X10160Y112229D01*
X10207Y112492D01*
X10366Y112750D01*
X10614Y112926D01*
X10910Y112991D01*
X11208Y112935D01*
X11461Y112768D01*
X15262Y108966D01*
X22838Y108966D01*
X28194Y114322D01*
X28194Y115824D01*
X28245Y116099D01*
X28409Y116354D01*
X28659Y116526D01*
X28956Y116586D01*
X31427Y116586D01*
X32989Y118148D01*
X33209Y118301D01*
X33504Y118371D01*
X33803Y118320D01*
X33909Y118252D01*
X33909Y118872D01*
X43688Y118872D01*
X43688Y128651D01*
X44305Y128651D01*
X44254Y128724D01*
X44189Y129020D01*
X44244Y129318D01*
X44412Y129571D01*
X58636Y143795D01*
X58877Y143958D01*
X59175Y144018D01*
X68841Y144018D01*
X69127Y143962D01*
X69380Y143795D01*
X89423Y123752D01*
X89581Y123522D01*
X89646Y123226D01*
X89590Y122927D01*
X89423Y122675D01*
X88646Y121898D01*
X88646Y114322D01*
X94002Y108966D01*
X101578Y108966D01*
X102355Y109743D01*
X102585Y109901D01*
X102881Y109966D01*
X103179Y109910D01*
X103432Y109743D01*
X107257Y105918D01*
X128963Y105918D01*
X137884Y114839D01*
X138125Y115002D01*
X138423Y115062D01*
X166624Y115062D01*
X166899Y115011D01*
X167154Y114847D01*
X167326Y114597D01*
X167380Y114328D01*
X172874Y108834D01*
X172995Y108760D01*
X173170Y108512D01*
X173235Y108216D01*
X173180Y107918D01*
X173012Y107665D01*
X144056Y78709D01*
X143815Y78546D01*
X143517Y78486D01*
X55825Y78486D01*
X55539Y78542D01*
X55287Y78709D01*
X52490Y81506D01*
X48094Y81506D01*
X44986Y78398D01*
X44986Y74002D01*
X48094Y70894D01*
X52490Y70894D01*
X55287Y73691D01*
X55528Y73854D01*
X55825Y73914D01*
X145727Y73914D01*
X166085Y94272D01*
X166305Y94425D01*
X166600Y94495D01*
X166899Y94444D01*
X167154Y94281D01*
X167326Y94031D01*
X167386Y93733D01*
X167386Y88922D01*
X168902Y87407D01*
X169055Y87187D01*
X169124Y86892D01*
X169074Y86593D01*
X168910Y86338D01*
X168660Y86166D01*
X168363Y86106D01*
X163645Y86106D01*
X128816Y51277D01*
X128575Y51114D01*
X128277Y51054D01*
X80209Y51054D01*
X79923Y51110D01*
X79671Y51277D01*
X76874Y54074D01*
X72478Y54074D01*
X69370Y50966D01*
X69370Y46570D01*
X72478Y43462D01*
X76874Y43462D01*
X79671Y46259D01*
X79912Y46422D01*
X80209Y46482D01*
X130487Y46482D01*
X161033Y77028D01*
X161253Y77181D01*
X161548Y77251D01*
X161847Y77200D01*
X162102Y77037D01*
X162274Y76787D01*
X162334Y76489D01*
X162334Y75526D01*
X165442Y72418D01*
X169838Y72418D01*
X172635Y75215D01*
X172876Y75378D01*
X173173Y75438D01*
X241739Y75438D01*
X250136Y83835D01*
X250366Y83993D01*
X250662Y84058D01*
X250961Y84002D01*
X251213Y83835D01*
X251482Y83566D01*
X259057Y83566D01*
X264414Y88922D01*
X264414Y96498D01*
X259057Y101854D01*
X251482Y101854D01*
X246126Y96498D01*
X246126Y88922D01*
X246903Y88145D01*
X247061Y87915D01*
X247126Y87619D01*
X247070Y87321D01*
X246903Y87068D01*
X240068Y80233D01*
X239827Y80070D01*
X239529Y80010D01*
X208527Y80010D01*
X208263Y80057D01*
X208005Y80216D01*
X207830Y80464D01*
X207765Y80760D01*
X207820Y81058D01*
X207988Y81311D01*
X232400Y105723D01*
X232641Y105886D01*
X232939Y105946D01*
X236894Y105946D01*
X240002Y109054D01*
X240002Y113450D01*
X239691Y113761D01*
X239538Y113981D01*
X239468Y114276D01*
X239519Y114575D01*
X239682Y114830D01*
X239932Y115002D01*
X240229Y115062D01*
X245364Y115062D01*
X245639Y115011D01*
X245894Y114847D01*
X246066Y114597D01*
X246120Y114328D01*
X251482Y108966D01*
X257584Y108966D01*
X257859Y108915D01*
X258114Y108751D01*
X258286Y108501D01*
X258346Y108204D01*
X258346Y106006D01*
X261454Y102898D01*
X265409Y102898D01*
X265695Y102842D01*
X265948Y102675D01*
X271303Y97320D01*
X271466Y97079D01*
X271526Y96782D01*
X271526Y88922D01*
X276882Y83566D01*
X284457Y83566D01*
X288259Y87368D01*
X288479Y87521D01*
X288774Y87591D01*
X289073Y87540D01*
X289328Y87376D01*
X289500Y87126D01*
X289560Y86829D01*
X289560Y10922D01*
X289509Y10647D01*
X289345Y10392D01*
X289095Y10220D01*
G37*
%LPC*%
G36*
X45212Y118872D02*
X54610Y118872D01*
X54610Y122318D01*
X48658Y128270D01*
X45212Y128270D01*
X45212Y118872D01*
G37*
G36*
X45212Y107950D02*
X48658Y107950D01*
X54610Y113902D01*
X54610Y117348D01*
X45212Y117348D01*
X45212Y107950D01*
G37*
G36*
X40242Y107950D02*
X43688Y107950D01*
X43688Y117348D01*
X34290Y117348D01*
X34290Y113902D01*
X40242Y107950D01*
G37*
G36*
X94002Y83566D02*
X101578Y83566D01*
X106934Y88922D01*
X106934Y96498D01*
X101578Y101854D01*
X94002Y101854D01*
X88646Y96498D01*
X88646Y88922D01*
X94002Y83566D01*
G37*
G36*
X40662Y83566D02*
X48238Y83566D01*
X53594Y88922D01*
X53594Y96498D01*
X48238Y101854D01*
X40662Y101854D01*
X35306Y96498D01*
X35306Y88922D01*
X40662Y83566D01*
G37*
G36*
X119402Y83566D02*
X126978Y83566D01*
X132334Y88922D01*
X132334Y96498D01*
X126978Y101854D01*
X119402Y101854D01*
X114046Y96498D01*
X114046Y88922D01*
X119402Y83566D01*
G37*
%LPD*%
D10*
X68580Y161290D03*
X68580Y186290D03*
D11*
X261620Y171450D03*
X236220Y171450D03*
X210820Y171450D03*
X134620Y172085D03*
X185420Y172085D03*
X160020Y172085D03*
X19050Y92710D03*
X19050Y118110D03*
X44450Y92710D03*
X44450Y118110D03*
X97790Y92710D03*
X97790Y118110D03*
X123190Y92710D03*
X123190Y118110D03*
X176530Y92710D03*
X176530Y118110D03*
X201930Y92710D03*
X201930Y118110D03*
X255270Y92710D03*
X255270Y118110D03*
X280670Y92710D03*
X280670Y118110D03*
D12*
X60960Y731340D03*
X60960Y705940D03*
X60960Y578940D03*
X60960Y553540D03*
X60960Y680540D03*
X60960Y655140D03*
X60960Y604340D03*
X60960Y629740D03*
X60960Y528140D03*
X60960Y502740D03*
X60960Y477340D03*
X60960Y451940D03*
X60960Y426540D03*
X60960Y401140D03*
X60960Y375740D03*
X60960Y350340D03*
X60960Y324940D03*
X60960Y299540D03*
X60960Y274140D03*
X60960Y248740D03*
X238760Y248740D03*
X238760Y274140D03*
X238760Y299540D03*
X238760Y324940D03*
X238760Y350340D03*
X238760Y375740D03*
X238760Y401140D03*
X238760Y426540D03*
X238760Y451940D03*
X238760Y477340D03*
X238760Y502740D03*
X238760Y528140D03*
X238760Y553540D03*
X238760Y578940D03*
X238760Y604340D03*
X238760Y629740D03*
X238760Y655140D03*
X238760Y680540D03*
X238760Y705940D03*
X238760Y731340D03*
D13*
X49860Y731340D03*
X49860Y705940D03*
X49860Y680540D03*
X49860Y655140D03*
X49860Y629740D03*
X49860Y604340D03*
X49860Y578940D03*
X49860Y553540D03*
X49860Y528140D03*
X49860Y502740D03*
X49860Y477340D03*
X49860Y451940D03*
X49860Y426540D03*
X49860Y401140D03*
X49860Y375740D03*
X49860Y350340D03*
X49860Y324940D03*
X49860Y299540D03*
X49860Y274140D03*
X49860Y248740D03*
X249860Y248740D03*
X249860Y274140D03*
X249860Y299540D03*
X249860Y324940D03*
X249860Y350340D03*
X249860Y375740D03*
X249860Y401140D03*
X249860Y426540D03*
X249860Y451940D03*
X249860Y477340D03*
X249860Y502740D03*
X249860Y528140D03*
X249860Y553540D03*
X249860Y578940D03*
X249860Y604340D03*
X249860Y629740D03*
X249860Y655140D03*
X249860Y680540D03*
X249860Y705940D03*
X249860Y731340D03*
D14*
X248412Y731520D02*
X239268Y731520D01*
X238760Y731340D01*
X248412Y731520D02*
X249860Y731340D01*
X80772Y662940D02*
X80772Y548640D01*
X60960Y528828D01*
X49860Y528140D01*
X60960Y528140D02*
X60960Y528828D01*
X49860Y528140D01*
D15*
X80772Y662940D03*
D14*
X60960Y426720D02*
X50292Y426720D01*
X49860Y426540D01*
X60960Y426540D02*
X60960Y426720D01*
X60960Y300228D02*
X50292Y300228D01*
X49860Y299540D01*
X60960Y299540D02*
X60960Y300228D01*
X48768Y425196D02*
X44196Y425196D01*
X28956Y409956D01*
X28956Y315468D01*
X44196Y300228D01*
X48768Y300228D01*
X48768Y425196D02*
X49860Y426540D01*
X48768Y300228D02*
X49860Y299540D01*
X50292Y553212D02*
X60960Y553212D01*
X60960Y553540D01*
X50292Y553212D02*
X49860Y553540D01*
X50292Y681228D02*
X60960Y681228D01*
X50292Y681228D02*
X49860Y680540D01*
X60960Y680540D02*
X60960Y681228D01*
X60960Y559308D02*
X60960Y554736D01*
X60960Y559308D02*
X71628Y569976D01*
X71628Y669036D01*
X60960Y679704D01*
X60960Y554736D02*
X60960Y553540D01*
X60960Y679704D02*
X60960Y680540D01*
X192024Y583692D02*
X208788Y583692D01*
X237744Y554736D01*
X249860Y553540D01*
X239268Y554736D02*
X238760Y553540D01*
X239268Y554736D02*
X249860Y553540D01*
X248412Y681228D02*
X239268Y681228D01*
X248412Y681228D02*
X249860Y680540D01*
X239268Y681228D02*
X238760Y680540D01*
X208788Y650748D02*
X208788Y583692D01*
X208788Y650748D02*
X237744Y679704D01*
X238760Y680540D01*
X44196Y428244D02*
X44196Y425196D01*
X44196Y428244D02*
X28956Y443484D01*
X28956Y537972D01*
X44196Y553212D01*
X48768Y553212D01*
X49860Y426540D02*
X44196Y425196D01*
X48768Y553212D02*
X49860Y553540D01*
X185928Y170688D02*
X185928Y134112D01*
X201168Y118872D01*
X185928Y170688D02*
X185420Y172085D01*
X201168Y118872D02*
X201930Y118110D01*
X269748Y118872D02*
X280416Y118872D01*
X269748Y118872D02*
X260604Y128016D01*
X211836Y128016D01*
X202692Y118872D01*
X280416Y118872D02*
X280670Y118110D01*
X202692Y118872D02*
X201930Y118110D01*
X121920Y118872D02*
X121920Y128016D01*
X78761Y171029D01*
X78761Y176109D01*
X68580Y186290D01*
X121920Y118872D02*
X123190Y118110D01*
X239268Y300228D02*
X248412Y300228D01*
X239268Y300228D02*
X238760Y299540D01*
X248412Y300228D02*
X249860Y299540D01*
X190500Y365760D02*
X190500Y377952D01*
X237744Y425196D01*
X249860Y426540D01*
X202692Y361188D02*
X195072Y361188D01*
X190500Y365760D01*
X199644Y300228D02*
X237744Y300228D01*
X199644Y300228D02*
X167640Y332232D01*
X167640Y342900D01*
X190500Y365760D01*
X237744Y300228D02*
X238760Y299540D01*
X237744Y425196D02*
X249860Y426540D01*
X238760Y426540D02*
X237744Y425196D01*
X184404Y248412D02*
X184404Y172212D01*
X184404Y248412D02*
X182880Y249936D01*
X182880Y283464D01*
X199644Y300228D01*
X184404Y172212D02*
X185420Y172085D01*
X82296Y298704D02*
X60960Y298704D01*
X82296Y298704D02*
X115824Y265176D01*
X115824Y239268D01*
X70807Y194251D01*
X60960Y298704D02*
X60960Y299540D01*
X70807Y194251D02*
X68580Y186290D01*
D15*
X192024Y583692D03*
X190500Y365760D03*
X202692Y361188D03*
D14*
X111252Y452628D02*
X111252Y554736D01*
X111252Y592836D01*
X111252Y452628D02*
X60960Y402336D01*
X49860Y401140D01*
X111252Y554736D02*
X112776Y554736D01*
X60960Y402336D02*
X60960Y401140D01*
X60960Y402336D02*
X49860Y401140D01*
D15*
X111252Y592836D03*
X112776Y554736D03*
D14*
X239268Y630936D02*
X248412Y630936D01*
X249860Y629740D01*
X239268Y630936D02*
X238760Y629740D01*
X134112Y404876D02*
X134112Y399288D01*
X134112Y404876D02*
X127508Y411480D01*
X147828Y170688D02*
X160020Y170688D01*
X147828Y170688D02*
X138684Y161544D01*
X131064Y161544D01*
X123444Y169164D01*
X123444Y388620D01*
X134112Y399288D01*
X160020Y172085D02*
X160020Y170688D01*
X237744Y626364D02*
X237744Y629412D01*
X237744Y626364D02*
X219456Y608076D01*
X237744Y629412D02*
X238760Y629740D01*
D15*
X134112Y399288D03*
X127508Y411480D03*
X219456Y608076D03*
D14*
X152908Y632460D02*
X148336Y627888D01*
X114300Y627888D01*
X100584Y614172D01*
X100584Y595884D01*
D15*
X152908Y632460D03*
X100584Y595884D03*
D14*
X239268Y705612D02*
X248412Y705612D01*
X239268Y705612D02*
X238760Y705940D01*
X248412Y705612D02*
X249860Y705940D01*
X70104Y161290D02*
X70104Y146304D01*
X97536Y118872D01*
X70104Y161290D02*
X68580Y161290D01*
X97536Y118872D02*
X97790Y118110D01*
X30480Y118872D02*
X19812Y118872D01*
X30480Y118872D02*
X57912Y146304D01*
X70104Y146304D01*
X19812Y118872D02*
X19050Y118110D01*
X137160Y117348D02*
X175260Y117348D01*
X137160Y117348D02*
X128016Y108204D01*
X108204Y108204D01*
X99060Y117348D01*
X175260Y117348D02*
X176530Y118110D01*
X99060Y117348D02*
X97790Y118110D01*
X237744Y697992D02*
X237744Y705612D01*
X237744Y697992D02*
X182880Y643128D01*
X182880Y539496D01*
X146304Y502920D01*
X146304Y182880D01*
X135636Y172212D01*
X237744Y705612D02*
X238760Y705940D01*
X135636Y172212D02*
X134620Y172085D01*
X216408Y117348D02*
X254508Y117348D01*
X216408Y117348D02*
X207264Y108204D01*
X185928Y108204D01*
X176784Y117348D01*
X254508Y117348D02*
X255270Y118110D01*
X176784Y117348D02*
X176530Y118110D01*
X60960Y502920D02*
X50292Y502920D01*
X49860Y502740D01*
X60960Y502740D02*
X60960Y502920D01*
D15*
X128016Y455676D03*
X105156Y374904D03*
D14*
X128016Y433270D02*
X128016Y455676D01*
X128016Y433270D02*
X121440Y426694D01*
X121440Y391188D02*
X105156Y374904D01*
X121440Y391188D02*
X121440Y426694D01*
X105156Y384048D02*
X94488Y384048D01*
X60960Y350520D01*
X49860Y350340D01*
X60960Y350340D02*
X60960Y350520D01*
X49860Y350340D01*
D15*
X105156Y384048D03*
D14*
X60960Y326136D02*
X50292Y326136D01*
X49860Y324940D01*
X60960Y324940D02*
X60960Y326136D01*
X178308Y516636D02*
X178308Y530352D01*
X185928Y537972D01*
X185928Y611124D01*
X188976Y614172D01*
X239268Y326136D02*
X248412Y326136D01*
X249860Y324940D01*
X239268Y326136D02*
X238760Y324940D01*
D15*
X178308Y516636D03*
X188976Y614172D03*
D14*
X239268Y350520D02*
X248412Y350520D01*
X239268Y350520D02*
X238760Y350340D01*
X248412Y350520D02*
X249860Y350340D01*
X222504Y463296D02*
X169164Y516636D01*
D15*
X169164Y516636D03*
X222504Y463296D03*
D14*
X161544Y586740D02*
X161544Y614172D01*
X161544Y586740D02*
X158496Y583692D01*
X239268Y502920D02*
X248412Y502920D01*
X249860Y502740D01*
X239268Y502920D02*
X238760Y502740D01*
D15*
X161544Y614172D03*
X158496Y583692D03*
D14*
X198120Y224028D02*
X228600Y224028D01*
X239268Y234696D01*
X272796Y560832D02*
X266700Y566928D01*
X231648Y566928D01*
X213360Y585216D01*
X213360Y621284D01*
X170688Y589788D02*
X170688Y576072D01*
X170688Y589788D02*
X176784Y595884D01*
X176784Y637032D01*
D15*
X198120Y224028D03*
X239268Y234696D03*
X272796Y560832D03*
X226973Y636120D03*
X170688Y576072D03*
X176784Y637032D03*
D14*
X213360Y621284D02*
X226973Y634897D01*
X226973Y636120D01*
X198120Y335280D02*
X173736Y335280D01*
X198120Y335280D02*
X237744Y374904D01*
X238760Y375740D01*
X239268Y376428D02*
X248412Y376428D01*
X249860Y375740D01*
X239268Y376428D02*
X238760Y375740D01*
D15*
X173736Y335280D03*
D14*
X239268Y400812D02*
X248412Y400812D01*
X239268Y400812D02*
X238760Y401140D01*
X248412Y400812D02*
X249860Y401140D01*
X205740Y355092D02*
X190500Y355092D01*
X205740Y355092D02*
X228600Y377952D01*
X228600Y391668D01*
X237744Y400812D01*
X238760Y401140D01*
D15*
X190500Y355092D03*
D14*
X161544Y365760D02*
X228600Y432816D01*
X228600Y518160D01*
X237744Y527304D01*
X249860Y528140D01*
X239268Y527304D02*
X238760Y528140D01*
X239268Y527304D02*
X249860Y528140D01*
D15*
X161544Y365760D03*
D14*
X175260Y320040D02*
X175260Y217932D01*
X175260Y320040D02*
X155448Y339852D01*
X155448Y368808D01*
X169164Y382524D01*
X176784Y390144D02*
X176784Y457200D01*
X176784Y390144D02*
X169164Y382524D01*
D15*
X175260Y217932D03*
X169164Y382524D03*
X176784Y457200D03*
D14*
X169164Y463296D02*
X169164Y391668D01*
X152400Y374904D01*
X152400Y333756D01*
X155448Y330708D01*
D15*
X169164Y463296D03*
X155448Y330708D03*
D14*
X167640Y77724D02*
X240792Y77724D01*
X254508Y91440D01*
X255270Y92710D01*
D15*
X167640Y77724D03*
D14*
X263652Y108204D02*
X280416Y91440D01*
X280670Y92710D01*
D15*
X263652Y108204D03*
D14*
X129540Y48768D02*
X74676Y48768D01*
X129540Y48768D02*
X164592Y83820D01*
X170688Y83820D01*
X172212Y82296D01*
X205740Y82296D01*
X234696Y111252D01*
D15*
X74676Y48768D03*
X234696Y111252D03*
D14*
X144780Y76200D02*
X50292Y76200D01*
X144780Y76200D02*
X173736Y105156D01*
X213360Y105156D01*
D15*
X50292Y76200D03*
X213360Y105156D03*
D14*
X60960Y376428D02*
X50292Y376428D01*
X49860Y375740D01*
X60960Y375740D02*
X60960Y376428D01*
X181356Y376428D02*
X181356Y362712D01*
X161544Y342900D01*
D15*
X181356Y376428D03*
X161544Y342900D03*
D14*
X170688Y598932D02*
X170688Y656844D01*
X231648Y717804D01*
X268224Y717804D01*
X278892Y707136D01*
X278892Y553212D01*
X265176Y539496D01*
X196596Y539496D01*
D15*
X170688Y598932D03*
X196596Y539496D03*
M02*
