G04 EAGLE Gerber RS-274X export*
G75*
%MOMM*%
%FSLAX34Y34*%
%LPD*%
%INTop Copper*%
%IPPOS*%
%AMOC8*
5,1,8,0,0,1.08239X$1,22.5*%
G01*
G04 Define Apertures*
%ADD10C,1.270000*%
%ADD11P,1.64956X8X22.5*%
%ADD12C,1.508000*%
%ADD13R,3.500000X1.700000*%
%ADD14C,0.152400*%
%ADD15C,0.756400*%
G36*
X11214Y236467D02*
X10946Y236409D01*
X10647Y236460D01*
X10392Y236624D01*
X10220Y236874D01*
X10160Y237171D01*
X10160Y739078D01*
X10211Y739353D01*
X10375Y739608D01*
X10625Y739780D01*
X10922Y739840D01*
X30074Y739840D01*
X30349Y739789D01*
X30604Y739625D01*
X30776Y739375D01*
X30836Y739078D01*
X30836Y722209D01*
X31729Y721316D01*
X67991Y721316D01*
X68884Y722209D01*
X68884Y726633D01*
X68942Y726925D01*
X69234Y727630D01*
X69374Y727851D01*
X69619Y728030D01*
X69914Y728100D01*
X70213Y728049D01*
X70468Y727886D01*
X70640Y727635D01*
X70700Y727338D01*
X70700Y721697D01*
X74074Y713553D01*
X80307Y707319D01*
X88452Y703945D01*
X97268Y703945D01*
X105413Y707319D01*
X110924Y712830D01*
X111144Y712983D01*
X111439Y713053D01*
X111738Y713002D01*
X111993Y712839D01*
X112165Y712589D01*
X112225Y712292D01*
X112225Y691467D01*
X112234Y691412D01*
X112237Y691411D01*
X112277Y691405D01*
X187433Y691405D01*
X187488Y691414D01*
X187489Y691417D01*
X187495Y691457D01*
X187495Y712292D01*
X187542Y712555D01*
X187701Y712813D01*
X187949Y712988D01*
X188245Y713054D01*
X188543Y712998D01*
X188796Y712830D01*
X194307Y707319D01*
X202452Y703945D01*
X211268Y703945D01*
X219413Y707319D01*
X225646Y713553D01*
X229020Y721697D01*
X229020Y727338D01*
X229065Y727596D01*
X229222Y727855D01*
X229468Y728033D01*
X229764Y728100D01*
X230062Y728047D01*
X230317Y727881D01*
X230486Y727630D01*
X230778Y726925D01*
X230836Y726633D01*
X230836Y722209D01*
X231729Y721316D01*
X267991Y721316D01*
X268884Y722209D01*
X268884Y739078D01*
X268935Y739353D01*
X269099Y739608D01*
X269349Y739780D01*
X269646Y739840D01*
X289078Y739840D01*
X289353Y739789D01*
X289608Y739625D01*
X289780Y739375D01*
X289840Y739078D01*
X289840Y237867D01*
X289791Y237598D01*
X289630Y237341D01*
X289381Y237168D01*
X289084Y237105D01*
X288786Y237163D01*
X282347Y239830D01*
X273333Y239830D01*
X269655Y238307D01*
X269400Y238250D01*
X269100Y238296D01*
X268842Y238455D01*
X268667Y238702D01*
X268602Y238999D01*
X268657Y239297D01*
X268825Y239550D01*
X268884Y239609D01*
X268884Y257871D01*
X267991Y258764D01*
X231729Y258764D01*
X230836Y257871D01*
X230836Y253447D01*
X230778Y253155D01*
X230496Y252474D01*
X230356Y252253D01*
X230111Y252074D01*
X229816Y252004D01*
X229517Y252055D01*
X229262Y252219D01*
X229090Y252469D01*
X229030Y252766D01*
X229030Y259373D01*
X225656Y267518D01*
X219423Y273752D01*
X211278Y277125D01*
X202462Y277125D01*
X194317Y273752D01*
X188084Y267518D01*
X185108Y260334D01*
X184968Y260113D01*
X184723Y259934D01*
X184428Y259864D01*
X184129Y259915D01*
X183874Y260078D01*
X183702Y260328D01*
X183642Y260626D01*
X183642Y367847D01*
X183698Y368133D01*
X183865Y368385D01*
X186662Y371182D01*
X186662Y375578D01*
X183554Y378686D01*
X179158Y378686D01*
X176361Y375889D01*
X176120Y375726D01*
X175823Y375666D01*
X174999Y375666D01*
X174713Y375722D01*
X174460Y375889D01*
X173169Y377180D01*
X173006Y377421D01*
X172946Y377719D01*
X172946Y381674D01*
X169838Y384782D01*
X168875Y384782D01*
X168611Y384829D01*
X168353Y384988D01*
X168178Y385236D01*
X168113Y385532D01*
X168168Y385830D01*
X168336Y386083D01*
X195446Y413193D01*
X195676Y413351D01*
X195972Y413416D01*
X196271Y413360D01*
X196523Y413193D01*
X198970Y410746D01*
X203366Y410746D01*
X206474Y413854D01*
X206474Y418250D01*
X203366Y421358D01*
X198970Y421358D01*
X196173Y418561D01*
X195932Y418398D01*
X195635Y418338D01*
X194125Y418338D01*
X165131Y389344D01*
X164911Y389191D01*
X164616Y389121D01*
X164317Y389172D01*
X164062Y389335D01*
X163890Y389585D01*
X163830Y389883D01*
X163830Y417837D01*
X163886Y418123D01*
X164053Y418376D01*
X229535Y483858D01*
X229755Y484011D01*
X230050Y484081D01*
X230349Y484030D01*
X230604Y483867D01*
X230776Y483617D01*
X230836Y483319D01*
X230836Y482047D01*
X230778Y481755D01*
X229696Y479143D01*
X229696Y475537D01*
X230778Y472925D01*
X230836Y472633D01*
X230836Y468209D01*
X231729Y467316D01*
X267991Y467316D01*
X268884Y468209D01*
X268884Y486471D01*
X268581Y486774D01*
X268423Y487005D01*
X268358Y487301D01*
X268413Y487599D01*
X268581Y487852D01*
X272034Y491305D01*
X272034Y538919D01*
X268971Y541982D01*
X268813Y542212D01*
X268748Y542508D01*
X268804Y542806D01*
X268971Y543059D01*
X269900Y543988D01*
X269900Y552778D01*
X249098Y552778D01*
X249098Y554302D01*
X269900Y554302D01*
X269900Y563092D01*
X269299Y563693D01*
X269141Y563923D01*
X269076Y564219D01*
X269132Y564518D01*
X269299Y564770D01*
X275082Y570553D01*
X275082Y573587D01*
X275138Y573873D01*
X275305Y574125D01*
X278102Y576922D01*
X278102Y581318D01*
X274994Y584426D01*
X270598Y584426D01*
X270185Y584013D01*
X269965Y583860D01*
X269670Y583790D01*
X269371Y583841D01*
X269116Y584004D01*
X268944Y584254D01*
X268884Y584551D01*
X268884Y588071D01*
X268327Y588628D01*
X268169Y588859D01*
X268104Y589155D01*
X268159Y589453D01*
X268327Y589706D01*
X272034Y593413D01*
X272034Y641027D01*
X269171Y643890D01*
X268605Y643890D01*
X268342Y643937D01*
X268084Y644096D01*
X267908Y644344D01*
X267843Y644640D01*
X267899Y644938D01*
X268066Y645191D01*
X268884Y646009D01*
X268884Y664271D01*
X267991Y665164D01*
X231648Y665164D01*
X231373Y665215D01*
X231118Y665379D01*
X230946Y665629D01*
X230886Y665926D01*
X230886Y668738D01*
X230937Y669013D01*
X231101Y669268D01*
X231351Y669440D01*
X231648Y669500D01*
X249098Y669500D01*
X249098Y691580D01*
X236405Y691580D01*
X236141Y691627D01*
X235883Y691786D01*
X235708Y692034D01*
X235643Y692330D01*
X235698Y692628D01*
X235866Y692881D01*
X238678Y695693D01*
X238919Y695856D01*
X239217Y695916D01*
X267991Y695916D01*
X268884Y696809D01*
X268884Y715071D01*
X267991Y715964D01*
X231729Y715964D01*
X230836Y715071D01*
X230836Y710647D01*
X230778Y710355D01*
X229696Y707743D01*
X229696Y704137D01*
X230778Y701525D01*
X230836Y701233D01*
X230836Y696809D01*
X231543Y696102D01*
X231701Y695871D01*
X231766Y695575D01*
X231711Y695277D01*
X231543Y695024D01*
X226314Y689795D01*
X226314Y645229D01*
X231215Y640328D01*
X231373Y640098D01*
X231438Y639801D01*
X231383Y639503D01*
X231215Y639250D01*
X230836Y638871D01*
X230836Y634447D01*
X230778Y634155D01*
X229696Y631543D01*
X229696Y627937D01*
X230479Y626046D01*
X230537Y625766D01*
X230482Y625468D01*
X230314Y625215D01*
X198892Y593793D01*
X198651Y593630D01*
X198353Y593570D01*
X194398Y593570D01*
X191290Y590462D01*
X191290Y586507D01*
X191234Y586221D01*
X191067Y585968D01*
X189776Y584677D01*
X189535Y584514D01*
X189237Y584454D01*
X130501Y584454D01*
X130215Y584510D01*
X129963Y584677D01*
X127166Y587474D01*
X122770Y587474D01*
X119973Y584677D01*
X119732Y584514D01*
X119435Y584454D01*
X118309Y584454D01*
X118046Y584501D01*
X117788Y584660D01*
X117613Y584908D01*
X117548Y585204D01*
X117603Y585502D01*
X117771Y585755D01*
X118082Y586066D01*
X118082Y590021D01*
X118138Y590307D01*
X118305Y590560D01*
X137912Y610167D01*
X138153Y610330D01*
X138451Y610390D01*
X142406Y610390D01*
X145514Y613498D01*
X145514Y617894D01*
X142406Y621002D01*
X138010Y621002D01*
X134902Y617894D01*
X134902Y613939D01*
X134846Y613653D01*
X134679Y613400D01*
X115072Y593793D01*
X114831Y593630D01*
X114533Y593570D01*
X110578Y593570D01*
X107470Y590462D01*
X107470Y586066D01*
X107781Y585755D01*
X107934Y585535D01*
X108004Y585240D01*
X107953Y584941D01*
X107790Y584686D01*
X107540Y584514D01*
X107243Y584454D01*
X98497Y584454D01*
X98211Y584510D01*
X97959Y584677D01*
X95162Y587474D01*
X90766Y587474D01*
X87658Y584366D01*
X87658Y579970D01*
X90766Y576862D01*
X95162Y576862D01*
X97959Y579659D01*
X98200Y579822D01*
X98497Y579882D01*
X103632Y579882D01*
X103907Y579831D01*
X104162Y579667D01*
X104334Y579417D01*
X104394Y579120D01*
X104394Y557523D01*
X104338Y557237D01*
X104171Y556984D01*
X102870Y555683D01*
X102870Y484371D01*
X102823Y484107D01*
X102664Y483849D01*
X102416Y483674D01*
X102120Y483609D01*
X101822Y483664D01*
X101569Y483832D01*
X77185Y508216D01*
X77022Y508457D01*
X76962Y508755D01*
X76962Y549203D01*
X77018Y549489D01*
X77185Y549741D01*
X79982Y552538D01*
X79982Y556934D01*
X76874Y560042D01*
X72478Y560042D01*
X71201Y558765D01*
X70981Y558612D01*
X70686Y558542D01*
X70387Y558593D01*
X70132Y558756D01*
X69960Y559006D01*
X69900Y559303D01*
X69900Y563092D01*
X68412Y564580D01*
X50622Y564580D01*
X50622Y542500D01*
X68412Y542500D01*
X69900Y543988D01*
X69900Y548631D01*
X69958Y548923D01*
X70408Y550010D01*
X70557Y550240D01*
X70804Y550415D01*
X71100Y550480D01*
X71398Y550425D01*
X71651Y550257D01*
X72167Y549741D01*
X72330Y549500D01*
X72390Y549203D01*
X72390Y506545D01*
X92268Y486667D01*
X92421Y486447D01*
X92491Y486152D01*
X92440Y485853D01*
X92277Y485598D01*
X92027Y485426D01*
X91729Y485366D01*
X90766Y485366D01*
X87658Y482258D01*
X87658Y477862D01*
X90455Y475065D01*
X90618Y474824D01*
X90678Y474527D01*
X90678Y435603D01*
X90622Y435317D01*
X90455Y435064D01*
X66778Y411387D01*
X66537Y411224D01*
X66239Y411164D01*
X38917Y411164D01*
X38631Y411220D01*
X38378Y411387D01*
X35566Y414199D01*
X35413Y414419D01*
X35343Y414714D01*
X35394Y415013D01*
X35557Y415268D01*
X35807Y415440D01*
X36105Y415500D01*
X49098Y415500D01*
X49098Y425778D01*
X29820Y425778D01*
X29820Y421785D01*
X29773Y421521D01*
X29614Y421263D01*
X29366Y421088D01*
X29070Y421023D01*
X28772Y421078D01*
X28519Y421246D01*
X25369Y424396D01*
X25206Y424637D01*
X25146Y424935D01*
X25146Y628451D01*
X25202Y628737D01*
X25369Y628989D01*
X28166Y631786D01*
X28166Y636182D01*
X25058Y639290D01*
X20662Y639290D01*
X17554Y636182D01*
X17554Y631786D01*
X20351Y628989D01*
X20514Y628748D01*
X20574Y628451D01*
X20574Y422725D01*
X31393Y411906D01*
X31551Y411676D01*
X31616Y411379D01*
X31561Y411081D01*
X31393Y410828D01*
X30836Y410271D01*
X30836Y392009D01*
X31729Y391116D01*
X67991Y391116D01*
X68884Y392009D01*
X68884Y396433D01*
X68942Y396725D01*
X69631Y398388D01*
X69779Y398617D01*
X70026Y398793D01*
X70323Y398858D01*
X70621Y398802D01*
X70874Y398635D01*
X72167Y397341D01*
X72330Y397100D01*
X72390Y396803D01*
X72390Y365499D01*
X72334Y365213D01*
X72167Y364960D01*
X67794Y360587D01*
X67553Y360424D01*
X67255Y360364D01*
X31729Y360364D01*
X30836Y359471D01*
X30836Y341209D01*
X31729Y340316D01*
X67991Y340316D01*
X68884Y341209D01*
X68884Y345633D01*
X68942Y345925D01*
X70024Y348537D01*
X70024Y352143D01*
X68986Y354648D01*
X68928Y354928D01*
X68984Y355226D01*
X69152Y355479D01*
X76962Y363289D01*
X76962Y396803D01*
X77018Y397089D01*
X77185Y397341D01*
X79982Y400138D01*
X79982Y404534D01*
X76874Y407642D01*
X72478Y407642D01*
X70185Y405349D01*
X69965Y405196D01*
X69670Y405126D01*
X69371Y405177D01*
X69116Y405340D01*
X68944Y405590D01*
X68884Y405887D01*
X68884Y406711D01*
X68940Y406997D01*
X69107Y407250D01*
X95473Y433616D01*
X95693Y433769D01*
X95988Y433839D01*
X96287Y433788D01*
X96542Y433625D01*
X96714Y433375D01*
X96774Y433077D01*
X96774Y402075D01*
X96718Y401789D01*
X96551Y401536D01*
X80010Y384995D01*
X80010Y322141D01*
X110556Y291595D01*
X110709Y291375D01*
X110779Y291080D01*
X110728Y290781D01*
X110565Y290526D01*
X110315Y290354D01*
X110017Y290294D01*
X109495Y290294D01*
X109209Y290350D01*
X108956Y290517D01*
X72575Y326898D01*
X70469Y326898D01*
X70189Y326951D01*
X69934Y327117D01*
X69765Y327368D01*
X68942Y329355D01*
X68884Y329647D01*
X68884Y334071D01*
X67991Y334964D01*
X31729Y334964D01*
X30836Y334071D01*
X30836Y315809D01*
X31729Y314916D01*
X67991Y314916D01*
X68884Y315809D01*
X68884Y320233D01*
X68942Y320525D01*
X69493Y321856D01*
X69650Y322094D01*
X69900Y322266D01*
X70197Y322326D01*
X70365Y322326D01*
X70651Y322270D01*
X70904Y322103D01*
X105723Y287284D01*
X105886Y287043D01*
X105946Y286745D01*
X105946Y282790D01*
X109054Y279682D01*
X113450Y279682D01*
X115285Y281517D01*
X115505Y281670D01*
X115800Y281740D01*
X116099Y281689D01*
X116354Y281526D01*
X116526Y281276D01*
X116586Y280979D01*
X116586Y279853D01*
X116530Y279567D01*
X116363Y279315D01*
X113566Y276518D01*
X113566Y272507D01*
X113519Y272243D01*
X113360Y271985D01*
X113112Y271810D01*
X112816Y271745D01*
X112518Y271800D01*
X112265Y271968D01*
X93911Y290322D01*
X70662Y290322D01*
X70387Y290373D01*
X70132Y290537D01*
X69960Y290787D01*
X69900Y291084D01*
X69900Y294631D01*
X69958Y294923D01*
X71040Y297535D01*
X71040Y298778D01*
X60198Y298778D01*
X60198Y300302D01*
X71040Y300302D01*
X71040Y301545D01*
X69958Y304157D01*
X69900Y304449D01*
X69900Y309092D01*
X68412Y310580D01*
X50622Y310580D01*
X50622Y298778D01*
X29820Y298778D01*
X29820Y294104D01*
X29769Y293829D01*
X29605Y293574D01*
X29355Y293402D01*
X29058Y293342D01*
X25234Y293342D01*
X22126Y290234D01*
X22126Y285838D01*
X25234Y282730D01*
X29671Y282730D01*
X29755Y282788D01*
X30050Y282858D01*
X30349Y282807D01*
X30604Y282644D01*
X30776Y282394D01*
X30836Y282097D01*
X30836Y265009D01*
X31729Y264116D01*
X67991Y264116D01*
X68884Y265009D01*
X68884Y269433D01*
X68942Y269725D01*
X70024Y272337D01*
X70024Y275943D01*
X68942Y278555D01*
X68884Y278847D01*
X68884Y283271D01*
X67991Y284164D01*
X32903Y284164D01*
X32640Y284211D01*
X32382Y284370D01*
X32207Y284618D01*
X32142Y284914D01*
X32197Y285212D01*
X32365Y285465D01*
X32427Y285527D01*
X32668Y285690D01*
X32965Y285750D01*
X91701Y285750D01*
X91987Y285694D01*
X92240Y285527D01*
X100319Y277448D01*
X100469Y277234D01*
X100541Y276940D01*
X100493Y276641D01*
X100332Y276384D01*
X100083Y276210D01*
X99786Y276148D01*
X99488Y276206D01*
X97268Y277125D01*
X88452Y277125D01*
X80307Y273752D01*
X74074Y267518D01*
X70700Y259373D01*
X70700Y252742D01*
X70655Y252484D01*
X70498Y252225D01*
X70252Y252047D01*
X69956Y251980D01*
X69658Y252033D01*
X69404Y252199D01*
X69234Y252450D01*
X68942Y253155D01*
X68884Y253447D01*
X68884Y257871D01*
X67991Y258764D01*
X31729Y258764D01*
X30836Y257871D01*
X30836Y239940D01*
X30787Y239671D01*
X30626Y239414D01*
X30377Y239240D01*
X30080Y239178D01*
X29782Y239236D01*
X28347Y239830D01*
X19333Y239830D01*
X11214Y236467D01*
G37*
%LPC*%
G36*
X31729Y695916D02*
X67991Y695916D01*
X68884Y696809D01*
X68884Y701233D01*
X68942Y701525D01*
X70024Y704137D01*
X70024Y707743D01*
X68942Y710355D01*
X68884Y710647D01*
X68884Y715071D01*
X67991Y715964D01*
X31729Y715964D01*
X30836Y715071D01*
X30836Y696809D01*
X31729Y695916D01*
G37*
G36*
X29820Y681302D02*
X49098Y681302D01*
X49098Y691580D01*
X31308Y691580D01*
X29820Y690092D01*
X29820Y681302D01*
G37*
G36*
X50622Y669500D02*
X68412Y669500D01*
X69900Y670988D01*
X69900Y675631D01*
X69958Y675923D01*
X71040Y678535D01*
X71040Y679778D01*
X60198Y679778D01*
X60198Y681302D01*
X71040Y681302D01*
X71040Y682545D01*
X69958Y685157D01*
X69900Y685449D01*
X69900Y690092D01*
X68412Y691580D01*
X50622Y691580D01*
X50622Y669500D01*
G37*
G36*
X250622Y681302D02*
X269900Y681302D01*
X269900Y690092D01*
X268412Y691580D01*
X250622Y691580D01*
X250622Y681302D01*
G37*
G36*
X31308Y669500D02*
X49098Y669500D01*
X49098Y679778D01*
X29820Y679778D01*
X29820Y670988D01*
X31308Y669500D01*
G37*
G36*
X250622Y669500D02*
X268412Y669500D01*
X269900Y670988D01*
X269900Y679778D01*
X250622Y679778D01*
X250622Y669500D01*
G37*
G36*
X31729Y645116D02*
X67991Y645116D01*
X68884Y646009D01*
X68884Y650433D01*
X68942Y650725D01*
X70024Y653337D01*
X70024Y656943D01*
X68942Y659555D01*
X68884Y659847D01*
X68884Y664271D01*
X67991Y665164D01*
X31729Y665164D01*
X30836Y664271D01*
X30836Y646009D01*
X31729Y645116D01*
G37*
G36*
X231729Y264116D02*
X267991Y264116D01*
X268884Y265009D01*
X268884Y283271D01*
X268327Y283828D01*
X268169Y284059D01*
X268104Y284355D01*
X268159Y284653D01*
X268327Y284906D01*
X275082Y291661D01*
X275082Y363275D01*
X275138Y363561D01*
X275305Y363813D01*
X278102Y366610D01*
X278102Y371006D01*
X274994Y374114D01*
X270598Y374114D01*
X270185Y373701D01*
X269965Y373548D01*
X269670Y373478D01*
X269371Y373529D01*
X269116Y373692D01*
X268944Y373942D01*
X268884Y374239D01*
X268884Y384871D01*
X268073Y385682D01*
X267915Y385913D01*
X267850Y386209D01*
X267905Y386507D01*
X268073Y386760D01*
X279654Y398341D01*
X279654Y418139D01*
X279710Y418425D01*
X279877Y418677D01*
X282674Y421474D01*
X282674Y425870D01*
X279566Y428978D01*
X278603Y428978D01*
X278339Y429025D01*
X278081Y429184D01*
X277906Y429432D01*
X277841Y429728D01*
X277896Y430026D01*
X278064Y430279D01*
X284226Y436441D01*
X284226Y642551D01*
X282664Y644113D01*
X282513Y644264D01*
X282355Y644494D01*
X282290Y644790D01*
X282346Y645089D01*
X282513Y645341D01*
X284198Y647026D01*
X284198Y651422D01*
X281090Y654530D01*
X276694Y654530D01*
X273586Y651422D01*
X273586Y647026D01*
X276383Y644229D01*
X276546Y643988D01*
X276602Y643709D01*
X279431Y640880D01*
X279594Y640639D01*
X279654Y640341D01*
X279654Y438651D01*
X279598Y438365D01*
X279431Y438112D01*
X271201Y429882D01*
X270981Y429729D01*
X270686Y429659D01*
X270387Y429710D01*
X270132Y429873D01*
X269960Y430123D01*
X269900Y430421D01*
X269900Y436092D01*
X268412Y437580D01*
X250622Y437580D01*
X250622Y425778D01*
X249098Y425778D01*
X249098Y437580D01*
X231308Y437580D01*
X229820Y436092D01*
X229820Y431449D01*
X229762Y431157D01*
X229304Y430052D01*
X229164Y429831D01*
X228919Y429651D01*
X228624Y429581D01*
X228325Y429632D01*
X228070Y429796D01*
X227898Y430046D01*
X227838Y430343D01*
X227838Y437951D01*
X227894Y438237D01*
X228061Y438489D01*
X230888Y441317D01*
X230909Y441429D01*
X231073Y441684D01*
X231323Y441856D01*
X231620Y441916D01*
X267991Y441916D01*
X268884Y442809D01*
X268884Y461071D01*
X267991Y461964D01*
X231729Y461964D01*
X230836Y461071D01*
X230836Y456647D01*
X230778Y456355D01*
X229696Y453743D01*
X229696Y450137D01*
X230559Y448054D01*
X230616Y447799D01*
X230570Y447499D01*
X230410Y447241D01*
X230163Y447066D01*
X229867Y447001D01*
X229569Y447056D01*
X229316Y447224D01*
X227750Y448790D01*
X223354Y448790D01*
X220246Y445682D01*
X220246Y441286D01*
X223043Y438489D01*
X223206Y438248D01*
X223266Y437951D01*
X223266Y337381D01*
X230569Y330079D01*
X230729Y329843D01*
X230792Y329546D01*
X230734Y329248D01*
X229696Y326743D01*
X229696Y323137D01*
X230778Y320525D01*
X230836Y320233D01*
X230836Y315809D01*
X231729Y314916D01*
X267991Y314916D01*
X268884Y315809D01*
X268884Y334071D01*
X267991Y334964D01*
X232465Y334964D01*
X232179Y335020D01*
X231926Y335187D01*
X228061Y339052D01*
X227898Y339293D01*
X227838Y339591D01*
X227838Y411480D01*
X227889Y411755D01*
X228053Y412010D01*
X228303Y412182D01*
X228600Y412242D01*
X230967Y412242D01*
X231230Y412195D01*
X231488Y412036D01*
X231664Y411788D01*
X231729Y411492D01*
X231673Y411194D01*
X231506Y410941D01*
X230836Y410271D01*
X230836Y405847D01*
X230778Y405555D01*
X229696Y402943D01*
X229696Y399337D01*
X230778Y396725D01*
X230836Y396433D01*
X230836Y392009D01*
X231729Y391116D01*
X264123Y391116D01*
X264387Y391069D01*
X264645Y390910D01*
X264820Y390662D01*
X264885Y390366D01*
X264830Y390068D01*
X264662Y389815D01*
X260834Y385987D01*
X260593Y385824D01*
X260295Y385764D01*
X231729Y385764D01*
X230836Y384871D01*
X230836Y380447D01*
X230778Y380155D01*
X229696Y377543D01*
X229696Y373937D01*
X230778Y371325D01*
X230836Y371033D01*
X230836Y366609D01*
X231729Y365716D01*
X268069Y365716D01*
X268355Y365660D01*
X268607Y365493D01*
X270287Y363813D01*
X270450Y363572D01*
X270510Y363275D01*
X270510Y310322D01*
X270463Y310058D01*
X270304Y309800D01*
X270056Y309625D01*
X269760Y309560D01*
X269462Y309615D01*
X269209Y309783D01*
X268412Y310580D01*
X250622Y310580D01*
X250622Y298778D01*
X249098Y298778D01*
X249098Y310580D01*
X231308Y310580D01*
X229820Y309092D01*
X229820Y304449D01*
X229762Y304157D01*
X228680Y301545D01*
X228680Y300302D01*
X239522Y300302D01*
X239522Y298778D01*
X228680Y298778D01*
X228680Y297535D01*
X229762Y294923D01*
X229820Y294631D01*
X229820Y289988D01*
X231233Y288575D01*
X231386Y288355D01*
X231456Y288060D01*
X231405Y287761D01*
X231242Y287506D01*
X230992Y287334D01*
X230694Y287274D01*
X200605Y287274D01*
X200319Y287330D01*
X200067Y287497D01*
X197270Y290294D01*
X192874Y290294D01*
X189766Y287186D01*
X189766Y282790D01*
X192874Y279682D01*
X197270Y279682D01*
X200067Y282479D01*
X200308Y282642D01*
X200605Y282702D01*
X230074Y282702D01*
X230349Y282651D01*
X230604Y282487D01*
X230776Y282237D01*
X230836Y281940D01*
X230836Y278847D01*
X230778Y278555D01*
X229696Y275943D01*
X229696Y272337D01*
X230778Y269725D01*
X230836Y269433D01*
X230836Y265009D01*
X231729Y264116D01*
G37*
G36*
X31729Y619716D02*
X67991Y619716D01*
X68884Y620609D01*
X68884Y625033D01*
X68942Y625325D01*
X70024Y627937D01*
X70024Y631543D01*
X68942Y634155D01*
X68884Y634447D01*
X68884Y638871D01*
X67991Y639764D01*
X31729Y639764D01*
X30836Y638871D01*
X30836Y620609D01*
X31729Y619716D01*
G37*
G36*
X31729Y594316D02*
X67991Y594316D01*
X68884Y595209D01*
X68884Y599633D01*
X68942Y599925D01*
X70024Y602537D01*
X70024Y606143D01*
X68942Y608755D01*
X68884Y609047D01*
X68884Y613471D01*
X67991Y614364D01*
X31729Y614364D01*
X30836Y613471D01*
X30836Y595209D01*
X31729Y594316D01*
G37*
G36*
X31729Y568916D02*
X67991Y568916D01*
X68884Y569809D01*
X68884Y574233D01*
X68942Y574525D01*
X70024Y577137D01*
X70024Y580743D01*
X68942Y583355D01*
X68884Y583647D01*
X68884Y588071D01*
X67991Y588964D01*
X31729Y588964D01*
X30836Y588071D01*
X30836Y569809D01*
X31729Y568916D01*
G37*
G36*
X29820Y554302D02*
X49098Y554302D01*
X49098Y564580D01*
X31308Y564580D01*
X29820Y563092D01*
X29820Y554302D01*
G37*
G36*
X31308Y542500D02*
X49098Y542500D01*
X49098Y552778D01*
X29820Y552778D01*
X29820Y543988D01*
X31308Y542500D01*
G37*
G36*
X31729Y518116D02*
X67991Y518116D01*
X68884Y519009D01*
X68884Y523433D01*
X68942Y523725D01*
X70024Y526337D01*
X70024Y529943D01*
X68942Y532555D01*
X68884Y532847D01*
X68884Y537271D01*
X67991Y538164D01*
X31729Y538164D01*
X30836Y537271D01*
X30836Y519009D01*
X31729Y518116D01*
G37*
G36*
X31729Y492716D02*
X67991Y492716D01*
X68884Y493609D01*
X68884Y498033D01*
X68942Y498325D01*
X70024Y500937D01*
X70024Y504543D01*
X68942Y507155D01*
X68884Y507447D01*
X68884Y511871D01*
X67991Y512764D01*
X31729Y512764D01*
X30836Y511871D01*
X30836Y493609D01*
X31729Y492716D01*
G37*
G36*
X31729Y467316D02*
X67991Y467316D01*
X68884Y468209D01*
X68884Y472633D01*
X68942Y472925D01*
X70024Y475537D01*
X70024Y479143D01*
X68942Y481755D01*
X68884Y482047D01*
X68884Y486471D01*
X67991Y487364D01*
X31729Y487364D01*
X30836Y486471D01*
X30836Y468209D01*
X31729Y467316D01*
G37*
G36*
X31729Y441916D02*
X67991Y441916D01*
X68884Y442809D01*
X68884Y447233D01*
X68942Y447525D01*
X70024Y450137D01*
X70024Y453743D01*
X68942Y456355D01*
X68884Y456647D01*
X68884Y461071D01*
X67991Y461964D01*
X31729Y461964D01*
X30836Y461071D01*
X30836Y442809D01*
X31729Y441916D01*
G37*
G36*
X50622Y415500D02*
X68412Y415500D01*
X69900Y416988D01*
X69900Y421631D01*
X69958Y421923D01*
X71040Y424535D01*
X71040Y425778D01*
X60198Y425778D01*
X60198Y427302D01*
X71040Y427302D01*
X71040Y428545D01*
X69958Y431157D01*
X69900Y431449D01*
X69900Y436092D01*
X68412Y437580D01*
X50622Y437580D01*
X50622Y415500D01*
G37*
G36*
X29820Y427302D02*
X49098Y427302D01*
X49098Y437580D01*
X31308Y437580D01*
X29820Y436092D01*
X29820Y427302D01*
G37*
G36*
X31729Y365716D02*
X67991Y365716D01*
X68884Y366609D01*
X68884Y371033D01*
X68942Y371325D01*
X70024Y373937D01*
X70024Y377543D01*
X68942Y380155D01*
X68884Y380447D01*
X68884Y384871D01*
X67991Y385764D01*
X31729Y385764D01*
X30836Y384871D01*
X30836Y366609D01*
X31729Y365716D01*
G37*
G36*
X231729Y340316D02*
X267991Y340316D01*
X268884Y341209D01*
X268884Y359471D01*
X267991Y360364D01*
X231729Y360364D01*
X230836Y359471D01*
X230836Y355047D01*
X230778Y354755D01*
X229696Y352143D01*
X229696Y348537D01*
X230778Y345925D01*
X230836Y345633D01*
X230836Y341209D01*
X231729Y340316D01*
G37*
G36*
X29820Y300302D02*
X49098Y300302D01*
X49098Y310580D01*
X31308Y310580D01*
X29820Y309092D01*
X29820Y300302D01*
G37*
%LPD*%
G36*
X289375Y10220D02*
X289078Y10160D01*
X10922Y10160D01*
X10647Y10211D01*
X10392Y10375D01*
X10220Y10625D01*
X10160Y10922D01*
X10160Y86829D01*
X10207Y87092D01*
X10366Y87350D01*
X10614Y87526D01*
X10910Y87591D01*
X11208Y87535D01*
X11461Y87368D01*
X15262Y83566D01*
X22838Y83566D01*
X28326Y89054D01*
X28400Y89175D01*
X28648Y89350D01*
X28944Y89415D01*
X29242Y89360D01*
X29495Y89192D01*
X46297Y72390D01*
X106103Y72390D01*
X117802Y84089D01*
X118032Y84247D01*
X118329Y84312D01*
X118627Y84256D01*
X118879Y84089D01*
X119402Y83566D01*
X126978Y83566D01*
X132334Y88922D01*
X132334Y96498D01*
X126978Y101854D01*
X119402Y101854D01*
X114046Y96498D01*
X114046Y88922D01*
X114569Y88399D01*
X114727Y88169D01*
X114792Y87873D01*
X114736Y87575D01*
X114569Y87322D01*
X104432Y77185D01*
X104191Y77022D01*
X103893Y76962D01*
X89353Y76962D01*
X89090Y77009D01*
X88832Y77168D01*
X88657Y77416D01*
X88592Y77712D01*
X88647Y78010D01*
X88815Y78263D01*
X89126Y78574D01*
X89126Y82970D01*
X86018Y86078D01*
X81622Y86078D01*
X78825Y83281D01*
X78584Y83118D01*
X78287Y83058D01*
X57651Y83058D01*
X57365Y83114D01*
X57112Y83281D01*
X53071Y87322D01*
X52913Y87552D01*
X52848Y87849D01*
X52904Y88147D01*
X53071Y88400D01*
X53594Y88922D01*
X53594Y96498D01*
X48238Y101854D01*
X40662Y101854D01*
X40140Y101331D01*
X39909Y101173D01*
X39613Y101108D01*
X39315Y101164D01*
X39062Y101331D01*
X36037Y104356D01*
X35874Y104597D01*
X35814Y104895D01*
X35814Y110538D01*
X35861Y110801D01*
X36020Y111059D01*
X36268Y111235D01*
X36564Y111300D01*
X36862Y111244D01*
X37115Y111077D01*
X40242Y107950D01*
X43688Y107950D01*
X43688Y128270D01*
X40242Y128270D01*
X37115Y125143D01*
X36895Y124990D01*
X36600Y124920D01*
X36301Y124971D01*
X36046Y125135D01*
X35874Y125385D01*
X35814Y125682D01*
X35814Y169425D01*
X35870Y169711D01*
X36037Y169964D01*
X62589Y196516D01*
X62809Y196669D01*
X63104Y196739D01*
X63403Y196688D01*
X63509Y196620D01*
X63509Y197052D01*
X81670Y197052D01*
X81670Y198058D01*
X80317Y201326D01*
X79489Y202153D01*
X79336Y202373D01*
X79266Y202668D01*
X79317Y202967D01*
X79481Y203222D01*
X79731Y203394D01*
X80028Y203454D01*
X81719Y203454D01*
X127254Y248989D01*
X127254Y278315D01*
X125953Y279616D01*
X125790Y279857D01*
X125730Y280155D01*
X125730Y434903D01*
X125786Y435189D01*
X125953Y435441D01*
X128750Y438238D01*
X128750Y442634D01*
X126915Y444469D01*
X126757Y444700D01*
X126692Y444996D01*
X126747Y445294D01*
X126915Y445547D01*
X128750Y447382D01*
X128750Y451778D01*
X125642Y454886D01*
X121246Y454886D01*
X118138Y451778D01*
X118138Y447823D01*
X118082Y447537D01*
X117915Y447284D01*
X108743Y438112D01*
X108523Y437959D01*
X108228Y437889D01*
X107929Y437940D01*
X107674Y438103D01*
X107502Y438353D01*
X107442Y438651D01*
X107442Y553473D01*
X107498Y553759D01*
X107665Y554012D01*
X108966Y555313D01*
X108966Y579120D01*
X109017Y579395D01*
X109181Y579650D01*
X109431Y579822D01*
X109728Y579882D01*
X119435Y579882D01*
X119721Y579826D01*
X119973Y579659D01*
X122770Y576862D01*
X127166Y576862D01*
X129963Y579659D01*
X130204Y579822D01*
X130501Y579882D01*
X191447Y579882D01*
X194300Y582735D01*
X194541Y582898D01*
X194839Y582958D01*
X198794Y582958D01*
X201902Y586066D01*
X201902Y590021D01*
X201958Y590307D01*
X202125Y590560D01*
X231058Y619493D01*
X231299Y619656D01*
X231597Y619716D01*
X266700Y619716D01*
X266975Y619665D01*
X267230Y619501D01*
X267402Y619251D01*
X267462Y618954D01*
X267462Y615126D01*
X267411Y614851D01*
X267247Y614596D01*
X266997Y614424D01*
X266700Y614364D01*
X231729Y614364D01*
X230836Y613471D01*
X230836Y609047D01*
X230778Y608755D01*
X229696Y606143D01*
X229696Y602537D01*
X230778Y599925D01*
X230836Y599633D01*
X230836Y595209D01*
X231729Y594316D01*
X264631Y594316D01*
X264895Y594269D01*
X265153Y594110D01*
X265328Y593862D01*
X265393Y593566D01*
X265338Y593268D01*
X265170Y593015D01*
X264452Y592297D01*
X264211Y592134D01*
X263913Y592074D01*
X229177Y592074D01*
X177323Y540220D01*
X177103Y540067D01*
X176808Y539997D01*
X176509Y540048D01*
X176254Y540211D01*
X176082Y540461D01*
X176022Y540759D01*
X176022Y556823D01*
X176078Y557109D01*
X176245Y557361D01*
X179042Y560158D01*
X179042Y564554D01*
X175934Y567662D01*
X171538Y567662D01*
X168430Y564554D01*
X168430Y560158D01*
X171227Y557361D01*
X171390Y557120D01*
X171450Y556823D01*
X171450Y523693D01*
X171394Y523407D01*
X171227Y523155D01*
X168430Y520358D01*
X168430Y515962D01*
X171538Y512854D01*
X175934Y512854D01*
X176245Y513165D01*
X176465Y513318D01*
X176760Y513388D01*
X177059Y513337D01*
X177314Y513174D01*
X177486Y512924D01*
X177546Y512627D01*
X177546Y484371D01*
X177490Y484085D01*
X177323Y483832D01*
X142494Y449003D01*
X142494Y180419D01*
X142447Y180156D01*
X142288Y179898D01*
X142040Y179722D01*
X141744Y179657D01*
X141446Y179713D01*
X141193Y179880D01*
X138828Y182245D01*
X135382Y182245D01*
X135382Y161544D01*
X134638Y161544D01*
X134689Y161471D01*
X134754Y161175D01*
X134699Y160877D01*
X134531Y160624D01*
X131836Y157929D01*
X131595Y157766D01*
X131297Y157706D01*
X127342Y157706D01*
X124234Y154598D01*
X124234Y150202D01*
X127342Y147094D01*
X131738Y147094D01*
X134846Y150202D01*
X134846Y154157D01*
X134902Y154443D01*
X135069Y154696D01*
X142745Y162372D01*
X142965Y162525D01*
X143260Y162595D01*
X143559Y162544D01*
X143814Y162381D01*
X143986Y162131D01*
X144046Y161833D01*
X144046Y160870D01*
X147154Y157762D01*
X151550Y157762D01*
X154658Y160870D01*
X154658Y162676D01*
X154705Y162939D01*
X154864Y163197D01*
X155112Y163373D01*
X155408Y163438D01*
X155706Y163382D01*
X155959Y163215D01*
X156232Y162941D01*
X163808Y162941D01*
X167101Y166235D01*
X167321Y166388D01*
X167616Y166457D01*
X167915Y166407D01*
X168170Y166243D01*
X168342Y165993D01*
X168402Y165696D01*
X168402Y140180D01*
X168351Y139905D01*
X168187Y139650D01*
X167937Y139478D01*
X167640Y139418D01*
X166966Y139418D01*
X163858Y136310D01*
X163858Y131914D01*
X166966Y128806D01*
X171362Y128806D01*
X174470Y131914D01*
X174470Y136310D01*
X173197Y137583D01*
X173034Y137824D01*
X172974Y138121D01*
X172974Y177731D01*
X161005Y189700D01*
X160842Y189941D01*
X160782Y190239D01*
X160782Y364497D01*
X160829Y364761D01*
X160988Y365019D01*
X161236Y365194D01*
X161532Y365259D01*
X161830Y365204D01*
X162083Y365036D01*
X163635Y363484D01*
X163798Y363243D01*
X163858Y362945D01*
X163858Y358990D01*
X166966Y355882D01*
X171362Y355882D01*
X174470Y358990D01*
X174470Y363386D01*
X171362Y366494D01*
X167407Y366494D01*
X167121Y366550D01*
X166868Y366717D01*
X164053Y369532D01*
X163890Y369773D01*
X163830Y370071D01*
X163830Y373943D01*
X163877Y374206D01*
X164036Y374464D01*
X164284Y374639D01*
X164580Y374704D01*
X164878Y374649D01*
X165131Y374481D01*
X165442Y374170D01*
X169397Y374170D01*
X169683Y374114D01*
X169936Y373947D01*
X172789Y371094D01*
X175823Y371094D01*
X176109Y371038D01*
X176361Y370871D01*
X178847Y368385D01*
X179010Y368144D01*
X179070Y367847D01*
X179070Y272233D01*
X179023Y271970D01*
X178864Y271712D01*
X178616Y271537D01*
X178320Y271472D01*
X178022Y271527D01*
X177769Y271695D01*
X177458Y272006D01*
X173062Y272006D01*
X169954Y268898D01*
X169954Y264502D01*
X172751Y261705D01*
X172914Y261464D01*
X172974Y261167D01*
X172974Y228037D01*
X172918Y227751D01*
X172751Y227499D01*
X169954Y224702D01*
X169954Y220306D01*
X173062Y217198D01*
X177458Y217198D01*
X180566Y220306D01*
X180566Y222793D01*
X180613Y223057D01*
X180772Y223315D01*
X181020Y223490D01*
X181316Y223555D01*
X181614Y223500D01*
X181867Y223332D01*
X227662Y177537D01*
X227820Y177306D01*
X227886Y177010D01*
X227830Y176712D01*
X227662Y176459D01*
X227076Y175873D01*
X227076Y168297D01*
X232432Y162941D01*
X240008Y162941D01*
X245364Y168297D01*
X245364Y175873D01*
X240008Y181229D01*
X232432Y181229D01*
X231973Y180770D01*
X231743Y180612D01*
X231446Y180546D01*
X231148Y180602D01*
X230895Y180770D01*
X183865Y227800D01*
X183702Y228041D01*
X183642Y228339D01*
X183642Y249305D01*
X183687Y249563D01*
X183844Y249822D01*
X184090Y249999D01*
X184386Y250067D01*
X184684Y250013D01*
X184939Y249848D01*
X185108Y249597D01*
X188084Y242413D01*
X194317Y236179D01*
X202462Y232805D01*
X211278Y232805D01*
X219423Y236179D01*
X225656Y242413D01*
X228230Y248626D01*
X228370Y248847D01*
X228615Y249026D01*
X228910Y249096D01*
X229209Y249045D01*
X229464Y248882D01*
X229636Y248632D01*
X229696Y248334D01*
X229696Y246937D01*
X230778Y244325D01*
X230836Y244033D01*
X230836Y239609D01*
X231729Y238716D01*
X266812Y238716D01*
X267070Y238671D01*
X267329Y238514D01*
X267507Y238268D01*
X267574Y237972D01*
X267521Y237674D01*
X267355Y237420D01*
X267104Y237250D01*
X265004Y236380D01*
X258630Y230006D01*
X255180Y221677D01*
X255180Y212663D01*
X258630Y204334D01*
X265004Y197960D01*
X273333Y194510D01*
X282347Y194510D01*
X288786Y197177D01*
X289054Y197235D01*
X289353Y197184D01*
X289608Y197020D01*
X289780Y196770D01*
X289840Y196473D01*
X289840Y125148D01*
X289793Y124885D01*
X289634Y124627D01*
X289386Y124451D01*
X289090Y124386D01*
X288792Y124442D01*
X288539Y124609D01*
X284878Y128270D01*
X281432Y128270D01*
X281432Y107950D01*
X284878Y107950D01*
X288539Y111611D01*
X288759Y111764D01*
X289054Y111834D01*
X289353Y111783D01*
X289608Y111619D01*
X289780Y111369D01*
X289840Y111072D01*
X289840Y98311D01*
X289793Y98048D01*
X289634Y97790D01*
X289386Y97614D01*
X289090Y97549D01*
X288792Y97605D01*
X288539Y97772D01*
X284457Y101854D01*
X276882Y101854D01*
X271526Y96498D01*
X271526Y88922D01*
X276882Y83566D01*
X284457Y83566D01*
X288539Y87648D01*
X288759Y87801D01*
X289054Y87871D01*
X289353Y87820D01*
X289608Y87656D01*
X289780Y87406D01*
X289840Y87109D01*
X289840Y10922D01*
X289789Y10647D01*
X289625Y10392D01*
X289375Y10220D01*
G37*
%LPC*%
G36*
X73542Y187400D02*
X74548Y187400D01*
X77816Y188753D01*
X80317Y191254D01*
X81670Y194522D01*
X81670Y195528D01*
X73542Y195528D01*
X73542Y187400D01*
G37*
G36*
X71012Y187400D02*
X72018Y187400D01*
X72018Y195528D01*
X63890Y195528D01*
X63890Y194522D01*
X65243Y191254D01*
X67744Y188753D01*
X71012Y187400D01*
G37*
G36*
X124460Y172847D02*
X133858Y172847D01*
X133858Y182245D01*
X130412Y182245D01*
X124460Y176293D01*
X124460Y172847D01*
G37*
G36*
X207032Y162941D02*
X214608Y162941D01*
X219964Y168297D01*
X219964Y175873D01*
X214608Y181229D01*
X207032Y181229D01*
X201676Y175873D01*
X201676Y168297D01*
X207032Y162941D01*
G37*
G36*
X181632Y162941D02*
X189208Y162941D01*
X194564Y168297D01*
X194564Y175873D01*
X189208Y181229D01*
X181632Y181229D01*
X176276Y175873D01*
X176276Y168297D01*
X181632Y162941D01*
G37*
G36*
X94002Y83566D02*
X101578Y83566D01*
X106934Y88922D01*
X106934Y96498D01*
X101578Y101854D01*
X94002Y101854D01*
X93479Y101331D01*
X93249Y101173D01*
X92953Y101108D01*
X92655Y101164D01*
X92402Y101331D01*
X72613Y121120D01*
X72450Y121361D01*
X72390Y121659D01*
X72390Y130103D01*
X72446Y130389D01*
X72613Y130641D01*
X75410Y133438D01*
X75410Y135925D01*
X75457Y136189D01*
X75616Y136447D01*
X75864Y136622D01*
X76160Y136687D01*
X76458Y136632D01*
X76711Y136464D01*
X89423Y123752D01*
X89581Y123522D01*
X89646Y123226D01*
X89590Y122927D01*
X89423Y122675D01*
X88646Y121898D01*
X88646Y114322D01*
X94002Y108966D01*
X101578Y108966D01*
X102355Y109743D01*
X102585Y109901D01*
X102881Y109966D01*
X103179Y109910D01*
X103432Y109743D01*
X107257Y105918D01*
X128963Y105918D01*
X137884Y114839D01*
X138125Y115002D01*
X138423Y115062D01*
X166624Y115062D01*
X166899Y115011D01*
X167154Y114847D01*
X167326Y114597D01*
X167380Y114328D01*
X172742Y108966D01*
X180318Y108966D01*
X180587Y109235D01*
X180817Y109393D01*
X181113Y109458D01*
X181411Y109402D01*
X181664Y109235D01*
X184981Y105918D01*
X208211Y105918D01*
X217132Y114839D01*
X217373Y115002D01*
X217671Y115062D01*
X245364Y115062D01*
X245639Y115011D01*
X245894Y114847D01*
X246066Y114597D01*
X246120Y114328D01*
X251482Y108966D01*
X259057Y108966D01*
X264414Y114322D01*
X264414Y121898D01*
X259052Y127259D01*
X258805Y127305D01*
X258550Y127469D01*
X258378Y127719D01*
X258318Y128016D01*
X258318Y162179D01*
X258369Y162454D01*
X258533Y162709D01*
X258783Y162881D01*
X259080Y162941D01*
X265408Y162941D01*
X270764Y168297D01*
X270764Y175873D01*
X265408Y181229D01*
X257832Y181229D01*
X252476Y175873D01*
X252476Y168297D01*
X253523Y167251D01*
X253686Y167009D01*
X253746Y166712D01*
X253746Y128016D01*
X253695Y127741D01*
X253531Y127486D01*
X253281Y127314D01*
X252984Y127254D01*
X251482Y127254D01*
X246126Y121898D01*
X246126Y120396D01*
X246075Y120121D01*
X245911Y119866D01*
X245661Y119694D01*
X245364Y119634D01*
X215461Y119634D01*
X213391Y117564D01*
X213171Y117411D01*
X212876Y117341D01*
X212577Y117392D01*
X212471Y117460D01*
X212471Y117348D01*
X191770Y117348D01*
X191770Y113902D01*
X193881Y111791D01*
X194034Y111571D01*
X194104Y111276D01*
X194053Y110977D01*
X193889Y110722D01*
X193639Y110550D01*
X193342Y110490D01*
X187191Y110490D01*
X186905Y110546D01*
X186652Y110713D01*
X184897Y112468D01*
X184739Y112698D01*
X184674Y112995D01*
X184730Y113293D01*
X184897Y113546D01*
X185674Y114322D01*
X185674Y121898D01*
X180318Y127254D01*
X172742Y127254D01*
X167386Y121898D01*
X167386Y120396D01*
X167335Y120121D01*
X167171Y119866D01*
X166921Y119694D01*
X166624Y119634D01*
X136213Y119634D01*
X134651Y118072D01*
X134431Y117919D01*
X134136Y117849D01*
X133837Y117900D01*
X133731Y117968D01*
X133731Y117348D01*
X113030Y117348D01*
X113030Y113902D01*
X115141Y111791D01*
X115294Y111571D01*
X115364Y111276D01*
X115313Y110977D01*
X115149Y110722D01*
X114899Y110550D01*
X114602Y110490D01*
X109467Y110490D01*
X109181Y110546D01*
X108928Y110713D01*
X106665Y112976D01*
X106507Y113206D01*
X106442Y113503D01*
X106498Y113801D01*
X106665Y114054D01*
X106934Y114322D01*
X106934Y121898D01*
X101578Y127254D01*
X101545Y127254D01*
X101282Y127301D01*
X101024Y127460D01*
X100849Y127708D01*
X100784Y128004D01*
X100839Y128302D01*
X101007Y128555D01*
X101318Y128866D01*
X101318Y133262D01*
X98521Y136059D01*
X98358Y136300D01*
X98298Y136597D01*
X98298Y156011D01*
X98354Y156297D01*
X98521Y156549D01*
X101318Y159346D01*
X101318Y163742D01*
X98210Y166850D01*
X93814Y166850D01*
X90706Y163742D01*
X90706Y159346D01*
X93503Y156549D01*
X93666Y156308D01*
X93726Y156011D01*
X93726Y136597D01*
X93670Y136311D01*
X93503Y136059D01*
X90706Y133262D01*
X90706Y130775D01*
X90659Y130511D01*
X90500Y130253D01*
X90252Y130078D01*
X89956Y130013D01*
X89658Y130068D01*
X89405Y130236D01*
X75661Y143980D01*
X75498Y144221D01*
X75438Y144519D01*
X75438Y163359D01*
X75491Y163639D01*
X75657Y163894D01*
X75908Y164063D01*
X77240Y164615D01*
X79455Y166830D01*
X80654Y169724D01*
X80654Y172856D01*
X79455Y175750D01*
X77240Y177965D01*
X74346Y179164D01*
X71214Y179164D01*
X68320Y177965D01*
X66105Y175750D01*
X64906Y172856D01*
X64906Y169724D01*
X66105Y166830D01*
X68320Y164615D01*
X70396Y163755D01*
X70634Y163598D01*
X70806Y163348D01*
X70866Y163051D01*
X70866Y142309D01*
X70932Y142243D01*
X71085Y142023D01*
X71155Y141728D01*
X71104Y141429D01*
X70941Y141174D01*
X70691Y141002D01*
X70393Y140942D01*
X67906Y140942D01*
X64798Y137834D01*
X64798Y133438D01*
X67595Y130641D01*
X67758Y130400D01*
X67818Y130103D01*
X67818Y119449D01*
X89169Y98098D01*
X89327Y97868D01*
X89392Y97572D01*
X89336Y97273D01*
X89169Y97021D01*
X88646Y96498D01*
X88646Y88922D01*
X94002Y83566D01*
G37*
G36*
X130412Y161925D02*
X133858Y161925D01*
X133858Y171323D01*
X124460Y171323D01*
X124460Y167877D01*
X130412Y161925D01*
G37*
G36*
X202692Y118872D02*
X212090Y118872D01*
X212090Y122318D01*
X206138Y128270D01*
X202692Y128270D01*
X202692Y118872D01*
G37*
G36*
X191770Y118872D02*
X201168Y118872D01*
X201168Y128270D01*
X197722Y128270D01*
X191770Y122318D01*
X191770Y118872D01*
G37*
G36*
X113030Y118872D02*
X122428Y118872D01*
X122428Y128270D01*
X118982Y128270D01*
X113030Y122318D01*
X113030Y118872D01*
G37*
G36*
X270510Y118872D02*
X279908Y118872D01*
X279908Y128270D01*
X276462Y128270D01*
X270510Y122318D01*
X270510Y118872D01*
G37*
G36*
X45212Y118872D02*
X54610Y118872D01*
X54610Y122318D01*
X48658Y128270D01*
X45212Y128270D01*
X45212Y118872D01*
G37*
G36*
X123952Y118872D02*
X133350Y118872D01*
X133350Y122318D01*
X127398Y128270D01*
X123952Y128270D01*
X123952Y118872D01*
G37*
G36*
X276462Y107950D02*
X279908Y107950D01*
X279908Y117348D01*
X270510Y117348D01*
X270510Y113902D01*
X276462Y107950D01*
G37*
G36*
X45212Y107950D02*
X48658Y107950D01*
X54610Y113902D01*
X54610Y117348D01*
X45212Y117348D01*
X45212Y107950D01*
G37*
G36*
X171538Y43462D02*
X175934Y43462D01*
X178731Y46259D01*
X178972Y46422D01*
X179269Y46482D01*
X212783Y46482D01*
X250136Y83835D01*
X250366Y83993D01*
X250662Y84058D01*
X250961Y84002D01*
X251213Y83835D01*
X251482Y83566D01*
X259057Y83566D01*
X264414Y88922D01*
X264414Y96498D01*
X259057Y101854D01*
X251482Y101854D01*
X246126Y96498D01*
X246126Y88922D01*
X246903Y88145D01*
X247061Y87915D01*
X247126Y87619D01*
X247070Y87321D01*
X246903Y87068D01*
X211112Y51277D01*
X210871Y51114D01*
X210573Y51054D01*
X179269Y51054D01*
X178983Y51110D01*
X178731Y51277D01*
X175934Y54074D01*
X171538Y54074D01*
X168430Y50966D01*
X168430Y46570D01*
X171538Y43462D01*
G37*
G36*
X198142Y83566D02*
X205718Y83566D01*
X211074Y88922D01*
X211074Y96498D01*
X205718Y101854D01*
X198142Y101854D01*
X192786Y96498D01*
X192786Y88922D01*
X198142Y83566D01*
G37*
G36*
X172742Y83566D02*
X180318Y83566D01*
X185674Y88922D01*
X185674Y96498D01*
X180318Y101854D01*
X172742Y101854D01*
X167386Y96498D01*
X167386Y88922D01*
X172742Y83566D01*
G37*
%LPD*%
D10*
X72780Y171290D03*
X72780Y196290D03*
D11*
X160020Y172085D03*
X185420Y172085D03*
X210820Y172085D03*
X261620Y172085D03*
X134620Y172085D03*
X236220Y172085D03*
X19050Y92710D03*
X19050Y118110D03*
X44450Y92710D03*
X44450Y118110D03*
X97790Y92710D03*
X97790Y118110D03*
X123190Y92710D03*
X123190Y118110D03*
X176530Y92710D03*
X176530Y118110D03*
X201930Y92710D03*
X201930Y118110D03*
X255270Y92710D03*
X255270Y118110D03*
X280670Y92710D03*
X280670Y118110D03*
D12*
X60960Y731340D03*
X60960Y705940D03*
X60960Y578940D03*
X60960Y553540D03*
X60960Y680540D03*
X60960Y655140D03*
X60960Y604340D03*
X60960Y629740D03*
X60960Y528140D03*
X60960Y502740D03*
X60960Y477340D03*
X60960Y451940D03*
X60960Y426540D03*
X60960Y401140D03*
X60960Y375740D03*
X60960Y350340D03*
X60960Y324940D03*
X60960Y299540D03*
X60960Y274140D03*
X60960Y248740D03*
X238760Y248740D03*
X238760Y274140D03*
X238760Y299540D03*
X238760Y324940D03*
X238760Y350340D03*
X238760Y375740D03*
X238760Y401140D03*
X238760Y426540D03*
X238760Y451940D03*
X238760Y477340D03*
X238760Y502740D03*
X238760Y528140D03*
X238760Y553540D03*
X238760Y578940D03*
X238760Y604340D03*
X238760Y629740D03*
X238760Y655140D03*
X238760Y680540D03*
X238760Y705940D03*
X238760Y731340D03*
D13*
X49860Y731340D03*
X49860Y705940D03*
X49860Y680540D03*
X49860Y655140D03*
X49860Y629740D03*
X49860Y604340D03*
X49860Y578940D03*
X49860Y553540D03*
X49860Y528140D03*
X49860Y502740D03*
X49860Y477340D03*
X49860Y451940D03*
X49860Y426540D03*
X49860Y401140D03*
X49860Y375740D03*
X49860Y350340D03*
X49860Y324940D03*
X49860Y299540D03*
X49860Y274140D03*
X49860Y248740D03*
X249860Y248740D03*
X249860Y274140D03*
X249860Y299540D03*
X249860Y324940D03*
X249860Y350340D03*
X249860Y375740D03*
X249860Y401140D03*
X249860Y426540D03*
X249860Y451940D03*
X249860Y477340D03*
X249860Y502740D03*
X249860Y528140D03*
X249860Y553540D03*
X249860Y578940D03*
X249860Y604340D03*
X249860Y629740D03*
X249860Y655140D03*
X249860Y680540D03*
X249860Y705940D03*
X249860Y731340D03*
D14*
X248412Y731520D02*
X239268Y731520D01*
X238760Y731340D01*
X248412Y731520D02*
X249860Y731340D01*
X60960Y528828D02*
X50292Y528828D01*
X49860Y528140D01*
X60960Y528140D02*
X60960Y528828D01*
X60960Y300228D02*
X50292Y300228D01*
X60960Y300228D02*
X60960Y299540D01*
X50292Y300228D02*
X49860Y299540D01*
X67056Y306324D02*
X80772Y306324D01*
X67056Y306324D02*
X60960Y300228D01*
X60960Y299540D01*
X73152Y195072D02*
X111252Y195072D01*
X134112Y172212D01*
X73152Y195072D02*
X72780Y196290D01*
X134112Y172212D02*
X134620Y172085D01*
X45720Y169164D02*
X45720Y118872D01*
X45720Y169164D02*
X71628Y195072D01*
X45720Y118872D02*
X44450Y118110D01*
X71628Y195072D02*
X72780Y196290D01*
X123444Y160020D02*
X123444Y128016D01*
X123444Y118872D01*
X123444Y160020D02*
X134112Y170688D01*
X123444Y118872D02*
X123190Y118110D01*
X134112Y170688D02*
X134620Y172085D01*
X190500Y118872D02*
X201168Y118872D01*
X190500Y118872D02*
X181356Y128016D01*
X123444Y128016D01*
X201168Y118872D02*
X201930Y118110D01*
X280416Y118872D02*
X280416Y167640D01*
X265176Y182880D01*
X257556Y182880D01*
X246888Y172212D01*
X246888Y163068D01*
X202692Y118872D01*
X280416Y118872D02*
X280670Y118110D01*
X202692Y118872D02*
X201930Y118110D01*
X239268Y554736D02*
X248412Y554736D01*
X249860Y553540D01*
X239268Y554736D02*
X238760Y553540D01*
X239268Y300228D02*
X248412Y300228D01*
X239268Y300228D02*
X238760Y299540D01*
X248412Y300228D02*
X249860Y299540D01*
X248412Y426720D02*
X239268Y426720D01*
X248412Y426720D02*
X249860Y426540D01*
X239268Y426720D02*
X238760Y426540D01*
X237744Y306324D02*
X237744Y300228D01*
X237744Y306324D02*
X219456Y324612D01*
X219456Y451104D01*
X231648Y463296D01*
X268224Y463296D01*
X269748Y461772D01*
X269748Y441960D01*
X254508Y426720D01*
X249936Y426720D01*
X237744Y300228D02*
X238760Y299540D01*
X249860Y426540D02*
X249936Y426720D01*
X249936Y553212D02*
X259080Y553212D01*
X272796Y539496D01*
X272796Y467868D01*
X268224Y463296D01*
X249936Y553212D02*
X249860Y553540D01*
X248412Y681228D02*
X239268Y681228D01*
X248412Y681228D02*
X249860Y680540D01*
X239268Y681228D02*
X238760Y680540D01*
X60960Y426720D02*
X50292Y426720D01*
X60960Y426720D02*
X60960Y426540D01*
X50292Y426720D02*
X49860Y426540D01*
X50292Y553212D02*
X60960Y553212D01*
X60960Y553540D01*
X50292Y553212D02*
X49860Y553540D01*
X74676Y643128D02*
X74676Y665988D01*
X60960Y679704D01*
X49860Y680540D01*
X60960Y680540D02*
X60960Y679704D01*
X49860Y680540D01*
X60960Y559308D02*
X60960Y554736D01*
X60960Y559308D02*
X74676Y573024D01*
X74676Y643128D01*
X60960Y554736D02*
X60960Y553540D01*
X60960Y432816D02*
X60960Y426720D01*
X60960Y432816D02*
X71628Y443484D01*
X71628Y542544D01*
X60960Y553212D01*
X60960Y426720D02*
X60960Y426540D01*
X60960Y553212D02*
X60960Y553540D01*
X88392Y559308D02*
X100584Y559308D01*
X88392Y559308D02*
X74676Y573024D01*
X259080Y553212D02*
X278892Y573024D01*
X278892Y640080D01*
X269748Y649224D01*
X269748Y665988D01*
X256032Y679704D01*
X249936Y679704D01*
X249860Y553540D02*
X259080Y553212D01*
X249936Y679704D02*
X249860Y680540D01*
X257556Y204216D02*
X257556Y182880D01*
X257556Y204216D02*
X248412Y213360D01*
X248412Y234696D01*
D15*
X80772Y306324D03*
X74676Y643128D03*
X100584Y559308D03*
X248412Y234696D03*
D14*
X92964Y434340D02*
X92964Y480060D01*
X92964Y434340D02*
X60960Y402336D01*
X49860Y401140D01*
X22860Y423672D02*
X22860Y633984D01*
X22860Y423672D02*
X44196Y402336D01*
X48768Y402336D01*
X49860Y401140D01*
X60960Y401140D02*
X60960Y402336D01*
X49860Y401140D01*
D15*
X92964Y480060D03*
X22860Y633984D03*
D14*
X88392Y381000D02*
X105156Y381000D01*
X124968Y582168D02*
X190500Y582168D01*
X124968Y582168D02*
X106680Y582168D01*
X92964Y582168D01*
X196596Y588264D02*
X237744Y629412D01*
X196596Y588264D02*
X190500Y582168D01*
X237744Y629412D02*
X249860Y629740D01*
X239268Y629412D02*
X238760Y629740D01*
X239268Y629412D02*
X249860Y629740D01*
X105156Y554736D02*
X105156Y381000D01*
X105156Y554736D02*
X106680Y556260D01*
X106680Y582168D01*
X181356Y373380D02*
X181356Y227076D01*
X236220Y172212D01*
X236220Y172085D01*
X181356Y373380D02*
X173736Y373380D01*
X167640Y379476D01*
D15*
X88392Y381000D03*
X105156Y381000D03*
X92964Y582168D03*
X196596Y588264D03*
X124968Y582168D03*
X181356Y373380D03*
X167640Y379476D03*
D14*
X112776Y588264D02*
X140208Y615696D01*
D15*
X140208Y615696D03*
X112776Y588264D03*
D14*
X74676Y554736D02*
X74676Y507492D01*
X99060Y483108D01*
X99060Y400812D01*
X82296Y384048D01*
X82296Y323088D01*
X118872Y286512D01*
X118872Y274320D01*
X96012Y161544D02*
X96012Y131064D01*
D15*
X74676Y554736D03*
X118872Y274320D03*
X96012Y161544D03*
X96012Y131064D03*
D14*
X83820Y80772D02*
X56388Y80772D01*
X45720Y91440D01*
X44450Y92710D01*
X123444Y278892D02*
X123444Y440436D01*
X123444Y278892D02*
X124968Y277368D01*
X124968Y249936D01*
X80772Y205740D01*
X68580Y205740D01*
X33528Y170688D01*
X33528Y103632D01*
X44196Y92964D01*
X44450Y92710D01*
D15*
X83820Y80772D03*
X123444Y440436D03*
D14*
X256032Y166116D02*
X256032Y118872D01*
X256032Y166116D02*
X260604Y170688D01*
X256032Y118872D02*
X255270Y118110D01*
X260604Y170688D02*
X261620Y172085D01*
X254508Y117348D02*
X216408Y117348D01*
X207264Y108204D01*
X185928Y108204D01*
X176784Y117348D01*
X254508Y117348D02*
X255270Y118110D01*
X176784Y117348D02*
X176530Y118110D01*
X239268Y705612D02*
X248412Y705612D01*
X239268Y705612D02*
X238760Y705940D01*
X248412Y705612D02*
X249860Y705940D01*
X73152Y170688D02*
X73152Y143256D01*
X97536Y118872D01*
X73152Y170688D02*
X72780Y171290D01*
X97536Y118872D02*
X97790Y118110D01*
X237744Y697992D02*
X237744Y705612D01*
X237744Y697992D02*
X228600Y688848D01*
X228600Y646176D01*
X233172Y641604D01*
X268224Y641604D01*
X269748Y640080D01*
X269748Y594360D01*
X265176Y589788D01*
X230124Y589788D01*
X179832Y539496D01*
X179832Y483108D01*
X144780Y448056D01*
X144780Y167640D01*
X129540Y152400D01*
X237744Y705612D02*
X238760Y705940D01*
X175260Y117348D02*
X137160Y117348D01*
X128016Y108204D01*
X108204Y108204D01*
X99060Y117348D01*
X175260Y117348D02*
X176530Y118110D01*
X99060Y117348D02*
X97790Y118110D01*
D15*
X129540Y152400D03*
D14*
X60960Y502920D02*
X50292Y502920D01*
X60960Y502920D02*
X60960Y502740D01*
X50292Y502920D02*
X49860Y502740D01*
X111252Y437388D02*
X123444Y449580D01*
X111252Y437388D02*
X111252Y374904D01*
X89916Y353568D01*
D15*
X123444Y449580D03*
X89916Y353568D03*
D14*
X74676Y364236D02*
X74676Y402336D01*
X74676Y364236D02*
X60960Y350520D01*
X49860Y350340D01*
X60960Y350340D02*
X60960Y350520D01*
X49860Y350340D01*
D15*
X74676Y402336D03*
D14*
X71628Y324612D02*
X111252Y284988D01*
X71628Y324612D02*
X60960Y324612D01*
X49860Y324940D01*
X60960Y324940D02*
X60960Y324612D01*
X49860Y324940D01*
D15*
X111252Y284988D03*
D14*
X92964Y288036D02*
X27432Y288036D01*
X92964Y288036D02*
X115824Y265176D01*
X115824Y245364D01*
X79248Y208788D01*
X67056Y208788D01*
X30480Y172212D01*
X30480Y91440D01*
X47244Y74676D01*
X105156Y74676D01*
X121920Y91440D01*
X123190Y92710D01*
D15*
X27432Y288036D03*
D14*
X70104Y135636D02*
X70104Y120396D01*
X97536Y92964D01*
X97790Y92710D01*
D15*
X70104Y135636D03*
D14*
X225552Y338328D02*
X225552Y414528D01*
X225552Y443484D01*
X225552Y338328D02*
X237744Y326136D01*
X249860Y324940D01*
X278892Y644652D02*
X278892Y649224D01*
X278892Y644652D02*
X281940Y641604D01*
X281940Y437388D01*
X269748Y425196D01*
X269748Y416052D01*
X268224Y414528D01*
X225552Y414528D01*
X239268Y326136D02*
X238760Y324940D01*
X239268Y326136D02*
X249860Y324940D01*
D15*
X225552Y443484D03*
X278892Y649224D03*
D14*
X248412Y350520D02*
X239268Y350520D01*
X238760Y350340D01*
X248412Y350520D02*
X249860Y350340D01*
X248412Y502920D02*
X239268Y502920D01*
X238760Y502740D01*
X248412Y502920D02*
X249860Y502740D01*
X216408Y515112D02*
X149352Y448056D01*
X149352Y163068D01*
D15*
X216408Y515112D03*
X149352Y163068D03*
D14*
X277368Y399288D02*
X277368Y423672D01*
X277368Y399288D02*
X254508Y376428D01*
X249936Y376428D01*
X249860Y375740D01*
X248412Y376428D02*
X239268Y376428D01*
X248412Y376428D02*
X249860Y375740D01*
X239268Y376428D02*
X238760Y375740D01*
D15*
X277368Y423672D03*
D14*
X248412Y400812D02*
X239268Y400812D01*
X238760Y401140D01*
X248412Y400812D02*
X249860Y401140D01*
X155448Y417576D02*
X155448Y445008D01*
X167640Y457200D02*
X237744Y527304D01*
X167640Y457200D02*
X155448Y445008D01*
X237744Y527304D02*
X249860Y528140D01*
X239268Y527304D02*
X238760Y528140D01*
X239268Y527304D02*
X249860Y528140D01*
D15*
X155448Y417576D03*
X167640Y457200D03*
D14*
X195072Y416052D02*
X201168Y416052D01*
X195072Y416052D02*
X161544Y382524D01*
X161544Y368808D01*
X169164Y361188D01*
D15*
X201168Y416052D03*
X169164Y361188D03*
D14*
X272796Y571500D02*
X272796Y579120D01*
X272796Y571500D02*
X266700Y565404D01*
X231648Y565404D01*
X228600Y562356D01*
X228600Y544068D01*
X233172Y539496D01*
X268224Y539496D01*
X269748Y537972D01*
X269748Y492252D01*
X266700Y489204D01*
X231648Y489204D01*
X161544Y419100D01*
X161544Y387096D01*
X158496Y384048D01*
X158496Y188976D01*
X170688Y176784D01*
X170688Y135636D01*
X169164Y134112D01*
D15*
X272796Y579120D03*
X169164Y134112D03*
D14*
X173736Y48768D02*
X211836Y48768D01*
X254508Y91440D01*
X255270Y92710D01*
X272796Y292608D02*
X272796Y368808D01*
X272796Y292608D02*
X265176Y284988D01*
X195072Y284988D01*
X175260Y266700D02*
X175260Y222504D01*
D15*
X173736Y48768D03*
X272796Y368808D03*
X195072Y284988D03*
X175260Y266700D03*
X175260Y222504D03*
D14*
X60960Y376428D02*
X50292Y376428D01*
X60960Y376428D02*
X60960Y375740D01*
X50292Y376428D02*
X49860Y375740D01*
X173736Y518160D02*
X173736Y562356D01*
D15*
X173736Y562356D03*
X173736Y518160D03*
M02*
