G04 EAGLE Gerber RS-274X export*
G75*
%MOMM*%
%FSLAX34Y34*%
%LPD*%
%INSolderpaste Bottom*%
%IPPOS*%
%AMOC8*
5,1,8,0,0,1.08239X$1,22.5*%
G01*
G04 Define Apertures*
%ADD10R,0.762000X0.279400*%
%ADD11R,0.973900X0.798700*%
%ADD12R,0.798700X0.973900*%
%ADD13R,0.970200X0.920900*%
%ADD14R,0.600000X1.700000*%
%ADD15R,2.500000X2.800000*%
%ADD16R,0.535100X0.644000*%
D10*
X122428Y605672D03*
X122428Y600671D03*
X122428Y595669D03*
X122428Y590668D03*
X90932Y590668D03*
X90932Y595669D03*
X90932Y600671D03*
X90932Y605672D03*
X191008Y606307D03*
X191008Y601306D03*
X191008Y596304D03*
X191008Y591303D03*
X159512Y591303D03*
X159512Y596304D03*
X159512Y601306D03*
X159512Y606307D03*
D11*
X91230Y645898D03*
X91230Y662202D03*
D12*
X111944Y543560D03*
X128248Y543560D03*
X111983Y527050D03*
X128287Y527050D03*
D11*
X91230Y209018D03*
X91230Y225322D03*
X67721Y209018D03*
X67721Y225322D03*
X114738Y645898D03*
X114738Y662202D03*
X138246Y645898D03*
X138246Y662202D03*
D13*
X141399Y605916D03*
X141399Y590424D03*
D10*
X122428Y387867D03*
X122428Y382866D03*
X122428Y377864D03*
X122428Y372863D03*
X90932Y372863D03*
X90932Y377864D03*
X90932Y382866D03*
X90932Y387867D03*
D11*
X91230Y448207D03*
X91230Y431903D03*
D12*
X111983Y323850D03*
X128287Y323850D03*
X111983Y307340D03*
X128287Y307340D03*
D11*
X138246Y209018D03*
X138246Y225322D03*
X114738Y209018D03*
X114738Y225322D03*
X114738Y431903D03*
X114738Y448207D03*
X138246Y431903D03*
X138246Y448207D03*
D13*
X141399Y388111D03*
X141399Y372619D03*
D12*
X184207Y543560D03*
X167903Y543560D03*
X184246Y527050D03*
X167942Y527050D03*
D11*
X161754Y662202D03*
X161754Y645898D03*
D13*
X208650Y607186D03*
X208650Y591694D03*
D11*
X185262Y225322D03*
X185262Y209018D03*
X161754Y225322D03*
X161754Y209018D03*
X208771Y645898D03*
X208771Y662202D03*
X185262Y645898D03*
X185262Y662202D03*
D10*
X191008Y388502D03*
X191008Y383501D03*
X191008Y378499D03*
X191008Y373498D03*
X159512Y373498D03*
X159512Y378499D03*
X159512Y383501D03*
X159512Y388502D03*
D12*
X184246Y323850D03*
X167942Y323850D03*
X184246Y307340D03*
X167942Y307340D03*
D11*
X161754Y431903D03*
X161754Y448207D03*
D13*
X208650Y388111D03*
X208650Y372619D03*
D11*
X232279Y225322D03*
X232279Y209018D03*
X208771Y225322D03*
X208771Y209018D03*
X208771Y431903D03*
X208771Y448207D03*
X185262Y431903D03*
X185262Y448207D03*
D14*
X86656Y62600D03*
X76656Y62600D03*
X66656Y62600D03*
X56656Y62600D03*
D15*
X274156Y38100D03*
X29156Y38100D03*
D14*
X96656Y62600D03*
X106656Y62600D03*
X116656Y62600D03*
X126656Y62600D03*
X136656Y62600D03*
X146656Y62600D03*
X156656Y62600D03*
X166656Y62600D03*
X176656Y62600D03*
X186656Y62600D03*
X196656Y62600D03*
X206656Y62600D03*
X216656Y62600D03*
X226656Y62600D03*
X236656Y62600D03*
X246656Y62600D03*
D16*
X112134Y584200D03*
X101984Y584200D03*
X112134Y612140D03*
X101984Y612140D03*
X112134Y365760D03*
X101984Y365760D03*
X112134Y394335D03*
X101984Y394335D03*
X169980Y585470D03*
X180130Y585470D03*
X169980Y612775D03*
X180130Y612775D03*
X169980Y367030D03*
X180130Y367030D03*
X169980Y394970D03*
X180130Y394970D03*
M02*
