G04 EAGLE Gerber RS-274X export*
G75*
%MOMM*%
%FSLAX34Y34*%
%LPD*%
%INSoldermask Bottom*%
%IPPOS*%
%AMOC8*
5,1,8,0,0,1.08239X$1,22.5*%
G01*
G04 Define Apertures*
%ADD10C,2.703200*%
%ADD11R,0.965200X0.482600*%
%ADD12R,1.177100X1.001900*%
%ADD13R,1.173400X1.124100*%
%ADD14C,1.473200*%
%ADD15R,0.803200X1.903200*%
%ADD16R,2.703200X3.003200*%
%ADD17P,1.8695X8X22.5*%
%ADD18C,1.711200*%
%ADD19C,2.603200*%
%ADD20R,0.838200X1.473200*%
%ADD21R,1.001900X1.177100*%
%ADD22C,0.959600*%
D10*
X277840Y217170D03*
X23840Y217170D03*
D11*
X112428Y570672D03*
X112428Y565671D03*
X112428Y560669D03*
X112428Y555668D03*
X80932Y555668D03*
X80932Y560669D03*
X80932Y565671D03*
X80932Y570672D03*
X191008Y570672D03*
X191008Y565671D03*
X191008Y560669D03*
X191008Y555668D03*
X159512Y555668D03*
X159512Y560669D03*
X159512Y565671D03*
X159512Y570672D03*
D12*
X85771Y627102D03*
X85771Y610798D03*
X109738Y486944D03*
X109738Y503248D03*
X133246Y486944D03*
X133246Y503248D03*
X91230Y209018D03*
X91230Y225322D03*
X67721Y209018D03*
X67721Y225322D03*
X109738Y610898D03*
X109738Y627202D03*
X133246Y610898D03*
X133246Y627202D03*
D13*
X136399Y570916D03*
X136399Y555424D03*
D11*
X112428Y372867D03*
X112428Y367866D03*
X112428Y362864D03*
X112428Y357863D03*
X80932Y357863D03*
X80932Y362864D03*
X80932Y367866D03*
X80932Y372867D03*
D12*
X86230Y433207D03*
X86230Y416903D03*
X109738Y289774D03*
X109738Y306078D03*
X133246Y289774D03*
X133246Y306078D03*
X138246Y209018D03*
X138246Y225322D03*
X114738Y209018D03*
X114738Y225322D03*
X109738Y416903D03*
X109738Y433207D03*
X133246Y416903D03*
X133246Y433207D03*
D13*
X136399Y373111D03*
X136399Y357619D03*
D12*
X168246Y503057D03*
X168246Y486753D03*
X190262Y503248D03*
X190262Y486944D03*
X166754Y627202D03*
X166754Y610898D03*
D13*
X213650Y570916D03*
X213650Y555424D03*
D12*
X185262Y225322D03*
X185262Y209018D03*
X161754Y225322D03*
X161754Y209018D03*
X213771Y610898D03*
X213771Y627202D03*
X190262Y610898D03*
X190262Y627202D03*
D11*
X191008Y373502D03*
X191008Y368501D03*
X191008Y363499D03*
X191008Y358498D03*
X159512Y358498D03*
X159512Y363499D03*
X159512Y368501D03*
X159512Y373502D03*
D12*
X166754Y306078D03*
X166754Y289774D03*
X190262Y306078D03*
X190262Y289774D03*
X166754Y416903D03*
X166754Y433207D03*
D13*
X213650Y373111D03*
X213650Y357619D03*
D12*
X232279Y225322D03*
X232279Y209018D03*
X208771Y225322D03*
X208771Y209018D03*
X213771Y416903D03*
X213771Y433207D03*
X190262Y416903D03*
X190262Y433207D03*
D14*
X72780Y161290D03*
X72780Y186290D03*
D15*
X85000Y62600D03*
X75000Y62600D03*
X65000Y62600D03*
X55000Y62600D03*
D16*
X272500Y38100D03*
X27500Y38100D03*
D15*
X95000Y62600D03*
X105000Y62600D03*
X115000Y62600D03*
X125000Y62600D03*
X135000Y62600D03*
X145000Y62600D03*
X155000Y62600D03*
X165000Y62600D03*
X175000Y62600D03*
X185000Y62600D03*
X195000Y62600D03*
X205000Y62600D03*
X215000Y62600D03*
X225000Y62600D03*
X235000Y62600D03*
X245000Y62600D03*
D17*
X160020Y172085D03*
X185420Y172085D03*
X210820Y172085D03*
X261620Y172085D03*
X134620Y172085D03*
X236220Y172085D03*
X19050Y92710D03*
X19050Y118110D03*
X44450Y92710D03*
X44450Y118110D03*
X97790Y92710D03*
X97790Y118110D03*
X123190Y92710D03*
X123190Y118110D03*
X176530Y92710D03*
X176530Y118110D03*
X201930Y92710D03*
X201930Y118110D03*
X255270Y92710D03*
X255270Y118110D03*
X280670Y92710D03*
X280670Y118110D03*
D18*
X60960Y731340D03*
X60960Y705940D03*
X60960Y578940D03*
X60960Y553540D03*
X60960Y680540D03*
X60960Y655140D03*
X60960Y604340D03*
X60960Y629740D03*
X60960Y528140D03*
X60960Y502740D03*
X60960Y477340D03*
X60960Y451940D03*
X60960Y426540D03*
X60960Y401140D03*
X60960Y375740D03*
X60960Y350340D03*
X60960Y324940D03*
X60960Y299540D03*
X60960Y274140D03*
X60960Y248740D03*
X238760Y248740D03*
X238760Y274140D03*
X238760Y299540D03*
X238760Y324940D03*
X238760Y350340D03*
X238760Y375740D03*
X238760Y401140D03*
X238760Y426540D03*
X238760Y451940D03*
X238760Y477340D03*
X238760Y502740D03*
X238760Y528140D03*
X238760Y553540D03*
X238760Y578940D03*
X238760Y604340D03*
X238760Y629740D03*
X238760Y655140D03*
X238760Y680540D03*
X238760Y705940D03*
X238760Y731340D03*
D19*
X206860Y726105D03*
X92860Y726105D03*
X206870Y254965D03*
X92860Y254965D03*
D20*
X92616Y550170D03*
X100744Y550170D03*
X92616Y575170D03*
X100744Y575170D03*
X92616Y353000D03*
X100744Y353000D03*
X92616Y378000D03*
X100744Y378000D03*
X179324Y550170D03*
X171196Y550170D03*
X179324Y575170D03*
X171196Y575170D03*
X179324Y353000D03*
X171196Y353000D03*
X179324Y378000D03*
X171196Y378000D03*
D21*
X233152Y145000D03*
X216848Y145000D03*
D22*
X196596Y548640D03*
X220980Y316992D03*
X100584Y562356D03*
X124968Y560832D03*
X124968Y512064D03*
X82296Y577596D03*
X160020Y577596D03*
X225552Y153924D03*
X83820Y381000D03*
X111252Y381000D03*
X158496Y381000D03*
X224028Y432816D03*
X192024Y381000D03*
X121920Y362712D03*
X121920Y341376D03*
X137160Y266700D03*
X100584Y339852D03*
X94488Y365760D03*
X188976Y577596D03*
X202692Y563880D03*
X225552Y451104D03*
X196596Y533400D03*
X170688Y562356D03*
X208788Y600456D03*
X178308Y291084D03*
X170688Y318516D03*
X190500Y403860D03*
X178308Y281940D03*
X201168Y405384D03*
X211836Y397764D03*
X219456Y225552D03*
X166116Y332232D03*
X202692Y48768D03*
X65532Y77724D03*
X56388Y77724D03*
X237744Y99060D03*
X121920Y569976D03*
X115824Y513588D03*
X132588Y448056D03*
X102108Y512064D03*
X121920Y371856D03*
X100584Y315468D03*
X181356Y365760D03*
X173736Y338328D03*
X181356Y562356D03*
X170688Y513588D03*
M02*
