G04 EAGLE Gerber RS-274X export*
G75*
%MOMM*%
%FSLAX34Y34*%
%LPD*%
%INSoldermask Top*%
%IPPOS*%
%AMOC8*
5,1,8,0,0,1.08239X$1,22.5*%
G01*
G04 Define Apertures*
%ADD10C,2.703200*%
%ADD11C,1.473200*%
%ADD12P,1.8695X8X22.5*%
%ADD13C,1.711200*%
%ADD14R,3.703200X1.903200*%
%ADD15C,2.603200*%
%ADD16C,0.959600*%
D10*
X277840Y217170D03*
X23840Y217170D03*
D11*
X72780Y171290D03*
X72780Y196290D03*
D12*
X160020Y172085D03*
X185420Y172085D03*
X210820Y172085D03*
X261620Y172085D03*
X134620Y172085D03*
X236220Y172085D03*
X19050Y92710D03*
X19050Y118110D03*
X44450Y92710D03*
X44450Y118110D03*
X97790Y92710D03*
X97790Y118110D03*
X123190Y92710D03*
X123190Y118110D03*
X176530Y92710D03*
X176530Y118110D03*
X201930Y92710D03*
X201930Y118110D03*
X255270Y92710D03*
X255270Y118110D03*
X280670Y92710D03*
X280670Y118110D03*
D13*
X60960Y731340D03*
X60960Y705940D03*
X60960Y578940D03*
X60960Y553540D03*
X60960Y680540D03*
X60960Y655140D03*
X60960Y604340D03*
X60960Y629740D03*
X60960Y528140D03*
X60960Y502740D03*
X60960Y477340D03*
X60960Y451940D03*
X60960Y426540D03*
X60960Y401140D03*
X60960Y375740D03*
X60960Y350340D03*
X60960Y324940D03*
X60960Y299540D03*
X60960Y274140D03*
X60960Y248740D03*
X238760Y248740D03*
X238760Y274140D03*
X238760Y299540D03*
X238760Y324940D03*
X238760Y350340D03*
X238760Y375740D03*
X238760Y401140D03*
X238760Y426540D03*
X238760Y451940D03*
X238760Y477340D03*
X238760Y502740D03*
X238760Y528140D03*
X238760Y553540D03*
X238760Y578940D03*
X238760Y604340D03*
X238760Y629740D03*
X238760Y655140D03*
X238760Y680540D03*
X238760Y705940D03*
X238760Y731340D03*
D14*
X49860Y731340D03*
X49860Y705940D03*
X49860Y680540D03*
X49860Y655140D03*
X49860Y629740D03*
X49860Y604340D03*
X49860Y578940D03*
X49860Y553540D03*
X49860Y528140D03*
X49860Y502740D03*
X49860Y477340D03*
X49860Y451940D03*
X49860Y426540D03*
X49860Y401140D03*
X49860Y375740D03*
X49860Y350340D03*
X49860Y324940D03*
X49860Y299540D03*
X49860Y274140D03*
X49860Y248740D03*
X249860Y248740D03*
X249860Y274140D03*
X249860Y299540D03*
X249860Y324940D03*
X249860Y350340D03*
X249860Y375740D03*
X249860Y401140D03*
X249860Y426540D03*
X249860Y451940D03*
X249860Y477340D03*
X249860Y502740D03*
X249860Y528140D03*
X249860Y553540D03*
X249860Y578940D03*
X249860Y604340D03*
X249860Y629740D03*
X249860Y655140D03*
X249860Y680540D03*
X249860Y705940D03*
X249860Y731340D03*
D15*
X206860Y726105D03*
X92860Y726105D03*
X206870Y254965D03*
X92860Y254965D03*
D16*
X80772Y306324D03*
X74676Y643128D03*
X100584Y559308D03*
X248412Y234696D03*
X92964Y480060D03*
X22860Y633984D03*
X88392Y381000D03*
X105156Y381000D03*
X92964Y582168D03*
X196596Y588264D03*
X124968Y582168D03*
X181356Y373380D03*
X167640Y379476D03*
X140208Y615696D03*
X112776Y588264D03*
X74676Y554736D03*
X118872Y274320D03*
X96012Y161544D03*
X96012Y131064D03*
X83820Y80772D03*
X123444Y440436D03*
X129540Y152400D03*
X123444Y449580D03*
X89916Y353568D03*
X74676Y402336D03*
X111252Y284988D03*
X27432Y288036D03*
X70104Y135636D03*
X225552Y443484D03*
X278892Y649224D03*
X216408Y515112D03*
X149352Y163068D03*
X277368Y423672D03*
X155448Y417576D03*
X167640Y457200D03*
X201168Y416052D03*
X169164Y361188D03*
X272796Y579120D03*
X169164Y134112D03*
X173736Y48768D03*
X272796Y368808D03*
X195072Y284988D03*
X175260Y266700D03*
X175260Y222504D03*
X173736Y562356D03*
X173736Y518160D03*
M02*
