G04 EAGLE Gerber RS-274X export*
G75*
%MOMM*%
%FSLAX34Y34*%
%LPD*%
%INSolderpaste Bottom*%
%IPPOS*%
%AMOC8*
5,1,8,0,0,1.08239X$1,22.5*%
G01*
G04 Define Apertures*
%ADD10R,0.762000X0.279400*%
%ADD11R,0.973900X0.798700*%
%ADD12R,0.970200X0.920900*%
%ADD13R,0.600000X1.700000*%
%ADD14R,2.500000X2.800000*%
%ADD15R,0.798700X0.973900*%
D10*
X112428Y570672D03*
X112428Y565671D03*
X112428Y560669D03*
X112428Y555668D03*
X80932Y555668D03*
X80932Y560669D03*
X80932Y565671D03*
X80932Y570672D03*
X191008Y570672D03*
X191008Y565671D03*
X191008Y560669D03*
X191008Y555668D03*
X159512Y555668D03*
X159512Y560669D03*
X159512Y565671D03*
X159512Y570672D03*
D11*
X85771Y627102D03*
X85771Y610798D03*
X109738Y486944D03*
X109738Y503248D03*
X133246Y486944D03*
X133246Y503248D03*
X91230Y209018D03*
X91230Y225322D03*
X67721Y209018D03*
X67721Y225322D03*
X109738Y610898D03*
X109738Y627202D03*
X133246Y610898D03*
X133246Y627202D03*
D12*
X136399Y570916D03*
X136399Y555424D03*
D10*
X112428Y372867D03*
X112428Y367866D03*
X112428Y362864D03*
X112428Y357863D03*
X80932Y357863D03*
X80932Y362864D03*
X80932Y367866D03*
X80932Y372867D03*
D11*
X86230Y433207D03*
X86230Y416903D03*
X109738Y289774D03*
X109738Y306078D03*
X133246Y289774D03*
X133246Y306078D03*
X138246Y209018D03*
X138246Y225322D03*
X114738Y209018D03*
X114738Y225322D03*
X109738Y416903D03*
X109738Y433207D03*
X133246Y416903D03*
X133246Y433207D03*
D12*
X136399Y373111D03*
X136399Y357619D03*
D11*
X168246Y503057D03*
X168246Y486753D03*
X190262Y503248D03*
X190262Y486944D03*
X166754Y627202D03*
X166754Y610898D03*
D12*
X213650Y570916D03*
X213650Y555424D03*
D11*
X185262Y225322D03*
X185262Y209018D03*
X161754Y225322D03*
X161754Y209018D03*
X213771Y610898D03*
X213771Y627202D03*
X190262Y610898D03*
X190262Y627202D03*
D10*
X191008Y373502D03*
X191008Y368501D03*
X191008Y363499D03*
X191008Y358498D03*
X159512Y358498D03*
X159512Y363499D03*
X159512Y368501D03*
X159512Y373502D03*
D11*
X166754Y306078D03*
X166754Y289774D03*
X190262Y306078D03*
X190262Y289774D03*
X166754Y416903D03*
X166754Y433207D03*
D12*
X213650Y373111D03*
X213650Y357619D03*
D11*
X232279Y225322D03*
X232279Y209018D03*
X208771Y225322D03*
X208771Y209018D03*
X213771Y416903D03*
X213771Y433207D03*
X190262Y416903D03*
X190262Y433207D03*
D13*
X85000Y62600D03*
X75000Y62600D03*
X65000Y62600D03*
X55000Y62600D03*
D14*
X272500Y38100D03*
X27500Y38100D03*
D13*
X95000Y62600D03*
X105000Y62600D03*
X115000Y62600D03*
X125000Y62600D03*
X135000Y62600D03*
X145000Y62600D03*
X155000Y62600D03*
X165000Y62600D03*
X175000Y62600D03*
X185000Y62600D03*
X195000Y62600D03*
X205000Y62600D03*
X215000Y62600D03*
X225000Y62600D03*
X235000Y62600D03*
X245000Y62600D03*
D15*
X233152Y145000D03*
X216848Y145000D03*
M02*
