G04 EAGLE Gerber RS-274X export*
G75*
%MOMM*%
%FSLAX34Y34*%
%LPD*%
%INSoldermask Bottom*%
%IPPOS*%
%AMOC8*
5,1,8,0,0,1.08239X$1,22.5*%
G01*
G04 Define Apertures*
%ADD10C,2.703200*%
%ADD11R,0.965200X0.482600*%
%ADD12R,1.177100X1.001900*%
%ADD13R,2.018500X1.367800*%
%ADD14R,1.173400X1.124100*%
%ADD15C,1.473200*%
%ADD16R,0.803200X1.903200*%
%ADD17R,2.703200X3.003200*%
%ADD18P,1.8695X8X22.5*%
%ADD19C,1.711200*%
%ADD20C,2.603200*%
%ADD21R,1.473200X0.838200*%
%ADD22R,1.001900X1.177100*%
%ADD23C,0.959600*%
D10*
X277840Y217170D03*
X23840Y217170D03*
D11*
X112428Y580672D03*
X112428Y575671D03*
X112428Y570669D03*
X112428Y565668D03*
X80932Y565668D03*
X80932Y570669D03*
X80932Y575671D03*
X80932Y580672D03*
X191008Y580672D03*
X191008Y575671D03*
X191008Y570669D03*
X191008Y565668D03*
X159512Y565668D03*
X159512Y570669D03*
X159512Y575671D03*
X159512Y580672D03*
D12*
X85771Y642102D03*
X85771Y625798D03*
X93246Y491944D03*
X93246Y508248D03*
X121754Y491944D03*
X121754Y508248D03*
D13*
X32882Y512416D03*
X32882Y541924D03*
X32882Y592416D03*
X32882Y621924D03*
D12*
X109738Y625898D03*
X109738Y642202D03*
X133246Y625898D03*
X133246Y642202D03*
D14*
X136399Y580916D03*
X136399Y565424D03*
D11*
X112428Y372867D03*
X112428Y367866D03*
X112428Y362864D03*
X112428Y357863D03*
X80932Y357863D03*
X80932Y362864D03*
X80932Y367866D03*
X80932Y372867D03*
D12*
X86230Y433207D03*
X86230Y416903D03*
X93246Y284774D03*
X93246Y301078D03*
X121754Y284774D03*
X121754Y301078D03*
D13*
X32882Y302416D03*
X32882Y331924D03*
X32882Y382416D03*
X32882Y411924D03*
D12*
X109738Y416903D03*
X109738Y433207D03*
X133246Y416903D03*
X133246Y433207D03*
D14*
X136399Y373111D03*
X136399Y357619D03*
D12*
X178246Y508057D03*
X178246Y491753D03*
X206754Y508248D03*
X206754Y491944D03*
X166754Y642202D03*
X166754Y625898D03*
D14*
X213650Y580916D03*
X213650Y565424D03*
D13*
X266872Y541924D03*
X266872Y512416D03*
X266872Y621924D03*
X266872Y592416D03*
D12*
X213771Y625898D03*
X213771Y642202D03*
X190262Y625898D03*
X190262Y642202D03*
D11*
X191008Y373502D03*
X191008Y368501D03*
X191008Y363499D03*
X191008Y358498D03*
X159512Y358498D03*
X159512Y363499D03*
X159512Y368501D03*
X159512Y373502D03*
D12*
X178246Y301078D03*
X178246Y284774D03*
X206754Y301078D03*
X206754Y284774D03*
X166754Y416903D03*
X166754Y433207D03*
D14*
X213650Y373111D03*
X213650Y357619D03*
D13*
X266872Y331924D03*
X266872Y302416D03*
X266872Y411924D03*
X266872Y382416D03*
D12*
X213771Y416903D03*
X213771Y433207D03*
X190262Y416903D03*
X190262Y433207D03*
D15*
X72780Y171290D03*
X72780Y196290D03*
D16*
X85000Y62600D03*
X75000Y62600D03*
X65000Y62600D03*
X55000Y62600D03*
D17*
X272500Y38100D03*
X27500Y38100D03*
D16*
X95000Y62600D03*
X105000Y62600D03*
X115000Y62600D03*
X125000Y62600D03*
X135000Y62600D03*
X145000Y62600D03*
X155000Y62600D03*
X165000Y62600D03*
X175000Y62600D03*
X185000Y62600D03*
X195000Y62600D03*
X205000Y62600D03*
X215000Y62600D03*
X225000Y62600D03*
X235000Y62600D03*
X245000Y62600D03*
D18*
X160020Y172085D03*
X185420Y172085D03*
X210820Y172085D03*
X261620Y172085D03*
X134620Y172085D03*
X236220Y172085D03*
X19050Y92710D03*
X19050Y118110D03*
X44450Y92710D03*
X44450Y118110D03*
X97790Y92710D03*
X97790Y118110D03*
X123190Y92710D03*
X123190Y118110D03*
X176530Y92710D03*
X176530Y118110D03*
X201930Y92710D03*
X201930Y118110D03*
X255270Y92710D03*
X255270Y118110D03*
X280670Y92710D03*
X280670Y118110D03*
D19*
X60960Y731340D03*
X60960Y705940D03*
X60960Y578940D03*
X60960Y553540D03*
X60960Y680540D03*
X60960Y655140D03*
X60960Y604340D03*
X60960Y629740D03*
X60960Y528140D03*
X60960Y502740D03*
X60960Y477340D03*
X60960Y451940D03*
X60960Y426540D03*
X60960Y401140D03*
X60960Y375740D03*
X60960Y350340D03*
X60960Y324940D03*
X60960Y299540D03*
X60960Y274140D03*
X60960Y248740D03*
X238760Y248740D03*
X238760Y274140D03*
X238760Y299540D03*
X238760Y324940D03*
X238760Y350340D03*
X238760Y375740D03*
X238760Y401140D03*
X238760Y426540D03*
X238760Y451940D03*
X238760Y477340D03*
X238760Y502740D03*
X238760Y528140D03*
X238760Y553540D03*
X238760Y578940D03*
X238760Y604340D03*
X238760Y629740D03*
X238760Y655140D03*
X238760Y680540D03*
X238760Y705940D03*
X238760Y731340D03*
D20*
X206860Y726105D03*
X92860Y726105D03*
X206870Y254965D03*
X92860Y254965D03*
D21*
X33050Y561496D03*
X33050Y569624D03*
X33050Y641596D03*
X33050Y649724D03*
X33050Y351496D03*
X33050Y359624D03*
X33050Y431496D03*
X33050Y439624D03*
X267215Y569624D03*
X267215Y561496D03*
X267215Y649724D03*
X267215Y641596D03*
X267215Y359624D03*
X267215Y351496D03*
X267215Y439624D03*
X267215Y431496D03*
D22*
X233152Y145000D03*
X216848Y145000D03*
D23*
X80772Y306324D03*
X74676Y643128D03*
X100584Y559308D03*
X248412Y234696D03*
X92964Y480060D03*
X22860Y633984D03*
X88392Y381000D03*
X105156Y381000D03*
X92964Y582168D03*
X196596Y588264D03*
X124968Y582168D03*
X181356Y373380D03*
X167640Y379476D03*
X140208Y615696D03*
X112776Y588264D03*
X74676Y554736D03*
X118872Y274320D03*
X96012Y161544D03*
X96012Y131064D03*
X83820Y80772D03*
X123444Y440436D03*
X129540Y152400D03*
X123444Y449580D03*
X89916Y353568D03*
X74676Y402336D03*
X111252Y284988D03*
X27432Y288036D03*
X70104Y135636D03*
X225552Y443484D03*
X278892Y649224D03*
X216408Y515112D03*
X149352Y163068D03*
X277368Y423672D03*
X155448Y417576D03*
X167640Y457200D03*
X201168Y416052D03*
X169164Y361188D03*
X272796Y579120D03*
X169164Y134112D03*
X173736Y48768D03*
X272796Y368808D03*
X195072Y284988D03*
X175260Y266700D03*
X175260Y222504D03*
X173736Y562356D03*
X173736Y518160D03*
M02*
