G04 EAGLE Gerber RS-274X export*
G75*
%MOMM*%
%FSLAX34Y34*%
%LPD*%
%INSoldermask Top*%
%IPPOS*%
%AMOC8*
5,1,8,0,0,1.08239X$1,22.5*%
G01*
G04 Define Apertures*
%ADD10C,2.703200*%
%ADD11C,1.473200*%
%ADD12P,1.8695X8X22.5*%
%ADD13C,1.711200*%
%ADD14R,3.703200X1.903200*%
%ADD15C,2.603200*%
D10*
X277840Y217170D03*
X23840Y217170D03*
D11*
X72780Y171290D03*
X72780Y196290D03*
D12*
X160020Y172085D03*
X185420Y172085D03*
X210820Y172085D03*
X261620Y172085D03*
X134620Y172085D03*
X236220Y172085D03*
X19050Y92710D03*
X19050Y118110D03*
X44450Y92710D03*
X44450Y118110D03*
X97790Y92710D03*
X97790Y118110D03*
X123190Y92710D03*
X123190Y118110D03*
X176530Y92710D03*
X176530Y118110D03*
X201930Y92710D03*
X201930Y118110D03*
X255270Y92710D03*
X255270Y118110D03*
X280670Y92710D03*
X280670Y118110D03*
D13*
X60960Y731340D03*
X60960Y705940D03*
X60960Y578940D03*
X60960Y553540D03*
X60960Y680540D03*
X60960Y655140D03*
X60960Y604340D03*
X60960Y629740D03*
X60960Y528140D03*
X60960Y502740D03*
X60960Y477340D03*
X60960Y451940D03*
X60960Y426540D03*
X60960Y401140D03*
X60960Y375740D03*
X60960Y350340D03*
X60960Y324940D03*
X60960Y299540D03*
X60960Y274140D03*
X60960Y248740D03*
X238760Y248740D03*
X238760Y274140D03*
X238760Y299540D03*
X238760Y324940D03*
X238760Y350340D03*
X238760Y375740D03*
X238760Y401140D03*
X238760Y426540D03*
X238760Y451940D03*
X238760Y477340D03*
X238760Y502740D03*
X238760Y528140D03*
X238760Y553540D03*
X238760Y578940D03*
X238760Y604340D03*
X238760Y629740D03*
X238760Y655140D03*
X238760Y680540D03*
X238760Y705940D03*
X238760Y731340D03*
D14*
X49860Y731340D03*
X49860Y705940D03*
X49860Y680540D03*
X49860Y655140D03*
X49860Y629740D03*
X49860Y604340D03*
X49860Y578940D03*
X49860Y553540D03*
X49860Y528140D03*
X49860Y502740D03*
X49860Y477340D03*
X49860Y451940D03*
X49860Y426540D03*
X49860Y401140D03*
X49860Y375740D03*
X49860Y350340D03*
X49860Y324940D03*
X49860Y299540D03*
X49860Y274140D03*
X49860Y248740D03*
X249860Y248740D03*
X249860Y274140D03*
X249860Y299540D03*
X249860Y324940D03*
X249860Y350340D03*
X249860Y375740D03*
X249860Y401140D03*
X249860Y426540D03*
X249860Y451940D03*
X249860Y477340D03*
X249860Y502740D03*
X249860Y528140D03*
X249860Y553540D03*
X249860Y578940D03*
X249860Y604340D03*
X249860Y629740D03*
X249860Y655140D03*
X249860Y680540D03*
X249860Y705940D03*
X249860Y731340D03*
D15*
X206860Y726105D03*
X92860Y726105D03*
X206870Y254965D03*
X92860Y254965D03*
M02*
