G04 EAGLE Gerber RS-274X export*
G75*
%MOMM*%
%FSLAX34Y34*%
%LPD*%
%INSolderpaste Bottom*%
%IPPOS*%
%AMOC8*
5,1,8,0,0,1.08239X$1,22.5*%
G01*
G04 Define Apertures*
%ADD10R,0.762000X0.279400*%
%ADD11R,0.973900X0.798700*%
%ADD12R,1.815300X1.164600*%
%ADD13R,0.970200X0.920900*%
%ADD14R,0.600000X1.700000*%
%ADD15R,2.500000X2.800000*%
%ADD16R,0.798700X0.973900*%
D10*
X112428Y580672D03*
X112428Y575671D03*
X112428Y570669D03*
X112428Y565668D03*
X80932Y565668D03*
X80932Y570669D03*
X80932Y575671D03*
X80932Y580672D03*
X191008Y580672D03*
X191008Y575671D03*
X191008Y570669D03*
X191008Y565668D03*
X159512Y565668D03*
X159512Y570669D03*
X159512Y575671D03*
X159512Y580672D03*
D11*
X85771Y642102D03*
X85771Y625798D03*
X93246Y491944D03*
X93246Y508248D03*
X121754Y491944D03*
X121754Y508248D03*
D12*
X32882Y512416D03*
X32882Y541924D03*
X32882Y592416D03*
X32882Y621924D03*
D11*
X109738Y625898D03*
X109738Y642202D03*
X133246Y625898D03*
X133246Y642202D03*
D13*
X136399Y580916D03*
X136399Y565424D03*
D10*
X112428Y372867D03*
X112428Y367866D03*
X112428Y362864D03*
X112428Y357863D03*
X80932Y357863D03*
X80932Y362864D03*
X80932Y367866D03*
X80932Y372867D03*
D11*
X86230Y433207D03*
X86230Y416903D03*
X93246Y284774D03*
X93246Y301078D03*
X121754Y284774D03*
X121754Y301078D03*
D12*
X32882Y302416D03*
X32882Y331924D03*
X32882Y382416D03*
X32882Y411924D03*
D11*
X109738Y416903D03*
X109738Y433207D03*
X133246Y416903D03*
X133246Y433207D03*
D13*
X136399Y373111D03*
X136399Y357619D03*
D11*
X178246Y508057D03*
X178246Y491753D03*
X206754Y508248D03*
X206754Y491944D03*
X166754Y642202D03*
X166754Y625898D03*
D13*
X213650Y580916D03*
X213650Y565424D03*
D12*
X266872Y541924D03*
X266872Y512416D03*
X266872Y621924D03*
X266872Y592416D03*
D11*
X213771Y625898D03*
X213771Y642202D03*
X190262Y625898D03*
X190262Y642202D03*
D10*
X191008Y373502D03*
X191008Y368501D03*
X191008Y363499D03*
X191008Y358498D03*
X159512Y358498D03*
X159512Y363499D03*
X159512Y368501D03*
X159512Y373502D03*
D11*
X178246Y301078D03*
X178246Y284774D03*
X206754Y301078D03*
X206754Y284774D03*
X166754Y416903D03*
X166754Y433207D03*
D13*
X213650Y373111D03*
X213650Y357619D03*
D12*
X266872Y331924D03*
X266872Y302416D03*
X266872Y411924D03*
X266872Y382416D03*
D11*
X213771Y416903D03*
X213771Y433207D03*
X190262Y416903D03*
X190262Y433207D03*
D14*
X85000Y62600D03*
X75000Y62600D03*
X65000Y62600D03*
X55000Y62600D03*
D15*
X272500Y38100D03*
X27500Y38100D03*
D14*
X95000Y62600D03*
X105000Y62600D03*
X115000Y62600D03*
X125000Y62600D03*
X135000Y62600D03*
X145000Y62600D03*
X155000Y62600D03*
X165000Y62600D03*
X175000Y62600D03*
X185000Y62600D03*
X195000Y62600D03*
X205000Y62600D03*
X215000Y62600D03*
X225000Y62600D03*
X235000Y62600D03*
X245000Y62600D03*
D16*
X233152Y145000D03*
X216848Y145000D03*
M02*
