G04 EAGLE Gerber RS-274X export*
G75*
%MOMM*%
%FSLAX34Y34*%
%LPD*%
%INSoldermask Top*%
%IPPOS*%
%AMOC8*
5,1,8,0,0,1.08239X$1,22.5*%
G01*
G04 Define Apertures*
%ADD10C,2.603200*%
%ADD11C,1.473200*%
%ADD12P,1.8695X8X22.5*%
%ADD13C,1.711200*%
%ADD14R,3.703200X1.903200*%
%ADD15C,0.959600*%
D10*
X277840Y217170D03*
X23840Y217170D03*
D11*
X68580Y161290D03*
X68580Y186290D03*
D12*
X261620Y171450D03*
X236220Y171450D03*
X210820Y171450D03*
X134620Y172085D03*
X185420Y172085D03*
X160020Y172085D03*
X19050Y92710D03*
X19050Y118110D03*
X44450Y92710D03*
X44450Y118110D03*
X97790Y92710D03*
X97790Y118110D03*
X123190Y92710D03*
X123190Y118110D03*
X176530Y92710D03*
X176530Y118110D03*
X201930Y92710D03*
X201930Y118110D03*
X255270Y92710D03*
X255270Y118110D03*
X280670Y92710D03*
X280670Y118110D03*
D13*
X60960Y731340D03*
X60960Y705940D03*
X60960Y578940D03*
X60960Y553540D03*
X60960Y680540D03*
X60960Y655140D03*
X60960Y604340D03*
X60960Y629740D03*
X60960Y528140D03*
X60960Y502740D03*
X60960Y477340D03*
X60960Y451940D03*
X60960Y426540D03*
X60960Y401140D03*
X60960Y375740D03*
X60960Y350340D03*
X60960Y324940D03*
X60960Y299540D03*
X60960Y274140D03*
X60960Y248740D03*
X238760Y248740D03*
X238760Y274140D03*
X238760Y299540D03*
X238760Y324940D03*
X238760Y350340D03*
X238760Y375740D03*
X238760Y401140D03*
X238760Y426540D03*
X238760Y451940D03*
X238760Y477340D03*
X238760Y502740D03*
X238760Y528140D03*
X238760Y553540D03*
X238760Y578940D03*
X238760Y604340D03*
X238760Y629740D03*
X238760Y655140D03*
X238760Y680540D03*
X238760Y705940D03*
X238760Y731340D03*
D14*
X49860Y731340D03*
X49860Y705940D03*
X49860Y680540D03*
X49860Y655140D03*
X49860Y629740D03*
X49860Y604340D03*
X49860Y578940D03*
X49860Y553540D03*
X49860Y528140D03*
X49860Y502740D03*
X49860Y477340D03*
X49860Y451940D03*
X49860Y426540D03*
X49860Y401140D03*
X49860Y375740D03*
X49860Y350340D03*
X49860Y324940D03*
X49860Y299540D03*
X49860Y274140D03*
X49860Y248740D03*
X249860Y248740D03*
X249860Y274140D03*
X249860Y299540D03*
X249860Y324940D03*
X249860Y350340D03*
X249860Y375740D03*
X249860Y401140D03*
X249860Y426540D03*
X249860Y451940D03*
X249860Y477340D03*
X249860Y502740D03*
X249860Y528140D03*
X249860Y553540D03*
X249860Y578940D03*
X249860Y604340D03*
X249860Y629740D03*
X249860Y655140D03*
X249860Y680540D03*
X249860Y705940D03*
X249860Y731340D03*
D10*
X206860Y726105D03*
X92860Y726105D03*
X206870Y254965D03*
X92860Y254965D03*
D15*
X80772Y662940D03*
X192024Y583692D03*
X190500Y365760D03*
X202692Y361188D03*
X111252Y592836D03*
X112776Y554736D03*
X134112Y399288D03*
X127508Y411480D03*
X219456Y608076D03*
X152908Y632460D03*
X100584Y595884D03*
X128016Y455676D03*
X105156Y374904D03*
X105156Y384048D03*
X178308Y516636D03*
X188976Y614172D03*
X169164Y516636D03*
X222504Y463296D03*
X161544Y614172D03*
X158496Y583692D03*
X198120Y224028D03*
X239268Y234696D03*
X272796Y560832D03*
X226973Y636120D03*
X170688Y576072D03*
X176784Y637032D03*
X173736Y335280D03*
X190500Y355092D03*
X161544Y365760D03*
X175260Y217932D03*
X169164Y382524D03*
X176784Y457200D03*
X169164Y463296D03*
X155448Y330708D03*
X167640Y77724D03*
X263652Y108204D03*
X74676Y48768D03*
X234696Y111252D03*
X50292Y76200D03*
X213360Y105156D03*
X181356Y376428D03*
X161544Y342900D03*
X170688Y598932D03*
X196596Y539496D03*
M02*
