M48
;GenerationSoftware,Autodesk,EAGLE,9.7.0*%
;CreationDate,2025-04-19T14:32:36Z*%
FMAT,2
ICI,OFF
METRIC,TZ,000.000
T5C0.350
T4C0.762
T3C1.000
T2C1.016
T1C2.400
%
G90
M71
T1
X20686Y72611
X9286Y72611
X20687Y25497
X9286Y25497
X27784Y21717
X2384Y21717
T2
X13462Y17209
X18542Y17209
X28067Y11811
X28067Y9271
X25527Y9271
X20193Y11811
X20193Y9271
X17653Y11811
X17653Y9271
X12319Y11811
X12319Y9271
X9779Y11811
X9779Y9271
X4445Y11811
X25527Y11811
X4445Y9271
X16002Y17209
X1905Y11811
X1905Y9271
X26162Y17145
X23622Y17145
X21082Y17145
T3
X6096Y47734
X6096Y45194
X6096Y42654
X6096Y40114
X6096Y37574
X6096Y35034
X6096Y32494
X6096Y29954
X6096Y27414
X6096Y24874
X23876Y24874
X23876Y27414
X23876Y29954
X23876Y32494
X23876Y35034
X23876Y40114
X23876Y42654
X23876Y45194
X23876Y47734
X23876Y50274
X23876Y52814
X23876Y55354
X23876Y57894
X23876Y60434
X23876Y62974
X23876Y65514
X23876Y68054
X23876Y70594
X23876Y73134
X23876Y37574
X6096Y73134
X6096Y70594
X6096Y57894
X6096Y55354
X6096Y68054
X6096Y65514
X6096Y60434
X6096Y62974
X6096Y52814
X6096Y50274
T4
X6858Y16129
X6858Y18629
T5
X19050Y36576
X20269Y36119
X11125Y59284
X11278Y55474
X13411Y39929
X12751Y41148
X21946Y60808
X15291Y63246
X10058Y59588
X12802Y45568
X10516Y37490
X10516Y38405
X18898Y61417
X16916Y51664
X22250Y46330
X16154Y61417
X15850Y58369
X19812Y22403
X23927Y23470
X27280Y56083
X22697Y63612
X17069Y57607
X17678Y63703
X17374Y33528
X19050Y35509
X16154Y36576
X17526Y21793
X23470Y11125
X7468Y4877
X17831Y51664
X26365Y10820
X16764Y7772
X15545Y33071
X8077Y66294
X19660Y53950
X17678Y45720
X16916Y38252
X19202Y58369
X16916Y46330
X17069Y59893
X16154Y34290
X18136Y37643
X21336Y10516
X5029Y7620
M30