M48
;GenerationSoftware,Autodesk,EAGLE,9.7.0*%
;CreationDate,2025-05-26T14:59:19Z*%
FMAT,2
ICI,OFF
METRIC,TZ,000.000
T6C0.350
T5C0.762
T4C1.000
T3C1.016
T2C2.400
T1C2.500
%
G90
M71
T1
X27784Y21717
X2384Y21717
T2
X20686Y72611
X9286Y72611
X20687Y25497
X9286Y25497
T3
X18542Y17209
X21082Y17209
X26162Y17209
X28067Y11811
X28067Y9271
X25527Y11811
X20193Y11811
X20193Y9271
X17653Y11811
X17653Y9271
X12319Y11811
X12319Y9271
X9779Y11811
X9779Y9271
X25527Y9271
X4445Y11811
X4445Y9271
X13462Y17209
X1905Y11811
X1905Y9271
X23622Y17209
X16002Y17209
T4
X6096Y50274
X6096Y47734
X6096Y45194
X6096Y42654
X6096Y40114
X6096Y37574
X6096Y35034
X6096Y32494
X6096Y29954
X6096Y27414
X6096Y24874
X23876Y24874
X23876Y27414
X23876Y29954
X23876Y32494
X23876Y35034
X23876Y40114
X23876Y42654
X23876Y45194
X23876Y47734
X23876Y50274
X23876Y52814
X23876Y55354
X23876Y57894
X23876Y60434
X23876Y62974
X23876Y65514
X23876Y68054
X23876Y70594
X23876Y73134
X23876Y37574
X6096Y73134
X6096Y70594
X6096Y57894
X6096Y55354
X6096Y68054
X6096Y65514
X6096Y60434
X6096Y62974
X6096Y52814
T5
X7278Y19629
X7278Y17129
T6
X10058Y55931
X24841Y23470
X9296Y48006
X2286Y63398
X8839Y38100
X10516Y38100
X9296Y58217
X19660Y58826
X12497Y58217
X18136Y37338
X16764Y37948
X14021Y61570
X7468Y55474
X11887Y27432
X9601Y16154
X9601Y13106
X8382Y8077
X12344Y44044
X12954Y15240
X12344Y44958
X8992Y35357
X7468Y40234
X11125Y28499
X2743Y28804
X7010Y13564
X22555Y44348
X27889Y64922
X21641Y51511
X19507Y28499
X27280Y36881
X17374Y4877
X11278Y58826
X16916Y13411
X27280Y57912
X16916Y36119
X20117Y41605
X16764Y45720
X17374Y56236
X15545Y41758
X27737Y42367
X14935Y16307
X8077Y30632
X7468Y64313
X17374Y51816
X17526Y22250
X17526Y26670
M30