M48
;GenerationSoftware,Autodesk,EAGLE,9.7.0*%
;CreationDate,2025-05-04T15:24:28Z*%
FMAT,2
ICI,OFF
METRIC,TZ,000.000
T6C0.350
T5C0.762
T4C1.000
T3C1.016
T2C2.400
T1C2.500
%
G90
M71
T1
X27784Y21717
X2384Y21717
T2
X20686Y72611
X9286Y72611
X20687Y25497
X9286Y25497
T3
X18542Y17209
X21082Y17209
X26162Y17209
X28067Y11811
X28067Y9271
X25527Y11811
X20193Y11811
X20193Y9271
X17653Y11811
X17653Y9271
X12319Y11811
X12319Y9271
X9779Y11811
X9779Y9271
X25527Y9271
X4445Y11811
X4445Y9271
X13462Y17209
X1905Y11811
X1905Y9271
X23622Y17209
X16002Y17209
T4
X6096Y50274
X6096Y47734
X6096Y45194
X6096Y42654
X6096Y40114
X6096Y37574
X6096Y35034
X6096Y32494
X6096Y29954
X6096Y27414
X6096Y24874
X23876Y24874
X23876Y27414
X23876Y29954
X23876Y32494
X23876Y35034
X23876Y40114
X23876Y42654
X23876Y45194
X23876Y47734
X23876Y50274
X23876Y52814
X23876Y55354
X23876Y57894
X23876Y60434
X23876Y62974
X23876Y65514
X23876Y68054
X23876Y70594
X23876Y73134
X23876Y37574
X6096Y73134
X6096Y70594
X6096Y57894
X6096Y55354
X6096Y68054
X6096Y65514
X6096Y60434
X6096Y62974
X6096Y52814
T5
X7278Y18629
X7278Y16129
T6
X10058Y56236
X12497Y56083
X12497Y51206
X8230Y57760
X16002Y57760
X22555Y15392
X8382Y38100
X11125Y38100
X15850Y38100
X22403Y43282
X19202Y38100
X12192Y36271
X13716Y26670
X10058Y33985
X9449Y36576
X18898Y57760
X20269Y56388
X22555Y45110
X19660Y53340
X17069Y56236
X20879Y60046
X17831Y29108
X17069Y31852
X19050Y40386
X17831Y28194
X20117Y40538
X21184Y39776
X21946Y22555
X10058Y31547
X12192Y37186
X10211Y51206
X12192Y34138
X13259Y44806
X11582Y51359
X12192Y56998
X23774Y9906
X5639Y7772
X18136Y56236
X6553Y7772
X20269Y4877
X16612Y33223
X19660Y54864
X22098Y31699
X17069Y51359
X17374Y33833
X18136Y36576
M30